<?xml version="1.0" encoding="utf-8"?>
<!-- Generator: Adobe Illustrator 16.0.1, SVG Export Plug-In . SVG Version: 6.00 Build 0)  -->
<!DOCTYPE svg PUBLIC "-//W3C//DTD SVG 1.1//EN" "http://www.w3.org/Graphics/SVG/1.1/DTD/svg11.dtd">
<svg version="1.1" id="Layer_1" xmlns="http://www.w3.org/2000/svg" xmlns:xlink="http://www.w3.org/1999/xlink" x="0px" y="0px"
	 width="223px" height="46.2px" viewBox="0 0 223 46.2" style="enable-background:new 0 0 223 46.2;" xml:space="preserve">
<style type="text/css">
<![CDATA[
	.st0{clip-path:url(#SVGID_2_);fill:#472175;}
	.st1{clip-path:url(#SVGID_4_);}
	.st2{clip-path:url(#SVGID_2_);fill:none;stroke:#472175;stroke-width:2;stroke-miterlimit:10;}
]]>
</style>
<g>
	<defs>
		<rect id="SVGID_1_" y="0" width="223" height="34"/>
	</defs>
	<clipPath id="SVGID_2_">
		<use xlink:href="#SVGID_1_"  style="overflow:visible;"/>
	</clipPath>
	<path class="st0" d="M12.6,29V14.1c0-2.2-0.9-4.1-4.3-4.1c-1.6,0-2.8,0.3-4.1,1.1V29H0.8V0.5h3.4l0,8.6C6,8.2,7.5,7.8,9,7.8
		c5.3,0,7,3.2,7,6.2v15H12.6"/>
	<path class="st0" d="M34.7,27.9V14.4c0-5.1-3.4-6.8-7.3-6.8c-2.9,0-5.2,0.9-6.4,1.6l0.8,2c1.2-0.6,3-1.3,5.1-1.3
		c2.7,0,4.6,0.9,4.6,4.2v1.3C25,16,19.8,17.6,19.8,23.2c0,3.8,2.5,6.2,8,6.2C30.7,29.4,33.1,28.8,34.7,27.9 M31.5,26.7
		c-0.9,0.5-2.1,0.7-3.5,0.7c-3.1,0-5-1.2-5-4.3c0-4.2,3.2-5.4,8.4-6V26.7z"/>
	<path class="st0" d="M45.7,34h-3.5l2.2-4.9l-7-21h3.7l4.3,15.1c0.4,1.4,0.5,2.7,0.5,2.7H46c0,0,0.1-1.2,0.5-2.7L51.1,8h3.2L45.7,34
		"/>
	<path class="st0" d="M61.4,29.3c-2.3,0-4.2-0.6-5.4-1.4l0.9-2.2c0.7,0.6,2.2,1.2,4.1,1.2c2.4,0,3.9-1.6,3.9-3.6
		c0-2.2-1.2-3.1-3.5-4c-4.1-1.5-4.9-3.7-4.9-5.9c0-3.1,2.4-5.7,6.3-5.7c2.2,0,3.8,0.7,4.9,1.4l-0.9,2.1c-0.6-0.5-1.9-1.2-3.5-1.2
		c-2.3,0-3.5,1.5-3.5,3.3c0,2,1.5,3,3.5,3.8c4.1,1.6,5.1,3.7,5.1,6.1C68.5,26.3,65.7,29.3,61.4,29.3"/>
	<path class="st0" d="M95.9,29V13.9c0-2.1-1-4-4.1-4c-1.8,0-3.1,0.6-4.3,1.9V29h-3.4V13.7c0-2.3-1.6-3.9-4.6-3.9
		c-1.7,0-2.6,0.2-3.8,0.7V29h-3.4V9.1c1.9-0.9,3.9-1.5,7.3-1.5c3.2,0,5.2,1,6.4,2.5c1.4-1.5,3.6-2.5,6.5-2.5c5,0,6.8,3.3,6.8,6.2V29
		H95.9"/>
	<path class="st0" d="M118,27.9V14.4c0-5.1-3.4-6.8-7.3-6.8c-2.9,0-5.2,0.9-6.4,1.6l0.8,2c1.2-0.6,3-1.3,5.1-1.3
		c2.7,0,4.6,0.9,4.6,4.2v1.3c-6.5,0.7-11.7,2.3-11.7,7.9c0,3.8,2.5,6.2,8,6.2C114,29.4,116.4,28.8,118,27.9 M114.8,26.7
		c-0.9,0.5-2.1,0.7-3.5,0.7c-3.1,0-5-1.2-5-4.3c0-4.2,3.1-5.4,8.4-6V26.7z"/>
	<path class="st0" d="M130,29.4c-4.6,0-8-4.1-8-10.9c0-6.9,3.4-10.8,8.1-10.8c2.6,0,4,0.8,4.6,1.4l-0.8,2c-0.6-0.5-1.6-1-3.1-1
		c-3.8,0-5.3,3.5-5.3,8.4c0,5,1.8,8.5,5.2,8.5c1.4,0,2.4-0.5,3.2-1l0.9,2.1C133.9,28.7,132.3,29.4,130,29.4"/>
	<rect x="138.3" y="8" class="st0" width="3.4" height="21"/>
	<path class="st0" d="M158.4,29V14c0-1.9-0.8-4.1-4.4-4.1c-2,0-2.9,0.3-4,0.7V29h-3.4V9.1c1.9-0.9,4.3-1.5,7.7-1.5
		c5.8,0,7.6,3.3,7.6,6.2V29H158.4"/>
	<path class="st0" d="M173,29.2c-3.8,0-5.2-2.7-5.2-5.3V10.1h-2.4V8h2.4V3.2l3.4-1v21.7c0,1.7,0.7,3,2.7,3c0.4,0,0.7-0.1,1-0.2v2.2
		C174.4,29,173.8,29.2,173,29.2"/>
	<path class="st0" d="M185,34h-3.6l2.2-4.9l-7-21h3.7l4.3,15.1c0.4,1.4,0.5,2.7,0.5,2.7h0.1c0,0,0.1-1.2,0.5-2.7L190.4,8h3.2L185,34
		"/>
	<path class="st0" d="M204.8,10.3c-1.7-0.5-3.7-0.4-4.8,0.4V29h-3.4V9.2c2.1-1.1,4.1-1.6,9-1.5L204.8,10.3"/>
	<path class="st0" d="M222.8,18.3c0.1-7-2.9-10.3-8-10.3c-5,0-8.5,3.7-8.5,10.8c0,7.5,3.9,10.9,9.4,10.9c2.8,0,5.1-0.7,6.3-1.4
		l-0.9-2.3c-1.1,0.6-2.8,1.2-5.2,1.2c-3.8,0-7-3.4-6.5-8.9H222.8 M219.6,16.8l-10.1,0.9c0-5.1,2.2-7.5,5.2-7.5
		C217.7,10.2,219.6,12.1,219.6,16.8"/>
	<line class="st2" x1="208.9" y1="17.2" x2="220.4" y2="17.2"/>
	<rect x="138.3" y="2.2" class="st0" width="3.4" height="3.4"/>
</g>
<g>
	<defs>
		<rect id="SVGID_3_" y="0" width="223" height="46.2"/>
	</defs>
	<clipPath id="SVGID_4_">
		<use xlink:href="#SVGID_3_"  style="overflow:visible;"/>
	</clipPath>
	<path class="st1" d="M17.4,40.1c-0.5-0.2-1-0.4-1.5-0.4c-1.7,0-2.6,1.2-2.6,2.9c0,1.6,0.9,2.9,2.5,2.9c0.5,0,1-0.1,1.6-0.3l0.1,0.8
		c-0.6,0.2-1.1,0.2-1.8,0.2c-2.2,0-3.3-1.7-3.3-3.6c0-2.1,1.4-3.6,3.4-3.6c0.8,0,1.4,0.2,1.7,0.3L17.4,40.1z"/>
	<path class="st1" d="M18.9,35.9h0.9v4.4h0C20.2,39.6,21,39,22,39c1.9,0,2.4,1.2,2.4,2.9v4.1h-0.9v-4.1c0-1.2-0.2-2.2-1.6-2.2
		c-1.5,0-2,1.4-2,2.6v3.7h-0.9V35.9z"/>
	<path class="st1" d="M30.4,44.9L30.4,44.9c-0.4,0.8-1.4,1.3-2.2,1.3c-2,0-2.3-1.3-2.3-1.9c0-2.3,2.5-2.4,4.2-2.4h0.2v-0.4
		c0-1.2-0.4-1.8-1.6-1.8c-0.7,0-1.4,0.2-2,0.6v-0.8c0.5-0.3,1.4-0.5,2-0.5c1.7,0,2.4,0.8,2.4,2.6v3c0,0.6,0,1,0.1,1.4h-0.8V44.9z
		 M30.3,42.6h-0.2c-1.5,0-3.2,0.1-3.2,1.7c0,0.9,0.6,1.2,1.4,1.2c2,0,2-1.7,2-2.5V42.6z"/>
	<path class="st1" d="M33.2,40.7c0-0.8,0-1-0.1-1.5H34v1.3h0c0.3-0.8,0.9-1.5,1.8-1.5c0.2,0,0.4,0,0.6,0.1V40
		c-0.2-0.1-0.4-0.1-0.6-0.1c-1.4,0-1.7,1.5-1.7,2.8v3.4h-0.9V40.7z"/>
	<path class="st1" d="M40.7,39.9h-1.6v4.5c0,0.6,0.2,1.1,0.9,1.1c0.3,0,0.5-0.1,0.8-0.2l0.1,0.7c-0.2,0.1-0.6,0.2-1,0.2
		c-1.5,0-1.6-1-1.6-2.3v-4h-1.4v-0.7h1.4v-1.7l0.9-0.3v2h1.6V39.9z"/>
	<path class="st1" d="M46.8,45.8c-0.6,0.2-1.4,0.4-2,0.4c-2.3,0-3.1-1.5-3.1-3.6c0-2.1,1.2-3.6,2.9-3.6c1.9,0,2.7,1.6,2.7,3.4v0.4
		h-4.7c0,1.5,0.8,2.6,2.3,2.6c0.6,0,1.5-0.3,1.9-0.5V45.8z M46.4,42.1c0-1.2-0.5-2.4-1.8-2.4c-1.3,0-2,1.3-2,2.4H46.4z"/>
	<path class="st1" d="M49,40.7c0-0.8,0-1-0.1-1.5h0.9v1.3h0c0.3-0.8,0.9-1.5,1.8-1.5c0.2,0,0.4,0,0.6,0.1V40
		c-0.2-0.1-0.4-0.1-0.6-0.1c-1.4,0-1.7,1.5-1.7,2.8v3.4H49V40.7z"/>
	<path class="st1" d="M57.9,45.8c-0.6,0.2-1.4,0.4-2,0.4c-2.3,0-3.1-1.5-3.1-3.6c0-2.1,1.2-3.6,2.9-3.6c1.9,0,2.7,1.6,2.7,3.4v0.4
		h-4.7c0,1.5,0.8,2.6,2.3,2.6c0.6,0,1.5-0.3,1.9-0.5V45.8z M57.4,42.1c0-1.2-0.5-2.4-1.8-2.4c-1.3,0-2,1.3-2,2.4H57.4z"/>
	<path class="st1" d="M65.5,46.1h-0.9V45h0c-0.5,0.9-1.2,1.3-2.1,1.3c-1.9,0-2.8-1.6-2.8-3.6c0-2.1,0.8-3.6,2.8-3.6
		c1.4,0,2,1,2.1,1.3h0v-4.4h0.9V46.1z M62.6,45.5c1.5,0,2-1.6,2-2.9c0-1.3-0.5-2.9-2-2.9c-1.6,0-2,1.5-2,2.9
		C60.5,43.9,61,45.5,62.6,45.5"/>
	<path class="st1" d="M75.2,44.9L75.2,44.9c-0.4,0.8-1.4,1.3-2.2,1.3c-2,0-2.3-1.3-2.3-1.9c0-2.3,2.5-2.4,4.2-2.4h0.2v-0.4
		c0-1.2-0.4-1.8-1.6-1.8c-0.7,0-1.4,0.2-2,0.6v-0.8c0.5-0.3,1.4-0.5,2-0.5c1.7,0,2.4,0.8,2.4,2.6v3c0,0.6,0,1,0.1,1.4h-0.8V44.9z
		 M75.2,42.6h-0.2c-1.5,0-3.2,0.1-3.2,1.7c0,0.9,0.6,1.2,1.4,1.2c2,0,2-1.7,2-2.5V42.6z"/>
	<path class="st1" d="M82.5,40.1c-0.5-0.2-1-0.4-1.5-0.4c-1.7,0-2.6,1.2-2.6,2.9c0,1.6,0.9,2.9,2.5,2.9c0.5,0,1-0.1,1.6-0.3l0.1,0.8
		c-0.6,0.2-1.1,0.2-1.8,0.2c-2.2,0-3.3-1.7-3.3-3.6c0-2.1,1.4-3.6,3.4-3.6c0.8,0,1.4,0.2,1.7,0.3L82.5,40.1z"/>
	<path class="st1" d="M88.5,40.1c-0.5-0.2-1-0.4-1.5-0.4c-1.7,0-2.6,1.2-2.6,2.9c0,1.6,0.9,2.9,2.5,2.9c0.5,0,1-0.1,1.6-0.3l0.1,0.8
		c-0.6,0.2-1.1,0.2-1.8,0.2c-2.2,0-3.3-1.7-3.3-3.6c0-2.1,1.4-3.6,3.4-3.6c0.8,0,1.4,0.2,1.7,0.3L88.5,40.1z"/>
	<path class="st1" d="M92.7,39c2.2,0,3.2,1.7,3.2,3.6s-1,3.6-3.2,3.6c-2.2,0-3.2-1.7-3.2-3.6S90.5,39,92.7,39 M92.7,45.5
		c1.5,0,2.3-1.3,2.3-2.9c0-1.6-0.8-2.9-2.3-2.9s-2.3,1.3-2.3,2.9C90.5,44.2,91.3,45.5,92.7,45.5"/>
	<path class="st1" d="M103,44.4c0,0.5,0,1.1,0.1,1.6h-0.8v-1.2h0c-0.3,0.6-0.8,1.4-2.2,1.4c-1.7,0-2.4-1.1-2.4-2.6v-4.4h0.9v4.2
		c0,1.3,0.5,2.1,1.6,2.1c1.6,0,2-1.4,2-2.5v-3.8h0.9V44.4z"/>
	<path class="st1" d="M105.1,40.8c0-0.5,0-1.1-0.1-1.6h0.8v1.2h0c0.3-0.6,0.8-1.4,2.2-1.4c1.7,0,2.4,1.1,2.4,2.6v4.4h-0.9v-4.2
		c0-1.3-0.5-2.1-1.6-2.1c-1.6,0-2,1.4-2,2.5v3.8h-0.9V40.8z"/>
	<path class="st1" d="M115.6,39.9H114v4.5c0,0.6,0.2,1.1,0.9,1.1c0.3,0,0.5-0.1,0.8-0.2l0.1,0.7c-0.2,0.1-0.6,0.2-1,0.2
		c-1.5,0-1.6-1-1.6-2.3v-4h-1.4v-0.7h1.4v-1.7l0.9-0.3v2h1.6V39.9z"/>
	<path class="st1" d="M121.1,44.9L121.1,44.9c-0.4,0.8-1.4,1.3-2.2,1.3c-2,0-2.3-1.3-2.3-1.9c0-2.3,2.5-2.4,4.2-2.4h0.2v-0.4
		c0-1.2-0.4-1.8-1.6-1.8c-0.7,0-1.4,0.2-2,0.6v-0.8c0.5-0.3,1.4-0.5,2-0.5c1.7,0,2.4,0.8,2.4,2.6v3c0,0.6,0,1,0.1,1.4h-0.8V44.9z
		 M121,42.6h-0.2c-1.5,0-3.2,0.1-3.2,1.7c0,0.9,0.6,1.2,1.4,1.2c2,0,2-1.7,2-2.5V42.6z"/>
	<path class="st1" d="M123.9,40.8c0-0.5,0-1.1-0.1-1.6h0.8v1.2h0c0.3-0.6,0.8-1.4,2.2-1.4c1.7,0,2.4,1.1,2.4,2.6v4.4h-0.9v-4.2
		c0-1.3-0.5-2.1-1.6-2.1c-1.6,0-2,1.4-2,2.5v3.8h-0.9V40.8z"/>
	<path class="st1" d="M134.4,39.9h-1.6v4.5c0,0.6,0.2,1.1,0.9,1.1c0.3,0,0.5-0.1,0.8-0.2l0.1,0.7c-0.2,0.1-0.6,0.2-1,0.2
		c-1.5,0-1.6-1-1.6-2.3v-4h-1.4v-0.7h1.4v-1.7l0.9-0.3v2h1.6V39.9z"/>
	<path class="st1" d="M135.4,45.1c0.5,0.3,1.1,0.4,1.8,0.4c0.8,0,1.5-0.4,1.5-1.2c0-1.6-3.3-1.4-3.3-3.4c0-1.4,1.1-1.9,2.2-1.9
		c0.4,0,1.1,0.1,1.7,0.3l-0.1,0.7c-0.4-0.2-1.1-0.3-1.5-0.3c-0.9,0-1.5,0.3-1.5,1.1c0,1.3,3.4,1.1,3.4,3.4c0,1.5-1.4,2-2.4,2
		c-0.7,0-1.3-0.1-1.9-0.3L135.4,45.1z"/>
	<path class="st1" d="M150.5,43.7c0.6-0.9,0.8-1.9,0.8-2.9h0.8c0,1.2-0.4,2.5-1.1,3.4l1.6,1.7h-1.2l-1-1.1c-0.8,0.9-1.8,1.2-2.9,1.2
		c-1.6,0-3.1-0.8-3.1-2.6c0-1.4,1-2.3,2.2-2.7c-0.6-0.7-1.2-1.4-1.2-2.3c0-1.4,1.3-2.1,2.5-2.1c1.1,0,2.2,0.6,2.2,1.9
		c0,1.5-1.1,2-2.3,2.6L150.5,43.7z M147.2,41.4c-0.9,0.4-1.8,1.1-1.8,2.2c0,1.3,1.1,1.9,2.2,1.9c0.9,0,1.8-0.4,2.3-1.1L147.2,41.4z
		 M147.5,40.5c0.8-0.4,1.8-0.8,1.8-1.9c0-0.9-0.5-1.4-1.3-1.4c-0.8,0-1.6,0.5-1.6,1.4C146.5,39.3,147,39.9,147.5,40.5"/>
	<path class="st1" d="M160.7,39.9h-1.6v4.5c0,0.6,0.2,1.1,0.9,1.1c0.3,0,0.5-0.1,0.8-0.2l0.1,0.7c-0.2,0.1-0.6,0.2-1,0.2
		c-1.5,0-1.6-1-1.6-2.3v-4h-1.4v-0.7h1.4v-1.7l0.9-0.3v2h1.6V39.9z"/>
	<path class="st1" d="M166.2,44.9L166.2,44.9c-0.4,0.8-1.4,1.3-2.2,1.3c-2,0-2.3-1.3-2.3-1.9c0-2.3,2.5-2.4,4.2-2.4h0.2v-0.4
		c0-1.2-0.4-1.8-1.6-1.8c-0.7,0-1.4,0.2-2,0.6v-0.8c0.5-0.3,1.4-0.5,2-0.5c1.7,0,2.4,0.8,2.4,2.6v3c0,0.6,0,1,0.1,1.4h-0.8V44.9z
		 M166.1,42.6h-0.2c-1.5,0-3.2,0.1-3.2,1.7c0,0.9,0.6,1.2,1.4,1.2c2,0,2-1.7,2-2.5V42.6z"/>
	<polygon class="st1" points="170.4,42.4 168.2,39.2 169.3,39.2 170.9,41.7 172.6,39.2 173.6,39.2 171.4,42.4 173.8,46.1 
		172.7,46.1 170.9,43.1 169,46.1 168,46.1 	"/>
	<path class="st1" d="M182.7,44.9L182.7,44.9c-0.4,0.8-1.4,1.3-2.2,1.3c-2,0-2.3-1.3-2.3-1.9c0-2.3,2.5-2.4,4.2-2.4h0.2v-0.4
		c0-1.2-0.4-1.8-1.6-1.8c-0.7,0-1.4,0.2-2,0.6v-0.8c0.5-0.3,1.4-0.5,2-0.5c1.7,0,2.4,0.8,2.4,2.6v3c0,0.6,0,1,0.1,1.4h-0.8V44.9z
		 M182.6,42.6h-0.2c-1.5,0-3.2,0.1-3.2,1.7c0,0.9,0.6,1.2,1.4,1.2c2,0,2-1.7,2-2.5V42.6z"/>
	<path class="st1" d="M190.9,46.1h-0.9V45h0c-0.5,0.9-1.2,1.3-2.1,1.3c-1.9,0-2.8-1.6-2.8-3.6c0-2.1,0.8-3.6,2.8-3.6
		c1.4,0,2,1,2.1,1.3h0v-4.4h0.9V46.1z M188,45.5c1.5,0,2-1.6,2-2.9c0-1.3-0.5-2.9-2-2.9c-1.6,0-2,1.5-2,2.9
		C186,43.9,186.4,45.5,188,45.5"/>
	<polygon class="st1" points="195.4,46.1 194.4,46.1 192.1,39.2 193,39.2 194.9,45.1 194.9,45.1 196.9,39.2 197.8,39.2 	"/>
	<path class="st1" d="M199.9,37.3H199v-1.1h0.9V37.3z M199,39.2h0.9v6.9H199V39.2z"/>
	<path class="st1" d="M201.5,45.1c0.5,0.3,1.1,0.4,1.8,0.4c0.8,0,1.5-0.4,1.5-1.2c0-1.6-3.3-1.4-3.3-3.4c0-1.4,1.1-1.9,2.2-1.9
		c0.4,0,1.1,0.1,1.7,0.3l-0.1,0.7c-0.4-0.2-1.1-0.3-1.5-0.3c-0.9,0-1.5,0.3-1.5,1.1c0,1.3,3.4,1.1,3.4,3.4c0,1.5-1.4,2-2.4,2
		c-0.7,0-1.3-0.1-1.9-0.3L201.5,45.1z"/>
	<path class="st1" d="M211.9,45.8c-0.6,0.2-1.4,0.4-2,0.4c-2.3,0-3.1-1.5-3.1-3.6c0-2.1,1.2-3.6,2.9-3.6c1.9,0,2.7,1.6,2.7,3.4v0.4
		h-4.7c0,1.5,0.8,2.6,2.3,2.6c0.6,0,1.5-0.3,1.9-0.5V45.8z M211.5,42.1c0-1.2-0.5-2.4-1.8-2.4c-1.3,0-2,1.3-2,2.4H211.5z"/>
	<path class="st1" d="M214,40.7c0-0.8,0-1-0.1-1.5h0.9v1.3h0c0.3-0.8,0.9-1.5,1.8-1.5c0.2,0,0.4,0,0.6,0.1V40
		c-0.2-0.1-0.4-0.1-0.6-0.1c-1.4,0-1.7,1.5-1.7,2.8v3.4H214V40.7z"/>
	<path class="st1" d="M218,45.1c0.5,0.3,1.1,0.4,1.8,0.4c0.8,0,1.5-0.4,1.5-1.2c0-1.6-3.3-1.4-3.3-3.4c0-1.4,1.1-1.9,2.2-1.9
		c0.4,0,1.1,0.1,1.7,0.3l-0.1,0.7c-0.4-0.2-1.1-0.3-1.5-0.3c-0.9,0-1.5,0.3-1.5,1.1c0,1.3,3.4,1.1,3.4,3.4c0,1.5-1.4,2-2.4,2
		c-0.7,0-1.3-0.1-1.9-0.3L218,45.1z"/>
</g>
</svg>
