<?xml version="1.0" encoding="utf-8"?>
<!-- Generator: Adobe Illustrator 16.0.0, SVG Export Plug-In . SVG Version: 6.00 Build 0)  -->
<!DOCTYPE svg PUBLIC "-//W3C//DTD SVG 1.1//EN" "http://www.w3.org/Graphics/SVG/1.1/DTD/svg11.dtd">
<svg version="1.1" id="Layer_1" xmlns="http://www.w3.org/2000/svg" xmlns:xlink="http://www.w3.org/1999/xlink" x="0px" y="0px"
	 width="252px" height="144px" viewBox="0 0 252 144" enable-background="new 0 0 252 144" xml:space="preserve">
<rect y="0.56" fill="#F3F4F4" width="252" height="44.619"/>
<g>
	<path fill="#3E4357" d="M49.499,39.521V17.644L33.274,38.838c-0.748,0.942-1.835,1.413-3.265,1.413
		c-1.43,0-2.518-0.471-3.265-1.413L10.568,17.644v21.876H3.845V8.581c0-1.039,0.381-1.803,1.145-2.29
		C5.752,5.804,6.702,5.56,7.84,5.56c0.876,0,1.575,0.122,2.095,0.366c0.519,0.243,0.991,0.642,1.413,1.193l18.758,24.898
		L49.011,7.119c0.422-0.552,0.869-0.95,1.34-1.193c0.471-0.244,1.128-0.366,1.973-0.366c1.137,0,2.087,0.244,2.851,0.731
		c0.763,0.487,1.145,1.251,1.145,2.29v30.939H49.499z"/>
	<path fill="#3E4357" d="M95.737,31.871H72.739l-4.726,7.649h-8.527L78.781,8.825c0.584-0.942,1.283-1.721,2.095-2.339
		c0.812-0.617,1.981-0.926,3.508-0.926c1.494,0,2.647,0.309,3.459,0.926c0.812,0.618,1.51,1.397,2.095,2.339l19.197,30.696h-8.576
		L95.737,31.871z M76.199,26.17h16.079l-8.04-13.107L76.199,26.17z"/>
	<path fill="#3E4357" d="M117.272,39.521V12.674h-13.935V6.291h35.325v6.383h-13.935v26.847H117.272z"/>
	<path fill="#3E4357" d="M169.261,39.521l-19.44-12.083v12.083h-7.357V6.291h26.019c2.338,0,4.336,0.146,5.993,0.438
		c1.656,0.292,3.013,0.813,4.067,1.559c1.056,0.748,1.827,1.771,2.315,3.069c0.486,1.3,0.73,2.94,0.73,4.921v2.29
		c0,1.917-0.261,3.5-0.779,4.751c-0.52,1.25-1.324,2.241-2.412,2.972c-1.089,0.731-2.46,1.243-4.117,1.535
		c-1.656,0.292-3.622,0.438-5.896,0.438h-5.848l19.49,11.255H169.261z M174.182,16.669c0-0.877-0.097-1.591-0.293-2.144
		c-0.194-0.552-0.52-0.975-0.974-1.267c-0.455-0.292-1.089-0.487-1.9-0.584c-0.813-0.097-1.819-0.146-3.021-0.146H149.82v10.134
		h18.174c1.201,0,2.2-0.049,2.996-0.146c0.796-0.098,1.429-0.292,1.9-0.584c0.471-0.293,0.804-0.714,0.998-1.267
		c0.196-0.552,0.293-1.283,0.293-2.192V16.669z"/>
	<path fill="#3E4357" d="M186.8,39.521V6.291h7.406v33.229H186.8z"/>
	<path fill="#3E4357" d="M235.232,39.521l-13.691-12.717l-13.643,12.717h-10.329l19.1-17.199l-18.028-16.03h10.67l12.669,11.792
		L235.33,6.291h10.086l-18.077,15.981L246,39.521H235.232z"/>
</g>
<g>
	<path fill="#F3F4F4" d="M6.879,81.396v-4.68h17.925c0.946,0,1.626-0.139,2.042-0.418c0.415-0.277,0.623-0.84,0.623-1.687V73.27
		c0-0.773-0.208-1.324-0.623-1.65c-0.416-0.326-1.084-0.49-2.007-0.49H13.592c-1.315,0-2.405-0.127-3.27-0.38
		c-0.865-0.254-1.552-0.641-2.059-1.161c-0.508-0.52-0.86-1.173-1.056-1.959c-0.196-0.786-0.294-1.711-0.294-2.775v-1.234
		c0-1.257,0.126-2.333,0.381-3.229c0.253-0.895,0.646-1.614,1.176-2.158c0.53-0.544,1.223-0.943,2.076-1.197
		c0.854-0.254,1.869-0.381,3.045-0.381h7.336v4.68h-6.852c-0.808,0-1.401,0.164-1.782,0.49c-0.381,0.327-0.572,0.986-0.572,1.978
		v0.798c0,0.774,0.174,1.324,0.52,1.651s0.946,0.49,1.8,0.49h11.039c1.315,0,2.428,0.115,3.34,0.345
		c0.911,0.23,1.655,0.599,2.232,1.106c0.576,0.508,0.992,1.161,1.246,1.959c0.253,0.798,0.38,1.754,0.38,2.866v1.959
		c0,1.161-0.127,2.146-0.38,2.957c-0.254,0.811-0.669,1.469-1.246,1.978c-0.577,0.508-1.321,0.883-2.232,1.124
		c-0.912,0.242-2.024,0.363-3.34,0.363H6.879z"/>
	<path fill="#F3F4F4" d="M44.391,81.396c-1.73,0-3.172-0.15-4.325-0.453c-1.154-0.303-2.076-0.786-2.769-1.451
		c-0.692-0.666-1.183-1.536-1.471-2.613c-0.289-1.075-0.432-2.399-0.432-3.973v-7.763c0-1.547,0.143-2.866,0.432-3.955
		c0.288-1.088,0.778-1.965,1.471-2.63c0.692-0.665,1.615-1.148,2.769-1.451c1.153-0.302,2.595-0.454,4.325-0.454h8.963
		c1.753,0,3.207,0.151,4.361,0.454c1.153,0.303,2.076,0.786,2.768,1.451c0.692,0.666,1.182,1.542,1.471,2.63
		c0.288,1.088,0.432,2.407,0.432,3.955v7.763c0,1.573-0.145,2.897-0.432,3.973c-0.289,1.077-0.779,1.947-1.471,2.613
		c-0.692,0.665-1.615,1.148-2.768,1.451c-1.154,0.303-2.608,0.453-4.361,0.453H44.391z M57.126,65.397
		c0-0.774-0.064-1.415-0.19-1.923c-0.127-0.508-0.341-0.919-0.641-1.233c-0.3-0.314-0.709-0.532-1.229-0.653
		c-0.519-0.121-1.159-0.181-1.92-0.181h-8.513c-0.831,0-1.505,0.061-2.024,0.181c-0.52,0.122-0.929,0.339-1.229,0.653
		c-0.3,0.314-0.502,0.726-0.605,1.233c-0.104,0.508-0.156,1.149-0.156,1.923v7.292c0,0.798,0.052,1.457,0.156,1.977
		c0.104,0.521,0.306,0.932,0.605,1.234s0.709,0.508,1.229,0.616c0.519,0.108,1.193,0.163,2.024,0.163h8.513
		c0.762,0,1.402-0.055,1.92-0.163c0.52-0.108,0.928-0.313,1.229-0.616c0.3-0.303,0.514-0.713,0.641-1.234
		c0.126-0.52,0.19-1.179,0.19-1.977V65.397z"/>
	<path fill="#F3F4F4" d="M75.189,81.396c-1.73,0-3.172-0.15-4.326-0.453c-1.154-0.303-2.076-0.786-2.768-1.451
		c-0.692-0.666-1.183-1.536-1.471-2.613c-0.289-1.075-0.433-2.399-0.433-3.973V56.653h5.226v16.036c0,0.726,0.063,1.336,0.189,1.832
		c0.127,0.496,0.352,0.906,0.675,1.233c0.323,0.327,0.755,0.563,1.297,0.708c0.542,0.145,1.229,0.217,2.06,0.217h14.015v4.717
		H75.189z"/>
	<path fill="#F3F4F4" d="M101.282,81.396c-1.73,0-3.173-0.15-4.326-0.453c-1.154-0.303-2.076-0.786-2.768-1.451
		c-0.693-0.666-1.183-1.536-1.471-2.613c-0.29-1.075-0.433-2.399-0.433-3.973V56.653h5.295v16.072c0,0.774,0.074,1.409,0.225,1.905
		c0.15,0.496,0.386,0.9,0.709,1.215c0.323,0.314,0.756,0.532,1.298,0.652c0.542,0.122,1.206,0.182,1.99,0.182h7.924
		c0.784,0,1.448-0.06,1.991-0.182c0.541-0.12,0.974-0.338,1.297-0.652c0.321-0.314,0.559-0.726,0.709-1.233
		c0.148-0.509,0.224-1.148,0.224-1.923V56.653h5.226v16.253c0,1.573-0.145,2.897-0.433,3.973c-0.289,1.077-0.778,1.947-1.47,2.613
		c-0.694,0.665-1.617,1.148-2.77,1.451s-2.608,0.453-4.36,0.453H101.282z"/>
	<path fill="#F3F4F4" d="M131.63,81.396v-19.99h-9.896v-4.753h25.089v4.753h-9.896v19.99H131.63z"/>
	<path fill="#F3F4F4" d="M149.589,81.396V56.653h5.262v24.743H149.589z"/>
	<path fill="#F3F4F4" d="M167.826,81.396c-1.73,0-3.172-0.15-4.325-0.453s-2.075-0.786-2.77-1.451
		c-0.691-0.666-1.181-1.536-1.47-2.613c-0.289-1.075-0.433-2.399-0.433-3.973v-7.763c0-1.547,0.144-2.866,0.433-3.955
		s0.778-1.965,1.47-2.63c0.694-0.665,1.616-1.148,2.77-1.451c1.153-0.302,2.595-0.454,4.325-0.454h8.964
		c1.752,0,3.205,0.151,4.36,0.454c1.152,0.303,2.075,0.786,2.77,1.451c0.691,0.666,1.181,1.542,1.47,2.63
		c0.286,1.088,0.433,2.407,0.433,3.955v7.763c0,1.573-0.146,2.897-0.433,3.973c-0.289,1.077-0.778,1.947-1.47,2.613
		c-0.694,0.665-1.617,1.148-2.77,1.451c-1.155,0.303-2.608,0.453-4.36,0.453H167.826z M180.562,65.397
		c0-0.774-0.064-1.415-0.189-1.923c-0.127-0.508-0.343-0.919-0.641-1.233c-0.301-0.314-0.711-0.532-1.23-0.653
		c-0.52-0.121-1.157-0.181-1.92-0.181h-8.513c-0.83,0-1.505,0.061-2.024,0.181c-0.52,0.122-0.929,0.339-1.229,0.653
		c-0.299,0.314-0.502,0.726-0.605,1.233s-0.155,1.149-0.155,1.923v7.292c0,0.798,0.052,1.457,0.155,1.977
		c0.104,0.521,0.307,0.932,0.605,1.234c0.3,0.303,0.709,0.508,1.229,0.616s1.194,0.163,2.024,0.163h8.513
		c0.763,0,1.4-0.055,1.92-0.163s0.93-0.313,1.23-0.616c0.298-0.303,0.514-0.713,0.641-1.234c0.125-0.52,0.189-1.179,0.189-1.977
		V65.397z"/>
	<path fill="#F3F4F4" d="M214.648,81.941c-0.557,0-1.069-0.092-1.541-0.273c-0.475-0.18-0.918-0.477-1.332-0.889l-17.198-16.979
		v17.596h-4.88V58.395c0-0.774,0.259-1.348,0.778-1.723s1.194-0.563,2.023-0.563c0.602,0,1.098,0.085,1.489,0.254
		c0.391,0.169,0.714,0.387,0.97,0.653l17.337,17.523V56.653h4.982v23.002c0,0.822-0.243,1.409-0.726,1.759
		C216.066,81.766,215.433,81.941,214.648,81.941z"/>
	<path fill="#F3F4F4" d="M220.599,81.396v-4.68h17.927c0.944,0,1.625-0.139,2.041-0.418c0.416-0.277,0.623-0.84,0.623-1.687V73.27
		c0-0.773-0.207-1.324-0.623-1.65s-1.086-0.49-2.008-0.49h-11.246c-1.314,0-2.405-0.127-3.27-0.38
		c-0.866-0.254-1.552-0.641-2.061-1.161c-0.507-0.52-0.857-1.173-1.054-1.959c-0.196-0.786-0.296-1.711-0.296-2.775v-1.234
		c0-1.257,0.128-2.333,0.382-3.229c0.252-0.895,0.645-1.614,1.177-2.158c0.53-0.544,1.222-0.943,2.075-1.197
		c0.854-0.254,1.869-0.381,3.046-0.381h7.336v4.68h-6.852c-0.808,0-1.4,0.164-1.782,0.49c-0.379,0.327-0.571,0.986-0.571,1.978
		v0.798c0,0.774,0.173,1.324,0.52,1.651c0.345,0.327,0.946,0.49,1.8,0.49h11.039c1.314,0,2.429,0.115,3.338,0.345
		c0.912,0.23,1.655,0.599,2.233,1.106c0.577,0.508,0.991,1.161,1.245,1.959c0.255,0.798,0.382,1.754,0.382,2.866v1.959
		c0,1.161-0.127,2.146-0.382,2.957c-0.254,0.811-0.668,1.469-1.245,1.978c-0.578,0.508-1.321,0.883-2.233,1.124
		c-0.909,0.242-2.023,0.363-3.338,0.363H220.599z"/>
</g>
</svg>
