<?xml version="1.0" encoding="utf-8"?>
<!-- Generator: Adobe Illustrator 16.0.0, SVG Export Plug-In . SVG Version: 6.00 Build 0)  -->
<!DOCTYPE svg PUBLIC "-//W3C//DTD SVG 1.1//EN" "http://www.w3.org/Graphics/SVG/1.1/DTD/svg11.dtd">
<svg version="1.1" id="Layer_1" xmlns="http://www.w3.org/2000/svg" xmlns:xlink="http://www.w3.org/1999/xlink" x="0px" y="0px"
	 width="252px" height="144px" viewBox="0 0 252 144" enable-background="new 0 0 252 144" xml:space="preserve">
<g>
	<path fill="#95A2C1" d="M54.584,46.666H44.442V15.911L32.336,46.666H23.96L11.854,16.303v30.363H2.039V0.271h13.48l12.76,31.344
		L40.385,0.271h14.2V46.666z"/>
	<path fill="#95A2C1" d="M95.743,46.666l-3.337-9.423h-17.93l-3.337,9.423H60.276L77.748,0.271h11.975l17.275,46.395H95.743z
		 M83.572,11.788L77.879,27.82h11.255L83.572,11.788z"/>
	<path fill="#95A2C1" d="M143.578,10.152h-14.33v36.514h-10.34V10.152h-14.265V0.271h38.935V10.152z"/>
	<path fill="#95A2C1" d="M172.174,46.666l-8.311-17.275h-3.664v17.275H149.86V0.271h18.388c4.492,0,8.124,1.374,10.895,4.122
		c2.771,2.749,4.155,6.217,4.155,10.405c0,3.141-0.808,5.856-2.421,8.147c-1.614,2.29-3.86,3.938-6.74,4.94l9.423,18.78H172.174z
		 M160.199,20.491h6.085c2.095,0,3.708-0.512,4.843-1.538c1.134-1.024,1.701-2.389,1.701-4.09c0-1.744-0.567-3.119-1.701-4.123
		c-1.135-1.003-2.748-1.505-4.843-1.505h-6.085V20.491z"/>
	<path fill="#95A2C1" d="M201.424,46.666h-10.47V0.271h10.47V46.666z"/>
	<path fill="#95A2C1" d="M250.5,0.271l-14.92,23.295l15.051,23.099h-12.563l-9.161-15.05l-9.096,15.05h-12.172l14.985-23.23
		L207.639,0.271h12.434l9.161,15.05l9.161-15.05H250.5z"/>
</g>
<g>
	<path fill="#F3F4F4" d="M25.305,68.806h-1.767c0-4.87-3.676-8.069-9.358-8.069s-9.454,2.865-9.454,7.114
		c0,3.629,2.77,5.586,9.835,7.019c7.448,1.527,11.745,3.532,11.745,9.262c0,5.777-4.822,9.502-12.27,9.502
		c-5.777,0-11.984-3.391-11.984-10.695H3.82c0,6.111,5.156,8.881,10.217,8.881c6.493,0,10.504-2.913,10.504-7.688
		c0-4.105-2.579-5.968-10.313-7.543C8.356,75.442,2.96,73.533,2.96,67.851c0-5.299,4.488-8.833,11.22-8.833
		C21.868,59.019,25.305,63.936,25.305,68.806z"/>
	<path fill="#F3F4F4" d="M62.5,76.302c0,9.549-7.353,17.284-16.376,17.284s-16.376-7.735-16.376-17.284
		c0-9.501,7.353-17.235,16.376-17.235C55.338,59.066,62.5,66.61,62.5,76.302z M60.685,76.302c0-8.689-6.397-15.469-14.562-15.469
		c-8.069,0-14.61,6.971-14.61,15.469c0,8.595,6.541,15.518,14.61,15.518S60.685,84.849,60.685,76.302z"/>
	<path fill="#F3F4F4" d="M69.709,91.246c1.623,0,19.05,0,19.05,0v1.767H67.943V59.878h1.767
		C69.709,59.878,69.709,89.527,69.709,91.246z"/>
	<path fill="#F3F4F4" d="M116.691,81.172c0,7.305-5.205,12.462-12.7,12.462c-7.448,0-12.7-5.157-12.7-12.462V59.878h1.767v21.294
		c0,6.351,4.44,10.647,10.934,10.647c6.541,0,10.934-4.297,10.934-10.647V59.878h1.767V81.172z"/>
	<path fill="#F3F4F4" d="M133.307,61.645v31.368h-1.767V61.645h-11.125v-1.767h24.063v1.767H133.307z"/>
	<path fill="#F3F4F4" d="M150.638,93.013h-1.767V59.878h1.767V93.013z"/>
	<path fill="#F3F4F4" d="M188.977,76.302c0,9.549-7.353,17.284-16.376,17.284s-16.376-7.735-16.376-17.284
		c0-9.501,7.353-17.235,16.376-17.235C181.815,59.066,188.977,66.61,188.977,76.302z M187.163,76.302
		c0-8.689-6.398-15.469-14.563-15.469c-8.069,0-14.61,6.971-14.61,15.469c0,8.595,6.541,15.518,14.61,15.518
		S187.163,84.849,187.163,76.302z"/>
	<path fill="#F3F4F4" d="M220.346,93.013h-2.005l-22.153-30.461v30.461h-1.767V59.878h2.005l22.153,30.461V59.878h1.767V93.013z"/>
	<path fill="#F3F4F4" d="M249.519,68.806h-1.767c0-4.87-3.676-8.069-9.357-8.069s-9.454,2.865-9.454,7.114
		c0,3.629,2.77,5.586,9.836,7.019c7.448,1.527,11.745,3.532,11.745,9.262c0,5.777-4.822,9.502-12.271,9.502
		c-5.777,0-11.984-3.391-11.984-10.695h1.767c0,6.111,5.156,8.881,10.218,8.881c6.493,0,10.504-2.913,10.504-7.688
		c0-4.105-2.578-5.968-10.313-7.543c-5.872-1.146-11.268-3.056-11.268-8.738c0-5.299,4.488-8.833,11.221-8.833
		C246.081,59.019,249.519,63.936,249.519,68.806z"/>
</g>
</svg>
