<?xml version="1.0" encoding="utf-8"?>
<!-- Generator: Adobe Illustrator 16.0.0, SVG Export Plug-In . SVG Version: 6.00 Build 0)  -->
<!DOCTYPE svg PUBLIC "-//W3C//DTD SVG 1.1//EN" "http://www.w3.org/Graphics/SVG/1.1/DTD/svg11.dtd">
<svg version="1.1" id="Layer_1" xmlns="http://www.w3.org/2000/svg" xmlns:xlink="http://www.w3.org/1999/xlink" x="0px" y="0px"
	 width="252px" height="144px" viewBox="0 0 252 144" enable-background="new 0 0 252 144" xml:space="preserve">
<g>
	<path fill="#FFFFFF" d="M4.588,1h13.623l10.8,35.929L39.811,1h13.271v47.999h-9.035V13.564L33.6,48.999H24L13.553,13.564v35.435
		H4.588V1z"/>
	<path fill="#FFFFFF" d="M75.736,1h9.6l17.576,47.999h-9.67l-3.317-9.6H70.865l-3.318,9.6h-9.388L75.736,1z M73.547,31.564h13.624
		l-5.577-16.235c-0.494-1.341-1.2-4.306-1.271-4.729c-0.07,0.353-0.776,3.317-1.2,4.729L73.547,31.564z"/>
	<path fill="#FFFFFF" d="M118.155,9.258h-13.412V1h35.929v8.258h-13.411v39.741h-9.106V9.258z"/>
	<path fill="#FFFFFF" d="M146.527,1h21.177c10.023,0,16.446,5.294,16.446,14.329c0,5.647-2.753,8.894-7.553,10.8
		c4.023,1.906,5.93,4.235,6.494,10.376l0.564,6.353c0.212,2.541,1.059,4.659,1.765,6.141h-9.247
		c-0.776-1.341-1.411-2.894-1.623-5.576l-0.564-6.988c-0.354-4.306-1.977-6.212-6.212-6.212h-12.141v18.776h-9.106V1z
		 M167.916,22.388c4.729,0,7.059-2.188,7.059-6.564c0-4.376-2.541-6.353-7.271-6.353h-12.07v12.917H167.916z"/>
	<path fill="#FFFFFF" d="M193.041,1h9.177v47.999h-9.177V1z"/>
	<path fill="#FFFFFF" d="M222.896,24.435L208.145,1h10.588l9.74,16.164L238.002,1h10.307l-14.824,23.435l15.459,24.564h-10.588
		l-10.376-17.364l-10.235,17.364h-10.306L222.896,24.435z"/>
</g>
<g>
	<path fill="#FFFFFF" d="M25.248,72.604h-1.763c0-4.859-3.668-8.051-9.337-8.051s-9.432,2.858-9.432,7.098
		c0,3.621,2.763,5.574,9.813,7.003c7.431,1.524,11.719,3.525,11.719,9.242c0,5.764-4.812,9.479-12.243,9.479
		c-5.764,0-11.957-3.382-11.957-10.671h1.763c0,6.098,5.145,8.86,10.194,8.86c6.479,0,10.48-2.905,10.48-7.669
		c0-4.097-2.572-5.955-10.29-7.527c-5.86-1.144-11.243-3.049-11.243-8.718c0-5.287,4.478-8.813,11.195-8.813
		C21.818,62.839,25.248,67.745,25.248,72.604z"/>
	<path fill="#FFFFFF" d="M62.361,80.084c0,9.527-7.336,17.244-16.34,17.244s-16.34-7.717-16.34-17.244
		c0-9.48,7.336-17.198,16.34-17.198C55.216,62.886,62.361,70.413,62.361,80.084z M60.551,80.084c0-8.671-6.383-15.436-14.529-15.436
		c-8.051,0-14.577,6.956-14.577,15.436c0,8.574,6.526,15.481,14.577,15.481S60.551,88.61,60.551,80.084z"/>
	<path fill="#FFFFFF" d="M69.558,94.994c1.62,0,19.008,0,19.008,0v1.763H67.795V63.696h1.763
		C69.558,63.696,69.558,93.279,69.558,94.994z"/>
	<path fill="#FFFFFF" d="M116.436,84.942c0,7.289-5.192,12.434-12.671,12.434c-7.432,0-12.672-5.145-12.672-12.434V63.696h1.763
		v21.246c0,6.336,4.43,10.623,10.909,10.623c6.526,0,10.909-4.287,10.909-10.623V63.696h1.763V84.942z"/>
	<path fill="#FFFFFF" d="M133.017,65.459v31.298h-1.763V65.459h-11.099v-1.763h24.009v1.763H133.017z"/>
	<path fill="#FFFFFF" d="M150.312,96.757h-1.763V63.696h1.763V96.757z"/>
	<path fill="#FFFFFF" d="M188.565,80.084c0,9.527-7.336,17.244-16.34,17.244s-16.34-7.717-16.34-17.244
		c0-9.48,7.336-17.198,16.34-17.198C181.42,62.886,188.565,70.413,188.565,80.084z M186.755,80.084
		c0-8.671-6.383-15.436-14.529-15.436c-8.051,0-14.577,6.956-14.577,15.436c0,8.574,6.526,15.481,14.577,15.481
		S186.755,88.61,186.755,80.084z"/>
	<path fill="#FFFFFF" d="M219.867,96.757h-2.001l-22.104-30.393v30.393H194V63.696h2l22.104,30.393V63.696h1.763V96.757z"/>
	<path fill="#FFFFFF" d="M248.977,72.604h-1.763c0-4.859-3.668-8.051-9.337-8.051s-9.433,2.858-9.433,7.098
		c0,3.621,2.764,5.574,9.813,7.003c7.432,1.524,11.719,3.525,11.719,9.242c0,5.764-4.811,9.479-12.242,9.479
		c-5.765,0-11.957-3.382-11.957-10.671h1.762c0,6.098,5.146,8.86,10.195,8.86c6.479,0,10.48-2.905,10.48-7.669
		c0-4.097-2.573-5.955-10.29-7.527c-5.859-1.144-11.243-3.049-11.243-8.718c0-5.287,4.479-8.813,11.195-8.813
		C245.547,62.839,248.977,67.745,248.977,72.604z"/>
</g>
</svg>
