<?xml version="1.0" encoding="utf-8"?>
<!-- Generator: Adobe Illustrator 16.0.0, SVG Export Plug-In . SVG Version: 6.00 Build 0)  -->
<!DOCTYPE svg PUBLIC "-//W3C//DTD SVG 1.1//EN" "http://www.w3.org/Graphics/SVG/1.1/DTD/svg11.dtd">
<svg version="1.1" id="Layer_1" xmlns="http://www.w3.org/2000/svg" xmlns:xlink="http://www.w3.org/1999/xlink" x="0px" y="0px"
	 width="252px" height="144px" viewBox="0 0 252 144" enable-background="new 0 0 252 144" xml:space="preserve">
<rect x="150.205" y="2" fill="#F3F4F4" width="100.4" height="19.551"/>
<g>
	<path fill="#F4F4F4" d="M28.979,21.551V8.957l-9.341,12.202c-0.431,0.542-1.057,0.813-1.88,0.813s-1.45-0.271-1.879-0.813
		L6.566,8.957v12.594H2.696V3.739c0-0.598,0.219-1.038,0.659-1.318C3.794,2.141,4.341,2,4.996,2C5.5,2,5.903,2.07,6.202,2.21
		c0.299,0.141,0.57,0.37,0.813,0.687l10.799,14.334L28.698,2.897c0.243-0.317,0.5-0.546,0.771-0.687C29.74,2.07,30.12,2,30.606,2
		c0.653,0,1.2,0.141,1.641,0.421c0.439,0.28,0.659,0.72,0.659,1.318v17.812H28.979z"/>
	<path fill="#F4F4F4" d="M55.598,17.147H42.358l-2.722,4.404h-4.908L45.836,3.879c0.337-0.542,0.738-0.991,1.206-1.346
		C47.51,2.178,48.183,2,49.063,2c0.86,0,1.524,0.178,1.991,0.533c0.468,0.355,0.87,0.804,1.207,1.346l11.052,17.671h-4.936
		L55.598,17.147z M44.35,13.865h9.256l-4.628-7.546L44.35,13.865z"/>
	<path fill="#F4F4F4" d="M67.996,21.551V6.095h-8.022V2.421H80.31v3.674h-8.022v15.456H67.996z"/>
	<path fill="#F4F4F4" d="M97.926,21.551l-11.193-6.956v6.956h-4.235V2.421h14.979c1.346,0,2.497,0.084,3.451,0.252
		c0.953,0.168,1.734,0.467,2.341,0.897c0.608,0.43,1.052,1.02,1.333,1.768c0.281,0.748,0.42,1.692,0.42,2.833v1.318
		c0,1.104-0.149,2.015-0.449,2.735c-0.299,0.72-0.762,1.291-1.389,1.711c-0.626,0.421-1.417,0.716-2.37,0.884
		c-0.953,0.168-2.085,0.252-3.394,0.252h-3.366l11.221,6.479H97.926z M100.758,8.396c0-0.505-0.056-0.916-0.169-1.234
		c-0.112-0.317-0.299-0.561-0.561-0.729c-0.261-0.168-0.626-0.28-1.093-0.337c-0.468-0.056-1.048-0.084-1.739-0.084H86.733v5.835
		h10.463c0.691,0,1.266-0.029,1.724-0.084c0.458-0.056,0.822-0.168,1.095-0.336c0.27-0.169,0.462-0.412,0.574-0.729
		c0.113-0.318,0.169-0.739,0.169-1.263V8.396z"/>
	<path fill="#F4F4F4" d="M108.022,21.551V2.421h4.265v19.13H108.022z"/>
	<path fill="#F4F4F4" d="M135.904,21.551l-7.882-7.321l-7.854,7.321h-5.947l10.996-9.902l-10.378-9.228h6.142l7.293,6.788
		l7.687-6.788h5.806l-10.406,9.2l10.743,9.93H135.904z"/>
</g>
<g>
	<path fill="#3E4357" d="M156.891,16.278v-1.703h6.523c0.344,0,0.592-0.051,0.742-0.152c0.152-0.102,0.227-0.306,0.227-0.615V13.32
		c0-0.281-0.074-0.481-0.227-0.601c-0.15-0.119-0.394-0.178-0.729-0.178h-4.095c-0.479,0-0.874-0.046-1.188-0.139
		c-0.315-0.092-0.564-0.233-0.75-0.423c-0.185-0.189-0.313-0.426-0.384-0.712c-0.071-0.286-0.107-0.623-0.107-1.01V9.807
		c0-0.457,0.047-0.849,0.14-1.175c0.091-0.325,0.234-0.588,0.426-0.786c0.193-0.198,0.446-0.343,0.756-0.436
		c0.312-0.093,0.681-0.139,1.108-0.139h2.671v1.703h-2.494c-0.293,0-0.51,0.06-0.648,0.178c-0.139,0.118-0.206,0.358-0.206,0.72
		v0.291c0,0.282,0.062,0.482,0.187,0.601c0.127,0.119,0.346,0.177,0.657,0.177h4.017c0.478,0,0.884,0.042,1.215,0.126
		c0.332,0.084,0.604,0.218,0.813,0.402c0.209,0.186,0.36,0.423,0.452,0.713c0.093,0.291,0.139,0.639,0.139,1.043v0.714
		c0,0.421-0.046,0.781-0.139,1.076c-0.092,0.294-0.243,0.534-0.452,0.719c-0.21,0.185-0.481,0.321-0.813,0.41
		c-0.331,0.087-0.737,0.132-1.215,0.132H156.891z"/>
	<path fill="#3E4357" d="M170.542,16.278c-0.63,0-1.152-0.055-1.573-0.165c-0.421-0.111-0.757-0.287-1.008-0.528
		c-0.252-0.243-0.431-0.56-0.537-0.952c-0.103-0.391-0.155-0.873-0.155-1.445v-2.826c0-0.563,0.053-1.043,0.155-1.44
		c0.106-0.396,0.285-0.715,0.537-0.957c0.251-0.241,0.587-0.417,1.008-0.528c0.421-0.11,0.943-0.165,1.573-0.165h3.263
		c0.638,0,1.167,0.055,1.587,0.165c0.42,0.111,0.756,0.287,1.008,0.528c0.251,0.242,0.43,0.561,0.536,0.957
		c0.104,0.396,0.156,0.877,0.156,1.44v2.826c0,0.572-0.052,1.054-0.156,1.445c-0.106,0.392-0.285,0.709-0.536,0.952
		c-0.252,0.241-0.588,0.417-1.008,0.528c-0.42,0.109-0.949,0.165-1.587,0.165H170.542z M175.178,10.455
		c0-0.281-0.024-0.515-0.07-0.7c-0.045-0.185-0.124-0.335-0.232-0.449c-0.109-0.115-0.257-0.193-0.446-0.238
		c-0.189-0.044-0.422-0.066-0.699-0.066h-3.099c-0.303,0-0.55,0.022-0.738,0.066c-0.188,0.044-0.338,0.123-0.446,0.238
		c-0.109,0.114-0.182,0.265-0.22,0.449c-0.038,0.185-0.058,0.418-0.058,0.7v2.654c0,0.29,0.02,0.531,0.058,0.719
		c0.038,0.189,0.11,0.339,0.22,0.449c0.108,0.111,0.258,0.185,0.446,0.225c0.188,0.04,0.436,0.06,0.738,0.06h3.099
		c0.277,0,0.51-0.02,0.699-0.06c0.189-0.04,0.337-0.114,0.446-0.225c0.108-0.109,0.188-0.26,0.232-0.449
		c0.046-0.188,0.07-0.43,0.07-0.719V10.455z"/>
	<path fill="#3E4357" d="M181.752,16.278c-0.63,0-1.155-0.055-1.574-0.165c-0.42-0.111-0.756-0.287-1.007-0.528
		c-0.253-0.243-0.433-0.56-0.537-0.952c-0.104-0.391-0.158-0.873-0.158-1.445V7.272h1.905v5.836c0,0.263,0.021,0.486,0.067,0.667
		c0.047,0.181,0.128,0.331,0.245,0.448c0.117,0.12,0.275,0.205,0.473,0.259c0.197,0.052,0.447,0.079,0.749,0.079h5.102v1.716
		H181.752z"/>
	<path fill="#3E4357" d="M191.249,16.278c-0.631,0-1.155-0.055-1.575-0.165c-0.421-0.111-0.755-0.287-1.007-0.528
		c-0.253-0.243-0.432-0.56-0.535-0.952c-0.107-0.391-0.158-0.873-0.158-1.445V7.272h1.928v5.849c0,0.283,0.025,0.513,0.081,0.694
		c0.055,0.18,0.14,0.328,0.257,0.442c0.119,0.115,0.276,0.193,0.475,0.238c0.195,0.044,0.438,0.066,0.724,0.066h2.883
		c0.284,0,0.527-0.022,0.725-0.066c0.197-0.045,0.354-0.123,0.474-0.238c0.117-0.114,0.203-0.264,0.259-0.449
		c0.054-0.185,0.08-0.418,0.08-0.699V7.272h1.902v5.916c0,0.572-0.054,1.054-0.157,1.445c-0.104,0.392-0.283,0.709-0.535,0.952
		c-0.253,0.241-0.589,0.417-1.008,0.528c-0.419,0.109-0.95,0.165-1.587,0.165H191.249z"/>
	<path fill="#3E4357" d="M202.294,16.278V9.001h-3.602V7.272h9.132v1.729h-3.603v7.276H202.294z"/>
	<path fill="#3E4357" d="M208.831,16.278V7.272h1.914v9.005H208.831z"/>
	<path fill="#3E4357" d="M215.468,16.278c-0.629,0-1.155-0.055-1.574-0.165c-0.42-0.111-0.754-0.287-1.009-0.528
		c-0.251-0.243-0.431-0.56-0.535-0.952c-0.103-0.391-0.156-0.873-0.156-1.445v-2.826c0-0.563,0.054-1.043,0.156-1.44
		c0.104-0.396,0.284-0.715,0.535-0.957c0.255-0.241,0.589-0.417,1.009-0.528c0.419-0.11,0.945-0.165,1.574-0.165h3.261
		c0.64,0,1.167,0.055,1.588,0.165c0.42,0.111,0.755,0.287,1.01,0.528c0.25,0.242,0.428,0.561,0.533,0.957
		c0.104,0.396,0.157,0.877,0.157,1.44v2.826c0,0.572-0.053,1.054-0.157,1.445c-0.105,0.392-0.283,0.709-0.533,0.952
		c-0.255,0.241-0.59,0.417-1.01,0.528c-0.421,0.109-0.948,0.165-1.588,0.165H215.468z M220.102,10.455
		c0-0.281-0.023-0.515-0.068-0.7c-0.046-0.185-0.124-0.335-0.233-0.449c-0.108-0.115-0.259-0.193-0.447-0.238
		c-0.188-0.044-0.421-0.066-0.699-0.066h-3.098c-0.303,0-0.549,0.022-0.737,0.066c-0.188,0.044-0.338,0.123-0.446,0.238
		c-0.109,0.114-0.184,0.265-0.221,0.449c-0.039,0.185-0.057,0.418-0.057,0.7v2.654c0,0.29,0.018,0.531,0.057,0.719
		c0.037,0.189,0.111,0.339,0.221,0.449c0.108,0.111,0.258,0.185,0.446,0.225c0.188,0.04,0.435,0.06,0.737,0.06h3.098
		c0.278,0,0.511-0.02,0.699-0.06c0.188-0.04,0.339-0.114,0.447-0.225c0.109-0.109,0.188-0.26,0.233-0.449
		c0.045-0.188,0.068-0.43,0.068-0.719V10.455z"/>
	<path fill="#3E4357" d="M232.509,16.476c-0.203,0-0.391-0.033-0.561-0.1c-0.174-0.064-0.333-0.173-0.485-0.322l-6.26-6.18v6.404
		h-1.775V7.906c0-0.281,0.095-0.491,0.284-0.626c0.188-0.138,0.433-0.206,0.735-0.206c0.219,0,0.4,0.031,0.543,0.092
		c0.142,0.062,0.259,0.141,0.352,0.238l6.31,6.378v-6.51h1.814v8.372c0,0.299-0.089,0.513-0.264,0.64
		C233.024,16.412,232.792,16.476,232.509,16.476z"/>
	<path fill="#3E4357" d="M234.674,16.278v-1.703h6.525c0.343,0,0.591-0.051,0.741-0.152c0.152-0.102,0.229-0.306,0.229-0.615V13.32
		c0-0.281-0.077-0.481-0.229-0.601c-0.15-0.119-0.394-0.178-0.73-0.178h-4.091c-0.479,0-0.878-0.046-1.191-0.139
		c-0.315-0.092-0.565-0.233-0.751-0.423c-0.185-0.189-0.312-0.426-0.383-0.712c-0.071-0.286-0.107-0.623-0.107-1.01V9.807
		c0-0.457,0.047-0.849,0.139-1.175c0.092-0.325,0.233-0.588,0.429-0.786c0.193-0.198,0.445-0.343,0.755-0.436
		c0.311-0.093,0.68-0.139,1.11-0.139h2.668v1.703h-2.493c-0.294,0-0.511,0.06-0.649,0.178c-0.137,0.118-0.208,0.358-0.208,0.72
		v0.291c0,0.282,0.063,0.482,0.188,0.601c0.127,0.119,0.346,0.177,0.656,0.177h4.019c0.479,0,0.885,0.042,1.215,0.126
		c0.331,0.084,0.603,0.218,0.813,0.402c0.209,0.186,0.359,0.423,0.451,0.713c0.094,0.291,0.141,0.639,0.141,1.043v0.714
		c0,0.421-0.047,0.781-0.141,1.076c-0.092,0.294-0.242,0.534-0.451,0.719c-0.211,0.185-0.482,0.321-0.813,0.41
		c-0.33,0.087-0.736,0.132-1.215,0.132H234.674z"/>
</g>
</svg>
