<?xml version="1.0" encoding="UTF-8"?>
<!DOCTYPE svg PUBLIC "-//W3C//DTD SVG 1.1//EN" "http://www.w3.org/Graphics/SVG/1.1/DTD/svg11.dtd">
<!-- Creator: CorelDRAW 2018 (64-Bit) -->
<svg xmlns="http://www.w3.org/2000/svg" xml:space="preserve" width="11.4567in" height="5.90551in" version="1.1" style="shape-rendering:geometricPrecision; text-rendering:geometricPrecision; image-rendering:optimizeQuality; fill-rule:evenodd; clip-rule:evenodd"
viewBox="0 0 11456.69 5905.51"
 xmlns:xlink="http://www.w3.org/1999/xlink">
 <defs>
  <style type="text/css">
   <![CDATA[
    .fil0 {fill:#FEFEFE;fill-rule:nonzero}
   ]]>
  </style>
 </defs>
 <g id="Layer_x0020_1">
  <metadata id="CorelCorpID_0Corel-Layer"/>
  <g id="_567073544208">
   <path class="fil0" d="M2514.85 2929.01l-695.11 -1589.15 -150 1511.61 -185.09 0 269.09 -2063.17 758.34 1761.77 786.96 -1761.77 254.31 2063.17 -185.08 0 -147.7 -1511.61 -705.72 1589.15zm1647.3 -902.81l689.57 0 -337.87 -860.81 -351.71 860.81zm-506.33 825.27l870.04 -2057.63 833.11 2057.63 -196.16 0 -252.94 -670.19 -808.65 0 -262.17 670.19 -183.24 0zm2125.48 0l0 -1811.16 -545.57 0 0 -168.93 1271.13 0 0 168.93 -545.56 0 0 1811.16 -180.01 0zm1204.67 -1822.24l0 731.11 181.39 0c167.54,0 284.32,-26.77 350.78,-80.31 66,-53.54 99.23,-144.93 99.23,-273.71 0,-136.16 -34.15,-233.09 -102.93,-290.78 -68.31,-57.69 -184.16,-86.31 -347.09,-86.31l-181.39 0zm1021.43 1822.24l-218.78 0 -694.64 -944.35 -108.01 0 0 944.35 -180.01 0 0 -1980.09 363.71 0c214.63,0 374.78,44.77 481.41,133.85 106.62,89.07 160.16,224.31 160.16,405.71 0,154.16 -45.69,275.09 -137.09,363.71 -91.39,88.15 -216.93,132.47 -377.09,132.47l710.34 944.35zm260.32 0l0 -1980.09 180.01 0 0 1980.09 -180.01 0zm590.33 0l-196.62 0 603.72 -1041.28 -546.03 -938.81 202.63 0 446.33 785.57 450.02 -785.57 194.78 0 -546.02 933.27 601.41 1046.82 -199.86 0 -503.1 -877.89 -507.25 877.89z"/>
   <path class="fil0" d="M1484.63 4268.7l104.81 -10.34c8.31,103.45 39.16,181.71 92.16,234.78 53,53.07 122.21,79.61 208.44,79.61 63.68,0 117.47,-11.24 161.77,-32.83 43.91,-21.59 77.92,-53.98 102.05,-96.7 23.73,-42.74 35.6,-88.16 35.6,-136.29 0,-127.28 -96.9,-210.94 -291.11,-251.42 -131.71,-27.43 -226.24,-68.81 -283.2,-124.59 -56.95,-55.77 -85.43,-132.68 -85.43,-230.74 0,-103.9 33.22,-186.2 100.07,-246.92 66.45,-60.72 151.09,-90.86 253.93,-90.86 115.1,0 204.49,29.24 268.56,87.71 64.08,58.92 98.88,147.98 105.22,268.06l-103.23 4.95c-12.26,-174.52 -99.67,-262.22 -261.84,-262.22 -74.75,0 -136.85,20.69 -186.3,61.62 -49.04,40.48 -73.96,96.25 -73.96,167.32 0,120.54 88.99,201.05 266.59,241.53 131.31,30.59 229.4,72.87 294.27,127.74 64.87,55.32 97.3,134.93 97.3,240.19 0,55.77 -8.7,105.7 -26.11,150.22 -17.4,44.98 -43.91,84.11 -79.5,117.84 -35.6,33.74 -77.92,59.37 -126.17,77.36 -48.26,18 -101.65,26.54 -160.98,26.54 -252.74,0 -390.78,-134.04 -412.93,-402.56zm2004.52 -251.42c0,197.45 -45.88,355.77 -137.64,475.41 -92.16,119.19 -219.13,178.56 -380.89,178.56 -106.4,0 -197.76,-26.09 -273.7,-78.71 -75.94,-53.07 -135.27,-128.19 -178.78,-226.24 -43.12,-98.06 -64.87,-214.09 -64.87,-349.03 0,-197.45 46.27,-355.78 138.43,-475.41 92.56,-119.64 218.72,-179.46 378.91,-179.46 108.37,0 200.54,26.54 276.87,80.06 76.73,53.97 136.06,129.54 178.38,227.14 42.32,97.6 63.28,213.64 63.28,347.68zm-109.95 0c0,-165.96 -36.39,-300.45 -108.77,-402.55 -72.78,-102.55 -172.85,-153.83 -299.81,-153.83 -127.75,0 -227.83,51.72 -299.41,154.28 -71.98,103 -107.97,237.03 -107.97,402.1 0,163.72 36.78,297.3 109.56,400.3 73.17,103.44 172.45,155.17 297.83,155.17 83.06,0 154.26,-22.49 213.98,-67.91 59.33,-44.98 106.79,-109.3 141.99,-193.41 34.8,-84.11 52.61,-182.16 52.61,-294.15zm993.95 632.39l-665.67 0 0 -1265.67 104.81 0 0 1162.22 560.85 0 0 103.45zm196.97 -1265.67l107.19 0 0 810.49c0,251.88 106.79,378.26 320.37,378.26 212,0 317.61,-125.49 317.61,-376.46l0 -812.3 107.19 0 0 800.6c0,324.74 -140.81,486.66 -422.42,486.66 -286.36,0 -429.94,-161.93 -429.94,-486.21l0 -801.05zm1813.09 110.64l-341.34 0 0 1155.03 -106.39 0 0 -1155.03 -340.15 0 0 -110.64 787.89 0 0 110.64zm313.65 1155.03l-105.21 0 0 -1265.67 105.21 0 0 1265.67zm1286.64 -632.39c0,197.45 -45.87,355.77 -137.64,475.41 -92.16,119.19 -219.13,178.56 -380.89,178.56 -106.39,0 -197.76,-26.09 -273.7,-78.71 -75.94,-53.07 -135.27,-128.19 -178.77,-226.24 -43.12,-98.06 -64.87,-214.09 -64.87,-349.03 0,-197.45 46.28,-355.78 138.43,-475.41 92.56,-119.64 218.73,-179.46 378.91,-179.46 108.37,0 200.54,26.54 276.87,80.06 76.73,53.97 136.06,129.54 178.38,227.14 42.31,97.6 63.28,213.64 63.28,347.68zm-109.94 0c0,-165.96 -36.39,-300.45 -108.78,-402.55 -72.78,-102.55 -172.85,-153.83 -299.81,-153.83 -127.75,0 -227.82,51.72 -299.41,154.28 -71.99,103 -107.98,237.03 -107.98,402.1 0,163.72 36.78,297.3 109.56,400.3 73.17,103.44 172.46,155.17 297.83,155.17 83.06,0 154.26,-22.49 213.99,-67.91 59.33,-44.98 106.78,-109.3 141.99,-193.41 34.8,-84.11 52.61,-182.16 52.61,-294.15zm1177.07 632.39l-111.14 0 -641.94 -1078.57 8.7 1078.57 -105.61 0 0 -1265.67 105.61 0 649.05 1091.16 -8.31 -1091.16 103.63 0 0 1265.67zm210.02 -380.96l104.81 -10.34c8.31,103.45 39.16,181.71 92.16,234.78 53,53.07 122.22,79.61 208.44,79.61 63.67,0 117.46,-11.24 161.77,-32.83 43.9,-21.59 77.91,-53.98 102.05,-96.7 23.72,-42.74 35.6,-88.16 35.6,-136.29 0,-127.28 -96.91,-210.94 -291.11,-251.42 -131.7,-27.43 -226.24,-68.81 -283.19,-124.59 -56.96,-55.77 -85.44,-132.68 -85.44,-230.74 0,-103.9 33.23,-186.2 100.07,-246.92 66.45,-60.72 151.1,-90.86 253.93,-90.86 115.11,0 204.5,29.24 268.57,87.71 64.07,58.92 98.88,147.98 105.22,268.06l-103.24 4.95c-12.26,-174.52 -99.67,-262.22 -261.84,-262.22 -74.75,0 -136.85,20.69 -186.29,61.62 -49.04,40.48 -73.96,96.25 -73.96,167.32 0,120.54 89,201.05 266.59,241.53 131.31,30.59 229.4,72.87 294.26,127.74 64.87,55.32 97.3,134.93 97.3,240.19 0,55.77 -8.7,105.7 -26.1,150.22 -17.4,44.98 -43.91,84.11 -79.5,117.84 -35.59,33.74 -77.92,59.37 -126.18,77.36 -48.25,18 -101.64,26.54 -160.97,26.54 -252.74,0 -390.78,-134.04 -412.93,-402.56z"/>
  </g>
 </g>
</svg>
