<?xml version="1.0" encoding="utf-8"?>
<!-- Generator: Adobe Illustrator 16.0.0, SVG Export Plug-In . SVG Version: 6.00 Build 0)  -->
<!DOCTYPE svg PUBLIC "-//W3C//DTD SVG 1.1//EN" "http://www.w3.org/Graphics/SVG/1.1/DTD/svg11.dtd">
<svg version="1.1" id="Layer_1" xmlns="http://www.w3.org/2000/svg" xmlns:xlink="http://www.w3.org/1999/xlink" x="0px" y="0px"
	 width="252px" height="144px" viewBox="0 0 252 144" enable-background="new 0 0 252 144" xml:space="preserve">
<g>
	<path fill="#FFFFFF" d="M2.154,0h13.907l11.026,36.685L38.114,0h13.55v49.008h-9.225V12.831L31.773,49.008H21.97L11.305,12.831
		v36.177H2.154V0z"/>
	<path fill="#FFFFFF" d="M74.831,0h9.8l17.945,49.008h-9.873l-3.386-9.803H69.857l-3.389,9.803h-9.583L74.831,0z M72.595,31.207
		h13.911l-5.695-16.575c-0.504-1.37-1.224-4.398-1.297-4.83c-0.07,0.361-0.792,3.386-1.224,4.83L72.595,31.207z"/>
	<path fill="#FFFFFF" d="M118.167,8.433h-13.693V0h36.682v8.433h-13.69v40.575h-9.298V8.433z"/>
	<path fill="#FFFFFF" d="M147.162,0h21.618c10.234,0,16.795,5.408,16.795,14.632c0,5.766-2.816,9.081-7.711,11.026
		c4.107,1.945,6.05,4.322,6.631,10.592l0.575,6.487c0.211,2.594,1.08,4.756,1.802,6.27h-9.442c-0.792-1.37-1.443-2.955-1.654-5.692
		l-0.581-7.136c-0.358-4.395-2.013-6.343-6.344-6.343h-12.394v19.171h-9.295V0z M168.997,21.838c4.83,0,7.206-2.233,7.206-6.702
		c0-4.468-2.593-6.487-7.423-6.487h-12.323v13.188H168.997z"/>
	<path fill="#FFFFFF" d="M194.683,0h9.365v49.008h-9.365V0z"/>
	<path fill="#FFFFFF" d="M225.174,23.927L210.116,0h10.809l9.94,16.504L240.595,0h10.528l-15.141,23.927l15.785,25.081h-10.809
		L230.361,31.28l-10.445,17.728h-10.528L225.174,23.927z"/>
</g>
<g>
	<path fill="#FFFFFF" d="M12.124,60.92c1.039,0.194,2.125,0.569,3.26,1.121l-0.193,0.875l-0.34,0.047
		c-0.942-0.487-1.907-0.833-2.896-1.044c-0.992-0.211-1.86-0.317-2.605-0.317c-1.235,0-2.33,0.206-3.286,0.61
		c-0.959,0.405-1.761,0.939-2.412,1.602c-0.648,0.669-1.144,1.408-1.484,2.218c-0.34,0.81-0.511,1.608-0.511,2.382
		c0,1.268,0.367,2.324,1.094,3.169c0.731,0.845,1.649,1.59,2.752,2.235c1.103,0.651,2.289,1.262,3.553,1.831
		c1.268,0.563,2.453,1.209,3.556,1.919c1.103,0.716,2.019,1.578,2.749,2.582c0.73,1.01,1.098,2.254,1.098,3.75
		c0,1.067-0.22,2.101-0.657,3.093c-0.44,0.985-1.065,1.848-1.875,2.575c-0.813,0.734-1.77,1.321-2.873,1.755
		C9.95,91.764,8.732,91.98,7.4,91.98c-1.232,0-2.515-0.193-3.847-0.581C2.224,91.007,1.039,90.438,0,89.692l0.047-0.922l0.244-0.1
		c1.039,0.81,2.192,1.402,3.459,1.778c1.264,0.369,2.464,0.558,3.603,0.558c1.264,0,2.391-0.2,3.383-0.604
		c0.989-0.411,1.843-0.951,2.556-1.632c0.713-0.687,1.259-1.449,1.631-2.288c0.373-0.846,0.561-1.708,0.561-2.582
		c0-1.332-0.367-2.441-1.098-3.333c-0.73-0.898-1.646-1.673-2.749-2.342c-1.104-0.663-2.289-1.279-3.556-1.849
		c-1.265-0.569-2.45-1.209-3.553-1.925c-1.103-0.71-2.021-1.555-2.75-2.529c-0.73-0.974-1.097-2.189-1.097-3.65
		c0-1.039,0.211-2.025,0.634-2.946c0.422-0.927,1.021-1.737,1.802-2.436c0.777-0.698,1.705-1.25,2.775-1.655s2.256-0.61,3.553-0.61
		C10.19,60.627,11.085,60.727,12.124,60.92z"/>
	<path fill="#FFFFFF" d="M44.055,64.447c2.174,2.617,3.263,6.39,3.263,11.319c0,5.258-1.135,9.284-3.409,12.077
		c-2.271,2.793-5.534,4.184-9.785,4.184c-4.09,0-7.224-1.344-9.398-4.037s-3.263-6.572-3.263-11.637
		c0-5.128,1.129-9.048,3.386-11.76c2.256-2.711,5.51-4.066,9.762-4.066C38.733,60.527,41.881,61.836,44.055,64.447z M25.58,65.328
		c-2.095,2.546-3.143,6.22-3.143,11.026c0,4.735,1.006,8.374,3.019,10.903c2.013,2.535,4.903,3.803,8.667,3.803
		c3.926,0,6.945-1.314,9.055-3.949c2.109-2.629,3.166-6.408,3.166-11.344c0-4.606-1.006-8.139-3.019-10.586
		c-2.013-2.453-4.917-3.679-8.714-3.679C30.682,61.501,27.671,62.775,25.58,65.328z"/>
	<path fill="#FFFFFF" d="M54.953,91.787V60.774h0.974v30.039h12.708l0.144,0.194l-0.193,0.78H54.953z"/>
	<path fill="#FFFFFF" d="M91.948,89.012c-1.883,1.978-4.563,2.969-8.033,2.969c-3.506,0-6.167-0.974-7.987-2.922
		c-1.816-1.948-2.726-4.754-2.726-8.421V60.774h0.974v19.864c-0.032,3.345,0.786,5.909,2.458,7.693
		c1.672,1.783,4.099,2.676,7.28,2.676c3.148,0,5.557-0.893,7.229-2.676c1.672-1.784,2.506-4.349,2.506-7.693V60.774h0.974v19.864
		C94.721,84.24,93.829,87.034,91.948,89.012z"/>
	<path fill="#FFFFFF" d="M110.879,61.748v30.039h-0.974V61.748h-9.591l-0.144-0.194l0.193-0.78h20.061l0.144,0.193l-0.193,0.781
		H110.879z"/>
	<path fill="#FFFFFF" d="M127.277,60.774h0.975v31.013h-0.975V60.774z"/>
	<path fill="#FFFFFF" d="M158.534,64.447c2.172,2.617,3.263,6.39,3.263,11.319c0,5.258-1.138,9.284-3.415,12.077
		c-2.265,2.793-5.527,4.184-9.782,4.184c-4.09,0-7.224-1.344-9.397-4.037c-2.175-2.693-3.263-6.572-3.263-11.637
		c0-5.128,1.129-9.048,3.386-11.76c2.256-2.711,5.513-4.066,9.762-4.066C153.206,60.527,156.357,61.836,158.534,64.447z
		 M140.056,65.328c-2.095,2.546-3.143,6.22-3.143,11.026c0,4.735,1.007,8.374,3.02,10.903c2.013,2.535,4.905,3.803,8.667,3.803
		c3.926,0,6.942-1.314,9.055-3.949c2.112-2.629,3.169-6.408,3.169-11.344c0-4.606-1.01-8.139-3.022-10.586
		c-2.013-2.453-4.917-3.679-8.714-3.679C145.155,61.501,142.147,62.775,140.056,65.328z"/>
	<path fill="#FFFFFF" d="M190.363,91.787l-19.67-28.971H170.5l-0.053,19.283v9.688h-0.975v-9.248l0.053-21.765h0.922l19.67,28.971
		h0.199l0.094-28.924l0.975-0.094l-0.047,22.493l-0.047,8.567H190.363z"/>
	<path fill="#FFFFFF" d="M211.39,60.92c1.038,0.194,2.124,0.569,3.257,1.121l-0.188,0.875l-0.34,0.047
		c-0.945-0.487-1.913-0.833-2.899-1.044c-0.991-0.211-1.86-0.317-2.605-0.317c-1.232,0-2.329,0.206-3.286,0.61
		c-0.962,0.405-1.761,0.939-2.411,1.602c-0.652,0.669-1.145,1.408-1.485,2.218c-0.34,0.81-0.511,1.608-0.511,2.382
		c0,1.268,0.37,2.324,1.098,3.169c0.728,0.845,1.644,1.59,2.746,2.235c1.104,0.651,2.289,1.262,3.557,1.831
		c1.268,0.563,2.453,1.209,3.556,1.919c1.104,0.716,2.019,1.578,2.746,2.582c0.734,1.01,1.104,2.254,1.104,3.75
		c0,1.067-0.223,2.101-0.657,3.093c-0.446,0.985-1.067,1.848-1.878,2.575c-0.81,0.734-1.771,1.321-2.875,1.755
		c-1.104,0.44-2.318,0.657-3.65,0.657c-1.232,0-2.512-0.193-3.85-0.581c-1.326-0.393-2.511-0.962-3.55-1.707l0.047-0.922l0.24-0.1
		c1.045,0.81,2.195,1.402,3.463,1.778c1.268,0.369,2.464,0.558,3.603,0.558c1.268,0,2.395-0.2,3.38-0.604
		c0.992-0.411,1.843-0.951,2.559-1.632c0.716-0.687,1.256-1.449,1.632-2.288c0.375-0.846,0.563-1.708,0.563-2.582
		c0-1.332-0.37-2.441-1.104-3.333c-0.728-0.898-1.644-1.673-2.746-2.342c-1.104-0.663-2.289-1.279-3.557-1.849
		s-2.452-1.209-3.556-1.925c-1.104-0.71-2.019-1.555-2.746-2.529s-1.098-2.189-1.098-3.65c0-1.039,0.211-2.025,0.634-2.946
		c0.423-0.927,1.021-1.737,1.802-2.436c0.774-0.698,1.701-1.25,2.775-1.655s2.259-0.61,3.55-0.61
		C209.459,60.627,210.351,60.727,211.39,60.92z"/>
</g>
</svg>
