<?xml version="1.0" encoding="utf-8"?>
<!-- Generator: Adobe Illustrator 16.0.0, SVG Export Plug-In . SVG Version: 6.00 Build 0)  -->
<!DOCTYPE svg PUBLIC "-//W3C//DTD SVG 1.1//EN" "http://www.w3.org/Graphics/SVG/1.1/DTD/svg11.dtd">
<svg version="1.1" id="Layer_1" xmlns="http://www.w3.org/2000/svg" xmlns:xlink="http://www.w3.org/1999/xlink" x="0px" y="0px"
	 width="252px" height="144px" viewBox="0 0 252 144" enable-background="new 0 0 252 144" xml:space="preserve">
<g>
	<path fill="#F9FAFD" d="M0.871,1h5.496l4.356,14.493L15.079,1h5.354v19.362h-3.645V6.068l-4.214,14.294H8.701L4.487,6.068v14.294
		H0.871V1z"/>
	<path fill="#F9FAFD" d="M29.569,1h3.874l7.089,19.362h-3.901l-1.338-3.873h-7.688l-1.338,3.873h-3.788L29.569,1z M28.687,13.33
		h5.495L31.933,6.78c-0.2-0.542-0.485-1.737-0.513-1.908c-0.029,0.142-0.313,1.338-0.483,1.908L28.687,13.33z"/>
	<path fill="#F9FAFD" d="M46.68,4.332h-5.41V1h14.493v3.332h-5.41v16.031H46.68V4.332z"/>
	<path fill="#F9FAFD" d="M58.124,1h8.542C70.709,1,73.3,3.136,73.3,6.78c0,2.277-1.11,3.588-3.046,4.356
		c1.623,0.769,2.392,1.708,2.619,4.185l0.228,2.563c0.085,1.025,0.427,1.879,0.712,2.477h-3.73
		c-0.313-0.541-0.569-1.167-0.655-2.249L69.2,15.294c-0.143-1.737-0.797-2.505-2.506-2.505h-4.898v7.574h-3.673V1z M66.751,9.627
		c1.907,0,2.848-0.882,2.848-2.648s-1.025-2.563-2.933-2.563h-4.87v5.21H66.751z"/>
	<path fill="#F9FAFD" d="M76.885,1h3.702v19.362h-3.702V1z"/>
	<path fill="#F9FAFD" d="M88.928,10.453L82.977,1h4.271l3.93,6.52L95.021,1h4.159l-5.981,9.453l6.236,9.909h-4.271l-4.186-7.004
		l-4.128,7.004h-4.158L88.928,10.453z"/>
</g>
<g>
	<path fill="#8898BF" d="M119.603,6.624h-0.997c0-2.748-2.075-4.552-5.28-4.552c-3.206,0-5.334,1.616-5.334,4.014
		c0,2.047,1.563,3.152,5.55,3.96c4.202,0.862,6.627,1.994,6.627,5.227c0,3.26-2.721,5.361-6.924,5.361
		c-3.26,0-6.762-1.913-6.762-6.034h0.997c0,3.448,2.91,5.01,5.766,5.01c3.664,0,5.927-1.643,5.927-4.337
		c0-2.317-1.456-3.367-5.819-4.257c-3.313-0.646-6.358-1.724-6.358-4.93c0-2.99,2.532-4.984,6.331-4.984
		C117.663,1.101,119.603,3.875,119.603,6.624z"/>
	<path fill="#8898BF" d="M140.585,10.854c0,5.387-4.149,9.752-9.24,9.752s-9.239-4.365-9.239-9.752c0-5.361,4.148-9.726,9.239-9.726
		C136.545,1.128,140.585,5.384,140.585,10.854z M139.563,10.854c0-4.904-3.611-8.729-8.219-8.729c-4.552,0-8.243,3.934-8.243,8.729
		c0,4.849,3.691,8.755,8.243,8.755C135.897,19.608,139.563,15.675,139.563,10.854z"/>
	<path fill="#8898BF" d="M144.652,19.286c0.914,0,10.747,0,10.747,0v0.996h-11.745V1.586h0.998
		C144.652,1.586,144.652,18.315,144.652,19.286z"/>
	<path fill="#8898BF" d="M171.158,13.601c0,4.122-2.937,7.031-7.166,7.031c-4.204,0-7.166-2.91-7.166-7.031V1.586h0.995v12.015
		c0,3.583,2.507,6.007,6.171,6.007c3.689,0,6.168-2.424,6.168-6.007V1.586h0.998V13.601z"/>
	<path fill="#8898BF" d="M180.528,2.583v17.699h-0.995V2.583h-6.277V1.586h13.576v0.997H180.528z"/>
	<path fill="#8898BF" d="M190.307,20.282h-0.998V1.586h0.998V20.282z"/>
	<path fill="#8898BF" d="M211.938,10.854c0,5.387-4.149,9.752-9.24,9.752c-5.092,0-9.239-4.365-9.239-9.752
		c0-5.361,4.147-9.726,9.239-9.726C207.896,1.128,211.938,5.384,211.938,10.854z M210.914,10.854c0-4.904-3.609-8.729-8.217-8.729
		c-4.552,0-8.244,3.934-8.244,8.729c0,4.849,3.692,8.755,8.244,8.755C207.25,19.608,210.914,15.675,210.914,10.854z"/>
	<path fill="#8898BF" d="M229.633,20.282h-1.131l-12.5-17.187v17.187h-0.997V1.586h1.132l12.501,17.187V1.586h0.995V20.282z"/>
	<path fill="#8898BF" d="M246.091,6.624h-0.997c0-2.748-2.074-4.552-5.28-4.552s-5.334,1.616-5.334,4.014
		c0,2.047,1.563,3.152,5.55,3.96c4.201,0.862,6.628,1.994,6.628,5.227c0,3.26-2.723,5.361-6.924,5.361
		c-3.259,0-6.762-1.913-6.762-6.034h0.996c0,3.448,2.91,5.01,5.766,5.01c3.663,0,5.927-1.643,5.927-4.337
		c0-2.317-1.455-3.367-5.818-4.257c-3.314-0.646-6.357-1.724-6.357-4.93c0-2.99,2.53-4.984,6.329-4.984
		C244.15,1.101,246.091,3.875,246.091,6.624z"/>
</g>
</svg>
