<?xml version="1.0" encoding="utf-8"?>
<!-- Generator: Adobe Illustrator 16.0.0, SVG Export Plug-In . SVG Version: 6.00 Build 0)  -->
<!DOCTYPE svg PUBLIC "-//W3C//DTD SVG 1.1//EN" "http://www.w3.org/Graphics/SVG/1.1/DTD/svg11.dtd">
<svg version="1.1" id="Layer_1" xmlns="http://www.w3.org/2000/svg" xmlns:xlink="http://www.w3.org/1999/xlink" x="0px" y="0px"
	 width="252px" height="144px" viewBox="0 0 252 144" enable-background="new 0 0 252 144" xml:space="preserve">
<g>
	<path fill="#F4F4F4" d="M47.377,35.847V13.116L30.519,35.138c-0.777,0.979-1.907,1.468-3.392,1.468
		c-1.485,0-2.616-0.49-3.392-1.468L6.927,13.116v22.731H-0.06V3.699c0-1.08,0.396-1.874,1.189-2.38
		C1.922,0.813,2.91,0.56,4.092,0.56c0.911,0,1.636,0.126,2.177,0.38c0.54,0.253,1.029,0.667,1.468,1.24l19.491,25.87L46.871,2.18
		c0.438-0.573,0.903-0.987,1.393-1.24c0.489-0.253,1.172-0.38,2.05-0.38c1.181,0,2.168,0.253,2.961,0.759
		c0.792,0.506,1.19,1.3,1.19,2.38v32.147H47.377z"/>
	<path fill="#F4F4F4" d="M95.42,27.898H71.525l-4.911,7.948h-8.86L77.803,3.952c0.607-0.979,1.333-1.789,2.177-2.43
		c0.843-0.641,2.058-0.962,3.645-0.962c1.552,0,2.75,0.321,3.595,0.962c0.843,0.642,1.569,1.452,2.177,2.43l19.947,31.895h-8.91
		L95.42,27.898z M75.12,21.975h16.707L83.473,8.356L75.12,21.975z"/>
	<path fill="#F4F4F4" d="M117.797,35.847V7.952h-14.479V1.319h36.704v6.632h-14.479v27.895H117.797z"/>
	<path fill="#F4F4F4" d="M171.815,35.847l-20.2-12.555v12.555h-7.645V1.319h27.034c2.43,0,4.506,0.152,6.228,0.456
		c1.721,0.304,3.13,0.844,4.227,1.62c1.097,0.777,1.898,1.84,2.405,3.189c0.506,1.351,0.759,3.055,0.759,5.113v2.379
		c0,1.992-0.271,3.637-0.81,4.937c-0.54,1.299-1.376,2.329-2.506,3.088c-1.132,0.759-2.557,1.291-4.278,1.595
		c-1.721,0.304-3.764,0.456-6.126,0.456h-6.075l20.251,11.695H171.815z M176.928,12.103c0-0.911-0.101-1.653-0.304-2.228
		c-0.202-0.574-0.54-1.013-1.012-1.316c-0.474-0.304-1.132-0.506-1.975-0.607c-0.845-0.101-1.891-0.152-3.139-0.152h-18.884v10.53
		h18.884c1.248,0,2.286-0.051,3.113-0.152c0.826-0.102,1.484-0.304,1.975-0.607c0.488-0.304,0.835-0.742,1.037-1.316
		c0.203-0.574,0.304-1.333,0.304-2.278V12.103z"/>
	<path fill="#F4F4F4" d="M190.039,35.847V1.319h7.695v34.527H190.039z"/>
	<path fill="#F4F4F4" d="M240.362,35.847l-14.226-13.213l-14.176,13.213h-10.732l19.846-17.871L202.342,1.319h11.087l13.163,12.252
		l13.872-12.252h10.479l-18.782,16.605l19.39,17.922H240.362z"/>
</g>
<g>
	<path fill="#A2AAB7" d="M0.419,72.397v-4.68h18.846c0.994,0,1.71-0.139,2.146-0.417c0.437-0.278,0.655-0.84,0.655-1.687V64.27
		c0-0.773-0.218-1.324-0.655-1.65c-0.437-0.327-1.14-0.49-2.11-0.49H7.477c-1.383,0-2.529-0.127-3.438-0.381
		c-0.91-0.254-1.632-0.641-2.165-1.161c-0.534-0.52-0.904-1.173-1.109-1.959c-0.207-0.786-0.31-1.711-0.31-2.775V54.62
		c0-1.257,0.133-2.333,0.4-3.229c0.267-0.895,0.679-1.614,1.237-2.158c0.558-0.544,1.286-0.943,2.183-1.197
		c0.897-0.254,1.964-0.381,3.202-0.381h7.713v4.68H7.986c-0.849,0-1.474,0.164-1.874,0.49c-0.4,0.327-0.601,0.986-0.601,1.978v0.798
		c0,0.774,0.182,1.324,0.546,1.651s0.994,0.49,1.892,0.49h11.606c1.382,0,2.552,0.115,3.511,0.345
		c0.958,0.23,1.74,0.599,2.347,1.106c0.606,0.508,1.042,1.161,1.31,1.959c0.267,0.798,0.4,1.754,0.4,2.866v1.959
		c0,1.161-0.134,2.146-0.4,2.957c-0.267,0.811-0.704,1.469-1.31,1.978c-0.606,0.508-1.389,0.883-2.347,1.125
		c-0.958,0.242-2.128,0.363-3.511,0.363H0.419z"/>
	<path fill="#A2AAB7" d="M39.856,72.397c-1.819,0-3.335-0.151-4.548-0.454c-1.213-0.302-2.183-0.786-2.91-1.451
		c-0.728-0.665-1.244-1.536-1.546-2.612c-0.304-1.076-0.455-2.4-0.455-3.973v-7.764c0-1.547,0.151-2.866,0.455-3.955
		c0.303-1.088,0.818-1.965,1.546-2.63c0.728-0.665,1.697-1.148,2.91-1.451c1.213-0.302,2.729-0.454,4.548-0.454h9.423
		c1.843,0,3.371,0.151,4.584,0.454c1.213,0.303,2.183,0.786,2.911,1.451c0.728,0.666,1.243,1.542,1.546,2.63
		c0.303,1.088,0.455,2.407,0.455,3.955v7.764c0,1.573-0.152,2.897-0.455,3.973c-0.304,1.077-0.819,1.947-1.546,2.612
		c-0.728,0.666-1.698,1.149-2.911,1.451c-1.213,0.303-2.741,0.454-4.584,0.454H39.856z M53.245,56.397
		c0-0.774-0.067-1.415-0.2-1.923c-0.134-0.508-0.358-0.919-0.673-1.233c-0.315-0.314-0.746-0.532-1.292-0.653
		c-0.545-0.121-1.219-0.181-2.019-0.181h-8.95c-0.874,0-1.583,0.061-2.128,0.181c-0.546,0.122-0.977,0.339-1.292,0.653
		c-0.315,0.314-0.528,0.726-0.637,1.233c-0.109,0.508-0.164,1.149-0.164,1.923v7.292c0,0.798,0.055,1.457,0.164,1.977
		c0.109,0.521,0.321,0.932,0.637,1.233c0.315,0.303,0.746,0.508,1.292,0.617c0.545,0.109,1.255,0.164,2.128,0.164h8.95
		c0.8,0,1.474-0.055,2.019-0.164c0.546-0.108,0.976-0.314,1.292-0.617c0.315-0.302,0.54-0.713,0.673-1.233
		c0.133-0.52,0.2-1.179,0.2-1.977V56.397z"/>
	<path fill="#A2AAB7" d="M72.235,72.397c-1.819,0-3.335-0.151-4.548-0.454c-1.213-0.302-2.183-0.786-2.91-1.451
		c-0.728-0.665-1.244-1.536-1.546-2.612c-0.304-1.076-0.455-2.4-0.455-3.973V47.654h5.494V63.69c0,0.726,0.066,1.336,0.2,1.832
		c0.133,0.496,0.37,0.907,0.709,1.233c0.339,0.327,0.794,0.563,1.364,0.708s1.292,0.218,2.165,0.218h14.734v4.716H72.235z"/>
	<path fill="#A2AAB7" d="M99.667,72.397c-1.819,0-3.335-0.151-4.548-0.454c-1.213-0.302-2.183-0.786-2.91-1.451
		c-0.728-0.665-1.244-1.536-1.546-2.612c-0.304-1.076-0.455-2.4-0.455-3.973V47.654h5.566v16.072c0,0.774,0.078,1.409,0.236,1.905
		c0.157,0.496,0.406,0.901,0.746,1.215c0.339,0.314,0.794,0.532,1.364,0.653c0.57,0.122,1.267,0.182,2.092,0.182h8.331
		c0.825,0,1.522-0.06,2.092-0.182c0.569-0.121,1.024-0.338,1.364-0.653c0.339-0.314,0.588-0.726,0.746-1.233
		c0.158-0.508,0.237-1.148,0.237-1.923V47.654h5.494v16.253c0,1.573-0.152,2.897-0.455,3.973c-0.303,1.077-0.818,1.947-1.546,2.612
		c-0.728,0.666-1.698,1.149-2.911,1.451c-1.213,0.303-2.741,0.454-4.584,0.454H99.667z"/>
	<path fill="#A2AAB7" d="M131.574,72.397v-19.99h-10.406v-4.753h26.376v4.753h-10.404v19.99H131.574z"/>
	<path fill="#A2AAB7" d="M150.455,72.397V47.654h5.53v24.743H150.455z"/>
	<path fill="#A2AAB7" d="M169.628,72.397c-1.819,0-3.335-0.151-4.548-0.454c-1.213-0.302-2.183-0.786-2.91-1.451
		c-0.728-0.665-1.243-1.536-1.547-2.612c-0.303-1.076-0.454-2.4-0.454-3.973v-7.764c0-1.547,0.151-2.866,0.454-3.955
		c0.304-1.088,0.819-1.965,1.547-2.63c0.728-0.665,1.697-1.148,2.91-1.451c1.213-0.302,2.729-0.454,4.548-0.454h9.423
		c1.843,0,3.371,0.151,4.584,0.454c1.213,0.303,2.183,0.786,2.911,1.451c0.728,0.666,1.242,1.542,1.546,2.63
		c0.303,1.088,0.455,2.407,0.455,3.955v7.764c0,1.573-0.152,2.897-0.455,3.973c-0.304,1.077-0.818,1.947-1.546,2.612
		c-0.729,0.666-1.698,1.149-2.911,1.451c-1.213,0.303-2.741,0.454-4.584,0.454H169.628z M183.017,56.397
		c0-0.774-0.067-1.415-0.2-1.923c-0.134-0.508-0.358-0.919-0.673-1.233c-0.315-0.314-0.746-0.532-1.292-0.653
		c-0.546-0.121-1.219-0.181-2.02-0.181h-8.949c-0.873,0-1.583,0.061-2.129,0.181c-0.545,0.122-0.977,0.339-1.291,0.653
		c-0.315,0.314-0.527,0.726-0.637,1.233s-0.164,1.149-0.164,1.923v7.292c0,0.798,0.055,1.457,0.164,1.977
		c0.109,0.521,0.321,0.932,0.637,1.233c0.314,0.303,0.746,0.508,1.291,0.617c0.546,0.109,1.256,0.164,2.129,0.164h8.949
		c0.801,0,1.474-0.055,2.02-0.164c0.546-0.108,0.977-0.314,1.292-0.617c0.314-0.302,0.539-0.713,0.673-1.233
		c0.133-0.52,0.2-1.179,0.2-1.977V56.397z"/>
	<path fill="#A2AAB7" d="M218.853,72.941c-0.583,0-1.123-0.091-1.619-0.272c-0.498-0.181-0.965-0.477-1.401-0.889l-18.081-16.979
		v17.596h-5.13V49.396c0-0.774,0.272-1.348,0.818-1.723s1.255-0.563,2.128-0.563c0.631,0,1.152,0.085,1.564,0.254
		c0.412,0.169,0.752,0.387,1.02,0.653l18.227,17.523V47.654h5.239v23.002c0,0.822-0.255,1.409-0.764,1.759
		C220.344,72.766,219.677,72.941,218.853,72.941z"/>
	<path fill="#A2AAB7" d="M225.109,72.397v-4.68h18.846c0.994,0,1.71-0.139,2.146-0.417c0.437-0.278,0.655-0.84,0.655-1.687V64.27
		c0-0.773-0.219-1.324-0.655-1.65c-0.437-0.327-1.141-0.49-2.11-0.49h-11.824c-1.382,0-2.528-0.127-3.438-0.381
		c-0.91-0.254-1.632-0.641-2.165-1.161c-0.533-0.52-0.903-1.173-1.109-1.959c-0.206-0.786-0.31-1.711-0.31-2.775V54.62
		c0-1.257,0.133-2.333,0.4-3.229c0.267-0.895,0.679-1.614,1.237-2.158c0.558-0.544,1.285-0.943,2.183-1.197
		c0.897-0.254,1.965-0.381,3.201-0.381h7.713v4.68h-7.203c-0.85,0-1.474,0.164-1.874,0.49c-0.399,0.327-0.6,0.986-0.6,1.978v0.798
		c0,0.774,0.182,1.324,0.545,1.651c0.364,0.327,0.995,0.49,1.893,0.49h11.605c1.383,0,2.553,0.115,3.511,0.345
		c0.958,0.23,1.74,0.599,2.347,1.106c0.606,0.508,1.043,1.161,1.31,1.959c0.267,0.798,0.4,1.754,0.4,2.866v1.959
		c0,1.161-0.134,2.146-0.4,2.957c-0.267,0.811-0.703,1.469-1.31,1.978c-0.606,0.508-1.389,0.883-2.347,1.125
		c-0.958,0.242-2.128,0.363-3.511,0.363H225.109z"/>
</g>
</svg>
