<?xml version="1.0" encoding="utf-8"?>
<!-- Generator: Adobe Illustrator 16.0.0, SVG Export Plug-In . SVG Version: 6.00 Build 0)  -->
<!DOCTYPE svg PUBLIC "-//W3C//DTD SVG 1.1//EN" "http://www.w3.org/Graphics/SVG/1.1/DTD/svg11.dtd">
<svg version="1.1" id="Layer_1" xmlns="http://www.w3.org/2000/svg" xmlns:xlink="http://www.w3.org/1999/xlink" x="0px" y="0px"
	 width="252px" height="144px" viewBox="0 0 252 144" enable-background="new 0 0 252 144" xml:space="preserve">
<g id="_x31_" display="none">
	<g display="inline">
		<path fill="#94A1C0" d="M19.065,23.925V9.525L13.83,23.64h-2.704L5.918,9.354v14.57H2.361V3.749h4.952l5.293,14.371l5.321-14.371
			h4.696v20.176H19.065z"/>
		<path fill="#94A1C0" d="M39.047,23.925l-1.309-3.87h-8.025l-1.309,3.87h-3.7l7.086-20.176h4.013l7.086,20.176H39.047z
			 M33.726,8.245l-2.874,8.509H36.6L33.726,8.245z"/>
		<path fill="#94A1C0" d="M50.433,7.163v16.762h-3.671V7.163h-5.976V3.749h15.623v3.415H50.433z"/>
		<path fill="#94A1C0" d="M70.186,23.925l-3.358-7.626H62.36v7.626h-3.7V3.749h8.509c4.81,0,7.001,3.016,7.001,6.26
			c0,2.704-1.48,4.838-3.7,5.663l3.7,8.253H70.186z M67.169,6.964h-4.837v6.033h4.895c2.078,0,3.272-1.082,3.272-2.988
			C70.499,8.387,69.247,6.964,67.169,6.964z"/>
		<path fill="#94A1C0" d="M77.132,23.925V3.749h3.728v20.176H77.132z"/>
		<path fill="#94A1C0" d="M96.001,23.925l-4.525-7.342l-4.524,7.342h-3.956l6.346-10.273l-6.289-9.903h4.013l4.525,7.057
			l4.382-7.057h3.984l-6.204,9.932l6.289,10.245H96.001z"/>
	</g>
	<g display="inline">
		<path fill="#F3F4F4" d="M122.54,18.375c0,0.854-0.162,1.594-0.484,2.22c-0.323,0.626-0.73,1.186-1.224,1.679
			c-0.702,0.683-1.561,1.191-2.576,1.523c-1.015,0.332-2.063,0.498-3.145,0.498c-2.448,0-4.374-0.645-5.778-1.936
			c-0.645-0.607-1.167-1.324-1.565-2.149c-0.398-0.826-0.598-1.722-0.598-2.69h2.647c0,0.607,0.133,1.191,0.398,1.75
			c0.266,0.56,0.607,1.039,1.025,1.438c0.456,0.437,1.034,0.754,1.736,0.954c0.702,0.199,1.413,0.299,2.135,0.299
			c0.778,0,1.484-0.085,2.12-0.256s1.182-0.474,1.637-0.911c0.323-0.285,0.574-0.612,0.754-0.982c0.18-0.37,0.271-0.83,0.271-1.38
			c0-0.797-0.266-1.49-0.797-2.078c-0.532-0.588-1.395-0.977-2.59-1.167c-0.551-0.095-1.082-0.175-1.594-0.242
			c-0.513-0.066-1.044-0.147-1.594-0.242c-0.759-0.114-1.466-0.303-2.121-0.569c-0.654-0.265-1.224-0.621-1.708-1.067
			s-0.864-0.978-1.139-1.594c-0.275-0.616-0.413-1.323-0.413-2.121c0-0.758,0.157-1.484,0.47-2.177
			c0.313-0.692,0.745-1.295,1.295-1.808c1.423-1.328,3.188-1.992,5.294-1.992c0.986,0,1.939,0.162,2.86,0.484
			c0.92,0.323,1.712,0.807,2.376,1.452c1.233,1.177,1.879,2.619,1.936,4.326h-2.647c-0.038-0.493-0.142-0.958-0.313-1.395
			s-0.398-0.815-0.683-1.139c-0.38-0.436-0.868-0.778-1.466-1.024s-1.295-0.37-2.092-0.37c-0.721,0-1.39,0.109-2.006,0.327
			c-0.617,0.219-1.144,0.574-1.58,1.067c-0.266,0.304-0.469,0.631-0.612,0.982c-0.142,0.352-0.213,0.754-0.213,1.21
			c0,0.455,0.085,0.849,0.256,1.181c0.17,0.332,0.398,0.612,0.683,0.84c0.284,0.228,0.607,0.408,0.968,0.541
			c0.36,0.133,0.73,0.228,1.11,0.285c0.569,0.076,1.134,0.157,1.693,0.242c0.56,0.085,1.115,0.175,1.665,0.27
			c1.689,0.247,3.046,0.859,4.07,1.836C122.027,15.467,122.54,16.762,122.54,18.375z"/>
		<path fill="#F3F4F4" d="M140.813,13.849c0,0.797-0.033,1.58-0.1,2.348s-0.189,1.504-0.37,2.206
			c-0.181,0.702-0.441,1.371-0.782,2.007c-0.342,0.636-0.788,1.219-1.338,1.75c-0.722,0.721-1.552,1.262-2.49,1.623
			c-0.939,0.36-1.922,0.541-2.946,0.541s-2.007-0.181-2.946-0.541c-0.938-0.36-1.77-0.901-2.49-1.623
			c-0.551-0.531-0.996-1.115-1.338-1.75c-0.341-0.636-0.603-1.305-0.783-2.007c-0.18-0.702-0.304-1.437-0.37-2.206
			c-0.067-0.769-0.1-1.551-0.1-2.348c0-0.797,0.033-1.58,0.1-2.349c0.066-0.768,0.189-1.503,0.37-2.206
			c0.18-0.702,0.441-1.371,0.783-2.007c0.342-0.635,0.787-1.219,1.338-1.75c0.721-0.721,1.552-1.262,2.49-1.622
			c0.939-0.36,1.922-0.541,2.946-0.541s2.007,0.181,2.946,0.541c0.938,0.36,1.769,0.901,2.49,1.622
			c0.55,0.532,0.996,1.115,1.338,1.75c0.341,0.636,0.602,1.305,0.782,2.007c0.181,0.702,0.304,1.438,0.37,2.206
			C140.779,12.269,140.813,13.052,140.813,13.849z M138.194,13.849c0-0.531-0.015-1.091-0.043-1.68
			c-0.028-0.588-0.1-1.171-0.214-1.75c-0.113-0.579-0.284-1.133-0.512-1.665c-0.228-0.531-0.551-1.015-0.968-1.452
			c-0.494-0.493-1.059-0.868-1.693-1.124c-0.637-0.256-1.296-0.384-1.979-0.384c-0.684,0-1.343,0.128-1.979,0.384
			c-0.636,0.256-1.2,0.631-1.693,1.124c-0.418,0.437-0.74,0.921-0.968,1.452c-0.228,0.532-0.398,1.086-0.513,1.665
			c-0.113,0.579-0.185,1.163-0.213,1.75c-0.028,0.588-0.043,1.148-0.043,1.68s0.015,1.091,0.043,1.679
			c0.028,0.588,0.1,1.172,0.213,1.75c0.114,0.579,0.285,1.138,0.513,1.679s0.55,1.02,0.968,1.438
			c0.493,0.494,1.058,0.868,1.693,1.124c0.636,0.256,1.295,0.384,1.979,0.384c0.683,0,1.342-0.128,1.979-0.384
			c0.635-0.256,1.199-0.63,1.693-1.124c0.417-0.417,0.74-0.896,0.968-1.438s0.398-1.1,0.512-1.679
			c0.114-0.579,0.186-1.162,0.214-1.75C138.18,14.94,138.194,14.38,138.194,13.849z"/>
		<path fill="#F3F4F4" d="M144.456,23.925V3.745h2.533v17.818h9.705v2.362H144.456z"/>
		<path fill="#F3F4F4" d="M172.548,16.524c0,1.252-0.171,2.362-0.512,3.33c-0.342,0.968-0.836,1.779-1.48,2.434
			c-0.646,0.655-1.419,1.153-2.319,1.495c-0.901,0.341-1.922,0.512-3.06,0.512c-1.139,0-2.159-0.171-3.061-0.512
			c-0.901-0.342-1.675-0.84-2.319-1.495c-0.646-0.655-1.139-1.466-1.48-2.434c-0.341-0.968-0.512-2.078-0.512-3.33V3.745h2.533
			v12.837c0,0.797,0.09,1.527,0.271,2.191c0.18,0.665,0.459,1.229,0.839,1.693c0.38,0.465,0.878,0.826,1.495,1.082
			c0.616,0.256,1.361,0.384,2.234,0.384c0.872,0,1.617-0.128,2.233-0.384c0.617-0.256,1.115-0.617,1.495-1.082
			c0.379-0.464,0.659-1.029,0.839-1.693c0.181-0.664,0.271-1.395,0.271-2.191V3.745h2.533V16.524z"/>
		<path fill="#F3F4F4" d="M183.052,6.107v17.818h-2.562V6.107h-6.006V3.745h14.573v2.362H183.052z"/>
		<path fill="#F3F4F4" d="M191.562,23.925V3.745h2.59v20.18H191.562z"/>
		<path fill="#F3F4F4" d="M213.848,13.849c0,0.797-0.033,1.58-0.1,2.348s-0.189,1.504-0.37,2.206
			c-0.181,0.702-0.441,1.371-0.782,2.007c-0.342,0.636-0.788,1.219-1.338,1.75c-0.722,0.721-1.552,1.262-2.49,1.623
			c-0.939,0.36-1.922,0.541-2.946,0.541s-2.007-0.181-2.946-0.541c-0.938-0.36-1.77-0.901-2.49-1.623
			c-0.551-0.531-0.996-1.115-1.338-1.75s-0.603-1.305-0.782-2.007c-0.181-0.702-0.304-1.437-0.37-2.206
			c-0.067-0.769-0.1-1.551-0.1-2.348c0-0.797,0.032-1.58,0.1-2.349c0.066-0.768,0.189-1.503,0.37-2.206
			c0.18-0.702,0.44-1.371,0.782-2.007c0.342-0.635,0.787-1.219,1.338-1.75c0.721-0.721,1.552-1.262,2.49-1.622
			c0.939-0.36,1.922-0.541,2.946-0.541s2.007,0.181,2.946,0.541c0.938,0.36,1.769,0.901,2.49,1.622
			c0.55,0.532,0.996,1.115,1.338,1.75c0.341,0.636,0.602,1.305,0.782,2.007c0.181,0.702,0.304,1.438,0.37,2.206
			C213.814,12.269,213.848,13.052,213.848,13.849z M211.229,13.849c0-0.531-0.015-1.091-0.043-1.68
			c-0.028-0.588-0.1-1.171-0.214-1.75c-0.113-0.579-0.284-1.133-0.512-1.665c-0.228-0.531-0.551-1.015-0.968-1.452
			c-0.494-0.493-1.059-0.868-1.693-1.124c-0.637-0.256-1.296-0.384-1.979-0.384c-0.684,0-1.343,0.128-1.979,0.384
			c-0.636,0.256-1.2,0.631-1.693,1.124c-0.418,0.437-0.74,0.921-0.968,1.452c-0.228,0.532-0.398,1.086-0.513,1.665
			c-0.113,0.579-0.185,1.163-0.213,1.75c-0.028,0.588-0.043,1.148-0.043,1.68s0.015,1.091,0.043,1.679
			c0.028,0.588,0.1,1.172,0.213,1.75c0.114,0.579,0.285,1.138,0.513,1.679s0.55,1.02,0.968,1.438
			c0.493,0.494,1.058,0.868,1.693,1.124c0.636,0.256,1.295,0.384,1.979,0.384c0.683,0,1.342-0.128,1.979-0.384
			c0.635-0.256,1.199-0.63,1.693-1.124c0.417-0.417,0.74-0.896,0.968-1.438s0.398-1.1,0.512-1.679
			c0.114-0.579,0.186-1.162,0.214-1.75C211.215,14.94,211.229,14.38,211.229,13.849z"/>
		<path fill="#F3F4F4" d="M229.838,23.925L219.91,7.701v16.224h-2.419V3.745h2.853l9.927,16.281V3.745h2.42v20.18H229.838z"/>
		<path fill="#F3F4F4" d="M251.475,18.375c0,0.854-0.161,1.594-0.483,2.22c-0.323,0.626-0.73,1.186-1.224,1.679
			c-0.702,0.683-1.562,1.191-2.576,1.523c-1.016,0.332-2.063,0.498-3.146,0.498c-2.447,0-4.374-0.645-5.777-1.936
			c-0.646-0.607-1.167-1.324-1.565-2.149c-0.398-0.826-0.598-1.722-0.598-2.69h2.646c0,0.607,0.133,1.191,0.398,1.75
			c0.266,0.56,0.607,1.039,1.024,1.438c0.456,0.437,1.034,0.754,1.736,0.954s1.414,0.299,2.135,0.299
			c0.778,0,1.484-0.085,2.121-0.256c0.636-0.171,1.181-0.474,1.637-0.911c0.322-0.285,0.573-0.612,0.754-0.982
			c0.18-0.37,0.271-0.83,0.271-1.38c0-0.797-0.266-1.49-0.797-2.078c-0.531-0.588-1.395-0.977-2.591-1.167
			c-0.55-0.095-1.081-0.175-1.594-0.242c-0.512-0.066-1.044-0.147-1.594-0.242c-0.759-0.114-1.466-0.303-2.12-0.569
			c-0.655-0.265-1.225-0.621-1.708-1.067c-0.484-0.446-0.863-0.978-1.139-1.594c-0.275-0.616-0.412-1.323-0.412-2.121
			c0-0.758,0.156-1.484,0.469-2.177c0.313-0.692,0.745-1.295,1.296-1.808c1.423-1.328,3.188-1.992,5.294-1.992
			c0.986,0,1.939,0.162,2.86,0.484c0.92,0.323,1.712,0.807,2.377,1.452c1.232,1.177,1.878,2.619,1.936,4.326h-2.647
			c-0.038-0.493-0.143-0.958-0.313-1.395c-0.17-0.437-0.398-0.815-0.683-1.139c-0.38-0.436-0.868-0.778-1.466-1.024
			s-1.295-0.37-2.092-0.37c-0.722,0-1.391,0.109-2.007,0.327c-0.617,0.219-1.144,0.574-1.58,1.067
			c-0.266,0.304-0.47,0.631-0.611,0.982c-0.143,0.352-0.214,0.754-0.214,1.21c0,0.455,0.085,0.849,0.256,1.181
			s0.398,0.612,0.684,0.84c0.284,0.228,0.606,0.408,0.968,0.541c0.36,0.133,0.73,0.228,1.109,0.285
			c0.569,0.076,1.134,0.157,1.694,0.242c0.56,0.085,1.114,0.175,1.665,0.27c1.688,0.247,3.045,0.859,4.07,1.836
			C250.963,15.467,251.475,16.762,251.475,18.375z"/>
	</g>
</g>
<g id="_x32_">
	<g>
		<path fill="#94A1C0" d="M19.396,23.134V8.44l-5.343,14.403h-2.759L5.979,8.266v14.868h-3.63V2.545h5.053l5.401,14.665
			l5.431-14.665h4.792v20.589H19.396z"/>
		<path fill="#94A1C0" d="M39.785,23.134l-1.336-3.949h-8.189l-1.335,3.949h-3.775l7.23-20.589h4.095l7.231,20.589H39.785z
			 M34.354,7.134l-2.933,8.683h5.866L34.354,7.134z"/>
		<path fill="#94A1C0" d="M51.403,6.03v17.104h-3.746V6.03h-6.098V2.545h15.942V6.03H51.403z"/>
		<path fill="#94A1C0" d="M71.559,23.134l-3.427-7.783h-4.56v7.783h-3.775V2.545h8.683c4.908,0,7.144,3.078,7.144,6.389
			c0,2.759-1.51,4.937-3.775,5.779l3.775,8.421H71.559z M68.48,5.827h-4.937v6.156h4.995c2.12,0,3.339-1.104,3.339-3.049
			C71.878,7.279,70.6,5.827,68.48,5.827z"/>
		<path fill="#94A1C0" d="M78.647,23.134V2.545h3.804v20.589H78.647z"/>
		<path fill="#94A1C0" d="M97.901,23.134l-4.617-7.492l-4.617,7.492H84.63l6.476-10.483L84.688,2.545h4.094L93.4,9.747l4.473-7.202
			h4.065L95.607,12.68l6.418,10.454H97.901z"/>
	</g>
	<g>
		<path fill="#F3F4F4" d="M121.228,21.508c-1.394,1.365-3.455,2.003-5.836,2.003c-2.352,0-4.385-0.755-5.75-2.207
			c-1.016-1.074-1.713-2.526-1.858-4.094h1.568c0.145,1.22,0.726,2.352,1.51,3.165c1.104,1.133,2.817,1.685,4.53,1.685
			c1.771,0,3.542-0.465,4.675-1.539c0.726-0.697,1.219-1.655,1.219-2.962c0-1.975-1.539-3.688-4.007-4.007l-3.833-0.494
			c-2.904-0.377-5.053-2.032-5.053-5.198c0-1.713,0.755-2.933,1.8-3.891c1.278-1.162,3.165-1.8,5.082-1.8
			c2.207,0,4.414,0.9,5.575,2.265c0.871,1.017,1.452,2.091,1.568,3.572h-1.539c-0.145-1.045-0.465-1.83-1.132-2.613
			c-0.9-1.104-2.584-1.771-4.472-1.771c-1.481,0-2.904,0.377-3.92,1.249c-0.784,0.697-1.394,1.655-1.394,2.991
			c0,2.439,1.742,3.369,3.629,3.601l3.891,0.494c3.194,0.406,5.372,2.7,5.372,5.604C122.854,19.359,122.186,20.549,121.228,21.508z"
			/>
		<path fill="#F3F4F4" d="M138.219,21.42c-1.278,1.22-3.049,2.091-5.285,2.091c-2.235,0-4.007-0.871-5.285-2.091
			c-2.323-2.236-2.584-5.633-2.584-8.595c0-2.962,0.261-6.331,2.584-8.566c1.278-1.219,3.05-2.09,5.285-2.09
			c2.236,0,4.007,0.871,5.285,2.09c2.323,2.236,2.584,5.604,2.584,8.566C140.803,15.787,140.542,19.185,138.219,21.42z
			 M137.115,5.247c-1.074-1.045-2.584-1.597-4.182-1.597c-1.597,0-3.106,0.552-4.182,1.597c-2.032,1.946-2.119,5.14-2.119,7.579
			c0,2.439,0.087,5.662,2.119,7.607c1.075,1.045,2.585,1.597,4.182,1.597c1.598,0,3.107-0.552,4.182-1.597
			c2.032-1.945,2.119-5.168,2.119-7.607C139.234,10.386,139.147,7.192,137.115,5.247z"/>
		<path fill="#F3F4F4" d="M144.61,23.134V2.546h1.511v19.165h10.686v1.423H144.61z"/>
		<path fill="#F3F4F4" d="M165.491,23.511c-4.937,0-7.288-3.397-7.288-7.927V2.546h1.51v13.067c0,3.571,1.742,6.446,5.778,6.446
			s5.808-2.875,5.808-6.446V2.546h1.51v13.038C172.809,20.114,170.428,23.511,165.491,23.511z"/>
		<path fill="#F3F4F4" d="M183.033,3.998v19.136h-1.51V3.998h-6.533V2.546h14.605v1.452H183.033z"/>
		<path fill="#F3F4F4" d="M192.154,23.134V2.546h1.539v20.587H192.154z"/>
		<path fill="#F3F4F4" d="M210.652,21.42c-1.277,1.22-3.049,2.091-5.284,2.091c-2.236,0-4.008-0.871-5.285-2.091
			c-2.323-2.236-2.584-5.633-2.584-8.595c0-2.962,0.261-6.331,2.584-8.566c1.277-1.219,3.049-2.09,5.285-2.09
			c2.235,0,4.007,0.871,5.284,2.09c2.323,2.236,2.585,5.604,2.585,8.566C213.237,15.787,212.976,19.185,210.652,21.42z
			 M209.549,5.247c-1.074-1.045-2.584-1.597-4.181-1.597c-1.598,0-3.107,0.552-4.182,1.597c-2.033,1.946-2.12,5.14-2.12,7.579
			c0,2.439,0.087,5.662,2.12,7.607c1.074,1.045,2.584,1.597,4.182,1.597c1.597,0,3.106-0.552,4.181-1.597
			c2.033-1.945,2.12-5.168,2.12-7.607C211.669,10.386,211.582,7.192,209.549,5.247z"/>
		<path fill="#F3F4F4" d="M230.488,23.134L218.555,4.898v18.235h-1.511V2.546h1.714l11.963,18.207V2.546h1.481v20.587H230.488z"/>
		<path fill="#F3F4F4" d="M249.223,21.508c-1.395,1.365-3.456,2.003-5.837,2.003c-2.352,0-4.385-0.755-5.749-2.207
			c-1.017-1.074-1.714-2.526-1.858-4.094h1.567c0.146,1.22,0.727,2.352,1.511,3.165c1.103,1.133,2.816,1.685,4.529,1.685
			c1.771,0,3.543-0.465,4.675-1.539c0.727-0.697,1.22-1.655,1.22-2.962c0-1.975-1.539-3.688-4.007-4.007l-3.833-0.494
			c-2.904-0.377-5.053-2.032-5.053-5.198c0-1.713,0.755-2.933,1.801-3.891c1.277-1.162,3.165-1.8,5.081-1.8
			c2.207,0,4.414,0.9,5.575,2.265c0.871,1.017,1.452,2.091,1.568,3.572h-1.539c-0.146-1.045-0.465-1.83-1.133-2.613
			c-0.899-1.104-2.584-1.771-4.472-1.771c-1.48,0-2.903,0.377-3.92,1.249c-0.784,0.697-1.394,1.655-1.394,2.991
			c0,2.439,1.742,3.369,3.63,3.601l3.891,0.494c3.194,0.406,5.372,2.7,5.372,5.604C250.849,19.359,250.181,20.549,249.223,21.508z"
			/>
	</g>
</g>
</svg>
