<?xml version="1.0" encoding="utf-8"?>
<!-- Generator: Adobe Illustrator 16.0.0, SVG Export Plug-In . SVG Version: 6.00 Build 0)  -->
<!DOCTYPE svg PUBLIC "-//W3C//DTD SVG 1.1//EN" "http://www.w3.org/Graphics/SVG/1.1/DTD/svg11.dtd">
<svg version="1.1" id="Layer_1" xmlns="http://www.w3.org/2000/svg" xmlns:xlink="http://www.w3.org/1999/xlink" x="0px" y="0px"
	 width="252px" height="144px" viewBox="0 0 252 144" enable-background="new 0 0 252 144" xml:space="preserve">
<g>
	<path fill="#FFFFFF" d="M53.266,47.031H42.984V15.854L30.712,47.031h-8.49L9.95,16.252v30.779H0V0h13.665l12.936,31.774L38.871,0
		h14.395V47.031z"/>
	<path fill="#FFFFFF" d="M94.988,47.031l-3.383-9.552H73.43l-3.383,9.552H59.036L76.747,0h12.139l17.512,47.031H94.988z
		 M82.651,11.675L76.88,27.927h11.409L82.651,11.675z"/>
	<path fill="#FFFFFF" d="M143.479,10.016h-14.526v37.015h-10.481V10.016h-14.46V0h39.468V10.016z"/>
	<path fill="#FFFFFF" d="M172.466,47.031l-8.424-17.512h-3.714v17.512h-10.481V0h18.641c4.554,0,8.235,1.393,11.045,4.179
		c2.807,2.786,4.211,6.302,4.211,10.547c0,3.185-0.819,5.937-2.454,8.259c-1.638,2.322-3.914,3.991-6.833,5.008l9.553,19.038
		H172.466z M160.328,20.498h6.168c2.123,0,3.759-0.52,4.908-1.56c1.149-1.038,1.726-2.421,1.726-4.146
		c0-1.768-0.576-3.161-1.726-4.179c-1.149-1.017-2.785-1.526-4.908-1.526h-6.168V20.498z"/>
	<path fill="#FFFFFF" d="M202.117,47.031h-10.612V0h10.612V47.031z"/>
	<path fill="#FFFFFF" d="M251.867,0l-15.124,23.615L252,47.031h-12.738l-9.284-15.257l-9.222,15.257H208.42l15.189-23.548L208.42,0
		h12.601l9.287,15.256L239.594,0H251.867z"/>
</g>
<g>
	<path fill="#FFFFFF" d="M23.607,68.563h-1.793c0-4.944-3.732-8.192-9.501-8.192c-5.769,0-9.598,2.908-9.598,7.223
		c0,3.685,2.812,5.672,9.986,7.126c7.562,1.551,11.925,3.587,11.925,9.403c0,5.866-4.896,9.647-12.458,9.647
		C6.302,93.77,0,90.327,0,82.911h1.794c0,6.205,5.235,9.017,10.374,9.017c6.593,0,10.665-2.957,10.665-7.806
		c0-4.168-2.618-6.059-10.471-7.658c-5.962-1.163-11.44-3.103-11.44-8.871c0-5.381,4.557-8.968,11.392-8.968
		C20.118,58.625,23.607,63.618,23.607,68.563z"/>
	<path fill="#FFFFFF" d="M61.367,76.173c0,9.695-7.466,17.549-16.627,17.549s-16.627-7.854-16.627-17.549
		c0-9.646,7.465-17.5,16.627-17.5C54.096,58.673,61.367,66.333,61.367,76.173z M59.525,76.173c0-8.823-6.496-15.706-14.785-15.706
		c-8.192,0-14.833,7.077-14.833,15.706c0,8.726,6.642,15.755,14.833,15.755C52.932,91.928,59.525,84.85,59.525,76.173z"/>
	<path fill="#FFFFFF" d="M68.682,91.346c1.648,0,19.341,0,19.341,0v1.794H66.888V59.498h1.794
		C68.682,59.498,68.682,89.601,68.682,91.346z"/>
	<path fill="#FFFFFF" d="M116.379,81.117c0,7.417-5.284,12.652-12.895,12.652c-7.562,0-12.895-5.235-12.895-12.652v-21.62h1.794
		v21.62c0,6.448,4.508,10.811,11.101,10.811c6.641,0,11.101-4.362,11.101-10.811v-21.62h1.794V81.117z"/>
	<path fill="#FFFFFF" d="M133.244,61.291V93.14h-1.795V61.291h-11.294v-1.793h24.433v1.793H133.244z"/>
	<path fill="#FFFFFF" d="M150.838,93.14h-1.794V59.498h1.794V93.14z"/>
	<path fill="#FFFFFF" d="M189.762,76.173c0,9.695-7.466,17.549-16.627,17.549s-16.627-7.854-16.627-17.549
		c0-9.646,7.466-17.5,16.627-17.5C182.491,58.673,189.762,66.333,189.762,76.173z M187.92,76.173
		c0-8.823-6.495-15.706-14.785-15.706c-8.192,0-14.833,7.077-14.833,15.706c0,8.726,6.641,15.755,14.833,15.755
		S187.92,84.85,187.92,76.173z"/>
	<path fill="#FFFFFF" d="M221.604,93.14h-2.035l-22.491-30.928V93.14h-1.795V59.498h2.037l22.492,30.927V59.498h1.792V93.14z"/>
	<path fill="#FFFFFF" d="M251.22,68.563h-1.794c0-4.944-3.732-8.192-9.502-8.192c-5.767,0-9.597,2.908-9.597,7.223
		c0,3.685,2.812,5.672,9.984,7.126c7.564,1.551,11.927,3.587,11.927,9.403c0,5.866-4.897,9.647-12.459,9.647
		c-5.865,0-12.167-3.442-12.167-10.858h1.794c0,6.205,5.234,9.017,10.373,9.017c6.593,0,10.665-2.957,10.665-7.806
		c0-4.168-2.618-6.059-10.471-7.658c-5.962-1.163-11.44-3.103-11.44-8.871c0-5.381,4.558-8.968,11.391-8.968
		C247.729,58.625,251.22,63.618,251.22,68.563z"/>
</g>
</svg>
