<?xml version="1.0" standalone="no"?>
<!DOCTYPE svg PUBLIC "-//W3C//DTD SVG 1.1//EN" "http://www.w3.org/Graphics/SVG/1.1/DTD/svg11.dtd" >
<svg xmlns="http://www.w3.org/2000/svg">
<metadata></metadata>
<defs>
<font id="webfontregular" horiz-adv-x="1171" >
<font-face units-per-em="2048" ascent="1638" descent="-410" />
<missing-glyph horiz-adv-x="586" />
<glyph horiz-adv-x="2048" />
<glyph horiz-adv-x="2048" />
<glyph unicode="&#xd;" horiz-adv-x="586" />
<glyph unicode=" "  horiz-adv-x="586" />
<glyph unicode="&#x09;" horiz-adv-x="586" />
<glyph unicode="&#xa0;" horiz-adv-x="586" />
<glyph unicode="!" horiz-adv-x="594" d="M199 360v1096h196v-1096h-196zM201 0v229h196v-229h-196z" />
<glyph unicode="&#x22;" horiz-adv-x="643" d="M86 879v557h164v-557h-164zM395 879v557h164v-557h-164z" />
<glyph unicode="#" horiz-adv-x="1575" d="M70 428l61 172h297l90 252h-315l61 172h316l155 436h191l-154 -436h250l156 436h190l-154 -436h291l-59 -172h-293l-90 -252h309l-61 -172h-307l-156 -434h-191l156 434h-252l-158 -434h-190l156 434h-299zM618 598h256l91 254h-256z" />
<glyph unicode="$" d="M162 14v414h182q0 -108 64 -173t172 -65q107 0 171 65t64 173q0 30 -1.5 40.5t-6.5 29.5q-6 31 -21 55q-45 76 -193 112l-36 9q-183 47 -269.5 138t-86.5 237q0 160 81 264t228 131v213h182v-213q41 -6 75 -20t64 -35v55h154v-365h-190q-12 93 -66 141t-145 48 q-82 0 -138.5 -58t-56.5 -143q0 -19 2 -32.5t9 -32.5q11 -32 32 -54q39 -46 172 -76q81 -17 119 -32q142 -51 216.5 -149t74.5 -232q0 -173 -87 -293.5t-235 -151.5v-256h-182v256h-8q-26 0 -52 4t-50 13q-48 18 -93 55v-72h-145z" />
<glyph unicode="%" horiz-adv-x="1796" d="M90 1126q0 71 27 137q14 33 33.5 62t46.5 55q51 51 115.5 78t136.5 27q71 0 136 -26.5t117 -77.5t78.5 -116.5t26.5 -138.5q0 -72 -26 -135.5t-79 -118.5q-48 -48 -114.5 -76t-138.5 -28q-71 0 -137 27q-33 14 -60 32t-55 45q-49 49 -78 116t-29 138zM250 1126 q0 -81 57.5 -138.5t138.5 -57.5q83 0 140 56.5t57 139.5q0 81 -57 139t-140 58q-80 0 -138 -57t-58 -140zM446 -29l779 1514h127l-777 -1514h-129zM987 330q0 71 27 137t76.5 115.5t116 77.5t139.5 28q71 0 137 -27t116.5 -77.5t77.5 -116t27 -137.5t-26 -136.5t-77.5 -117 t-117 -79t-137.5 -26.5q-71 0 -137 27t-117 77.5t-78 116t-27 138.5zM1145 330q0 -81 57 -139t141 -58q81 0 139 57t58 140q0 82 -57 139t-140 57q-82 0 -140 -57t-58 -139z" />
<glyph unicode="&#x26;" horiz-adv-x="1436" d="M88 410q0 127 66 228t208 191q-85 69 -126 143.5t-41 170.5q0 141 102 242q52 50 114.5 75t139.5 25q134 0 235 -103t101 -239q0 -100 -58 -184t-174 -148l219 -209l144 365h309v-185h-170l-125 -321l342 -307l-114 -154l-310 276q-75 -148 -188.5 -225.5t-257.5 -77.5 q-77 0 -148.5 29.5t-130.5 87.5q-66 65 -101.5 148t-35.5 172zM293 414q0 -100 63 -167t158 -67q88 0 159.5 58.5t123.5 175.5l-301 288q-104 -58 -153.5 -128.5t-49.5 -159.5zM389 1141q0 -58 30.5 -106t106.5 -105q81 43 121.5 94.5t40.5 114.5q0 62 -42.5 108.5 t-102.5 46.5q-64 0 -109 -44t-45 -109z" />
<glyph unicode="'" horiz-adv-x="334" d="M86 879v557h164v-557h-164z" />
<glyph unicode="(" horiz-adv-x="764" d="M98 545q0 327 163 579.5t446 358.5v-228q-188 -104 -293 -292q-51 -93 -77 -198t-26 -224q0 -236 103.5 -423t292.5 -292v-223q-282 105 -445.5 359t-163.5 583z" />
<glyph unicode=")" horiz-adv-x="764" d="M53 -174q186 104 291 292.5t105 422.5q0 236 -103 422t-293 292v228q280 -105 443 -357.5t163 -580.5q0 -330 -162 -582t-444 -360v223z" />
<glyph unicode="*" d="M223 1063v145h238l-119 205l125 74l119 -207l119 207l124 -74l-118 -205h237v-145h-237l118 -205l-124 -72l-119 205l-119 -205l-125 72l119 205h-238z" />
<glyph unicode="+" horiz-adv-x="1706" d="M254 528v166h514v527h170v-527h514v-166h-514v-528h-170v528h-514z" />
<glyph unicode="," horiz-adv-x="586" d="M193 -129q36 6 53.5 32t17.5 77v20h-69v233h196v-215q0 -118 -48.5 -184.5t-149.5 -87.5v125z" />
<glyph unicode="-" horiz-adv-x="678" d="M90 461v184h498v-184h-498z" />
<glyph unicode="." horiz-adv-x="586" d="M193 0v246h200v-246h-200z" />
<glyph unicode="/" horiz-adv-x="569" d="M-51 -190l495 1675h136l-496 -1675h-135z" />
<glyph unicode="0" d="M88 512v432q0 139 20.5 212.5t67.5 133.5q71 95 177 146t233 51q130 0 238.5 -54.5t181.5 -158.5q39 -57 57 -129.5t18 -192.5v-446q0 -123 -18.5 -199.5t-58.5 -132.5q-72 -96 -181 -149.5t-237 -53.5t-231.5 50t-182.5 147q-43 55 -63.5 137t-20.5 207zM305 475 q0 -90 8 -125.5t27 -62.5q36 -54 100 -84.5t142 -30.5t143 31.5t102 87.5q19 29 28 70t9 122v490q0 89 -7.5 126t-27.5 66q-35 56 -102 88.5t-143 32.5q-138 0 -208.5 -77.5t-70.5 -229.5v-504z" />
<glyph unicode="1" d="M256 1284v172h469v-1263h170v-193h-555v193h170v1091h-254z" />
<glyph unicode="2" d="M100 0v203l574 555q79 79 111 137q16 30 24 61t8 66q0 113 -74 188.5t-188 75.5q-119 0 -187.5 -77.5t-68.5 -215.5v-16h-199v4q0 225 129.5 364.5t337.5 139.5q193 0 326 -133t133 -322q0 -105 -49 -198.5t-164 -202.5l-451 -426h469v237h191v-440h-922z" />
<glyph unicode="3" d="M107 446h196q0 -117 77 -200q74 -78 185 -78q121 0 201 81t80 202q0 132 -84 208t-234 76l-31 -1h-18v197l18 -1h31q107 0 162 45t55 137q0 77 -47 127.5t-118 50.5q-82 0 -129 -47q-23 -23 -36.5 -56t-13.5 -75h-190q0 84 27.5 151t80.5 120q102 102 267 102 q150 0 255 -105.5t105 -255.5q0 -88 -34 -155t-107 -117q116 -45 179 -148t63 -251q0 -214 -131 -348t-338 -134q-216 0 -342 126q-63 64 -96 150.5t-33 198.5z" />
<glyph unicode="4" d="M63 365v153l664 938h195v-911h159v-180h-159v-175h159v-190h-540v190h186v175h-664zM313 545h414l14 661z" />
<glyph unicode="5" d="M82 442h201q15 -117 99.5 -191.5t199.5 -74.5q126 0 211.5 90.5t85.5 227.5q0 136 -85 220.5t-227 84.5q-82 0 -142 -31.5t-99 -95.5l-181 41l136 743h671v-205h-522l-70 -342q54 47 114.5 69.5t131.5 22.5q203 0 343.5 -148t140.5 -361q0 -95 -32 -182.5t-95 -162.5 q-74 -86 -170.5 -132t-210.5 -46q-201 0 -340 131t-160 342z" />
<glyph unicode="6" d="M80 475q0 172 194 462l25 38l315 481h234l-330 -495l62 19q14 3 26.5 5t24.5 2q189 0 324 -144t135 -347q0 -70 -18.5 -138t-55.5 -131q-69 -125 -179.5 -189.5t-254.5 -64.5q-103 0 -193.5 37.5t-161 110t-109.5 164.5q-18 43 -28 91.5t-10 98.5zM281 500 q0 -133 87.5 -227.5t211.5 -94.5q130 0 215.5 87.5t85.5 221.5t-83.5 222t-211.5 88t-216.5 -88t-88.5 -209z" />
<glyph unicode="7" d="M199 1014v442h811v-223l-531 -1233h-225l555 1255h-422v-241h-188z" />
<glyph unicode="8" d="M86 416q0 132 69 232t203 159q-94 36 -144 117t-50 194q0 154 120.5 260.5t301.5 106.5q180 0 301 -106t121 -261q0 -114 -50.5 -193.5t-144.5 -117.5q132 -57 202 -157.5t70 -233.5q0 -196 -139 -321.5t-360 -125.5q-219 0 -359.5 126t-140.5 321zM301 432 q0 -122 75 -192t210 -70q131 0 207.5 69.5t76.5 186.5q0 120 -79 196t-205 76q-124 0 -204.5 -75t-80.5 -191zM377 1085q0 -87 60 -145.5t149 -58.5t148 57.5t59 146.5t-57.5 145t-149.5 56q-95 0 -152 -55t-57 -146z" />
<glyph unicode="9" d="M80 958q0 70 18 138t54 131q68 125 178 189.5t256 64.5q104 0 193.5 -37.5t161 -110.5t110.5 -164t39 -190q0 -171 -195 -462l-25 -38l-315 -479h-233l327 494q-35 -14 -62 -20.5t-50 -6.5q-189 0 -323 144.5t-134 346.5zM289 967q0 -135 81.5 -222.5t211.5 -87.5 q128 0 217.5 88.5t89.5 210.5q0 133 -87.5 226.5t-211.5 93.5q-131 0 -216 -87t-85 -222z" />
<glyph unicode=":" horiz-adv-x="592" d="M195 0v246h202v-246h-202zM195 807v246h202v-246h-202z" />
<glyph unicode=";" horiz-adv-x="592" d="M195 807v246h202v-246h-202zM197 2v234h196v-216q0 -119 -47 -186t-147 -86v125q37 6 51 32q16 26 16 77v20h-69z" />
<glyph unicode="&#x3c;" horiz-adv-x="1706" d="M264 530v160l1178 486v-185l-934 -381l934 -381v-182z" />
<glyph unicode="=" horiz-adv-x="1706" d="M254 322v165h1198v-165h-1198zM254 733v168h1198v-168h-1198z" />
<glyph unicode="&#x3e;" horiz-adv-x="1706" d="M264 47v182l934 381l-934 381v185l1178 -486v-160z" />
<glyph unicode="?" horiz-adv-x="995" d="M23 1040q0 98 31.5 176.5t95.5 143.5q122 125 307 125q186 0 311 -122t125 -304q0 -167 -174 -350l-14 -14q-90 -93 -121 -161q-16 -36 -24.5 -74t-8.5 -83h-203q0 106 35.5 200.5t105.5 178.5l73 76q120 117 120 223q0 104 -67 169.5t-173 65.5q-98 0 -159.5 -69 t-61.5 -180zM350 0v233h197v-233h-197z" />
<glyph unicode="@" horiz-adv-x="2048" d="M98 522q0 166 51.5 314t153.5 272q146 178 353 271.5t460 93.5q167 0 316 -45.5t254 -127.5q133 -103 198.5 -235.5t65.5 -300.5q0 -163 -65 -303t-185 -236q-69 -54 -150 -84q-43 -14 -83 -21t-85 -7q-105 0 -156.5 40.5t-51.5 125.5v4q-54 -86 -128 -127t-176 -41 q-151 0 -232 87t-81 249q0 231 138 394t333 163q89 0 149.5 -34t98.5 -108l55 107h154l-148 -586l-2 -12l-6 -37q0 -38 27 -61t69 -23q50 0 107 30t106 85q36 37 63 80.5t47 96.5q38 103 38 216q0 252 -187 410.5t-489 158.5q-139 0 -256 -30.5t-215 -94.5 q-180 -112 -278.5 -290.5t-98.5 -395.5q0 -312 210 -499t558 -187q166 0 323.5 48.5t291.5 142.5l67 -99q-147 -111 -317 -169t-357 -58q-192 0 -350.5 48t-281.5 142q-154 117 -232 275q-38 80 -57 168t-19 190zM741 444q0 -97 45 -150.5t129 -53.5q89 0 162.5 66 t100.5 173l55 228q-14 85 -62 130.5t-122 45.5q-125 0 -216.5 -128.5t-91.5 -310.5z" />
<glyph unicode="A" horiz-adv-x="1430" d="M-51 0v195h170l422 1071h-170v190h446l490 -1261h172v-195h-553v195h153l-84 229h-565l-90 -229h160v-195h-551zM506 629h414l-207 553z" />
<glyph unicode="B" d="M76 0v195h170v1071h-170v190h493q211 0 335 -106t124 -283q0 -104 -37.5 -174.5t-111.5 -108.5q106 -31 168.5 -122.5t62.5 -217.5q0 -104 -37.5 -192t-105.5 -148q-64 -54 -148.5 -79t-236.5 -25h-506zM453 197h165q147 0 216 54t69 169q0 122 -72.5 187t-212.5 65h-165 v-475zM455 846h69q163 0 231 49.5t68 163.5q0 103 -61 150.5t-193 47.5h-114v-411z" />
<glyph unicode="C" horiz-adv-x="1526" d="M74 737q0 151 57.5 288.5t169.5 248.5q104 104 234.5 157.5t277.5 53.5q126 0 230.5 -32t197.5 -101v104h176v-369h-209q-72 95 -171 141q-48 22 -104.5 34t-119.5 12q-101 0 -194 -39t-166 -113q-76 -78 -119 -180t-43 -207q0 -58 9 -110t29 -105q38 -99 112 -176.5 t172 -120.5q49 -21 98.5 -32t101.5 -11q123 0 222 45.5t169 134.5h258q-105 -195 -267.5 -292t-381.5 -97q-161 0 -301 63t-250 187q-90 100 -139 233t-49 283z" />
<glyph unicode="D" horiz-adv-x="1530" d="M86 0v195h170v1071h-170v190h641q75 0 139 -9t122 -29q113 -36 212 -118q123 -100 190.5 -249t67.5 -320q0 -191 -75.5 -346t-217.5 -256q-96 -69 -201 -99t-296 -30h-582zM463 195h256q243 0 384.5 142t141.5 384q0 254 -156.5 399.5t-433.5 145.5h-192v-1071z" />
<glyph unicode="E" horiz-adv-x="1229" d="M78 0v195h170v1071h-170v190h1036v-432h-170v242h-485v-439h483v-190h-483v-442h485v237h170v-432h-1036z" />
<glyph unicode="F" horiz-adv-x="1178" d="M76 0v195h174v1071h-172v190h1034v-432h-170v242h-481v-439h481v-190h-481v-442h166v-195h-551z" />
<glyph unicode="G" horiz-adv-x="1616" d="M70 737q0 151 57.5 288.5t169.5 248.5q105 103 235 157t279 54q126 0 230.5 -32t197.5 -101v104h176v-369h-211q-71 92 -171.5 139.5t-223.5 47.5q-101 0 -194 -39t-167 -114t-116.5 -177.5t-42.5 -208.5q0 -117 38 -217t109 -174q75 -78 173 -121q49 -21 98.5 -32 t101.5 -11q166 0 292 88t210 262h-658v205h871v-735h-197v221q-89 -124 -218 -187t-296 -63q-65 0 -120.5 8t-114.5 27q-109 36 -201 105q-149 112 -228 274t-79 352z" />
<glyph unicode="H" horiz-adv-x="1509" d="M76 0v195h174v1071h-174v190h551v-190h-166v-424h592v424h-170v190h551v-190h-170v-1071h170v-195h-551v195h170v454h-592v-454h166v-195h-551z" />
<glyph unicode="I" horiz-adv-x="711" d="M80 0v195h170v1071h-170v190h551v-190h-170v-1071h170v-195h-551z" />
<glyph unicode="J" horiz-adv-x="1112" d="M78 354h205q0 -42 13.5 -75.5t39.5 -61.5q47 -49 123 -49q95 0 142.5 67t47.5 203v828h-170v190h551v-190h-172v-840q0 -219 -104.5 -338t-298.5 -119q-173 0 -275 102q-51 52 -76.5 122t-25.5 161z" />
<glyph unicode="K" horiz-adv-x="1290" d="M76 0v195h170v1071h-170v190h551v-190h-170v-1071h170v-195h-551zM465 733l407 533h-135v190h553v-190h-184l-404 -533l406 -543h182v-190h-551v190h129z" />
<glyph unicode="L" horiz-adv-x="1192" d="M76 0v195h170v1071h-170v190h551v-190h-168v-1071h485v237h170v-432h-1038z" />
<glyph unicode="M" horiz-adv-x="1985" d="M76 0v195h170v1071h-170v190h493l422 -1126l422 1126h494v-190h-170v-1071h170v-195h-551v195h182v1069l-473 -1264h-150l-473 1264v-1069h185v-195h-551z" />
<glyph unicode="N" horiz-adv-x="1612" d="M76 0v195h170v1071h-170v190h385l710 -1096v906h-172v190h551v-190h-170v-1266h-206l-719 1130v-935h172v-195h-551z" />
<glyph unicode="O" horiz-adv-x="1630" d="M72 737q0 153 57.5 289.5t169.5 247.5q104 104 234.5 157.5t277.5 53.5q153 0 284 -53t240.5 -160t166.5 -243t57 -292q0 -155 -48.5 -285t-144.5 -235q-112 -121 -252 -183.5t-303 -62.5q-161 0 -301 63t-250 187q-90 100 -139 233t-49 283zM289 735q0 -58 9 -110 t29 -105q38 -99 112 -176.5t172 -120.5q49 -21 98.5 -32t101.5 -11q225 0 377.5 160.5t152.5 398.5q0 99 -36 190t-109 171q-84 90 -178.5 133t-206.5 43q-103 0 -195.5 -39.5t-166.5 -116t-117 -178.5t-43 -207z" />
<glyph unicode="P" horiz-adv-x="1186" d="M76 0v195h170v1071h-170v190h540q129 0 196 -12.5t118 -42.5q92 -57 148.5 -157.5t56.5 -213.5q0 -200 -139 -322t-371 -122h-168v-391h170v-195h-551zM457 780h164q147 0 223 62t76 180q0 120 -75.5 180t-228.5 60h-159v-482z" />
<glyph unicode="Q" horiz-adv-x="1630" d="M70 737q0 151 57.5 288.5t169.5 248.5q105 103 235 157t279 54q152 0 282 -53t239.5 -160.5t166.5 -247.5t57 -305q0 -143 -44 -263.5t-136 -226.5q31 -19 63 -27.5t68 -8.5h13v133h163v-336l-31 -1l-48 -1q-123 0 -216.5 24t-170.5 78q-89 -57 -192 -88t-214 -31 q-130 0 -246.5 41t-214.5 119q-135 109 -207.5 265.5t-72.5 340.5zM287 727q0 -16 1 -34.5t4 -36t7 -39.5t10 -42q49 24 106.5 36t133.5 12q163 0 327 -71.5t312 -207.5q81 90 118 185.5t37 209.5q0 101 -37 193t-110 168q-80 89 -177 132.5t-210 43.5q-103 0 -195.5 -39.5 t-167.5 -116t-117 -180t-42 -213.5zM369 418q81 -122 197 -187t249 -65q29 0 56 3t57 11q55 14 116 45q-113 107 -246 165.5t-261 58.5q-34 0 -47.5 -1.5t-37.5 -6.5q-23 -3 -41 -8t-42 -15z" />
<glyph unicode="R" horiz-adv-x="1305" d="M76 0v195h170v1071h-170v190h588q262 0 400 -121t138 -350q0 -178 -115 -297q-59 -61 -133.5 -95t-164.5 -34l270 -364h170v-195h-291l-481 676v-481h170v-195h-551zM457 700h106q218 0 325 71t107 216q0 141 -90.5 207t-290.5 66h-157v-560z" />
<glyph unicode="S" horiz-adv-x="1147" d="M100 0v430h215q0 -54 21 -97.5t61 -80.5q72 -66 187 -66q109 0 182.5 69.5t73.5 172.5q0 91 -57.5 142.5t-224.5 94.5l-57 14q-191 43 -272 124q-53 53 -80.5 122t-27.5 150q0 172 119 291t290 119q73 0 138 -24.5t137 -76.5v72h182v-362h-209q-33 97 -91 145.5 t-142 48.5q-95 0 -154 -54.5t-59 -143.5q0 -85 50 -132t194 -84l53 -13q201 -48 293 -128q66 -57 99.5 -135.5t33.5 -179.5q0 -95 -38 -180t-110 -148q-65 -56 -147 -88q-40 -15 -80.5 -23t-83.5 -8q-84 0 -159.5 27.5t-147.5 85.5v-84h-189z" />
<glyph unicode="T" horiz-adv-x="1180" d="M68 1006v450h1028v-450h-168v260h-242v-1071h170v-195h-553v195h170v1071h-233v-260h-172z" />
<glyph unicode="U" horiz-adv-x="1446" d="M72 1266v190h553v-190h-168v-703q0 -223 59.5 -306t206.5 -83t207.5 76.5t60.5 279.5v736h-170v190h551v-190h-170v-734q0 -161 -14 -237t-49 -135q-56 -92 -160.5 -140.5t-247.5 -48.5q-149 0 -254.5 45.5t-161.5 137.5q-37 59 -55 134q-8 40 -12 97.5t-4 146.5v734 h-172z" />
<glyph unicode="V" horiz-adv-x="1341" d="M-47 1266v190h551v-190h-162l330 -895l327 895h-161v190h553v-190h-170l-486 -1266h-127l-487 1266h-168z" />
<glyph unicode="W" horiz-adv-x="1954" d="M-31 1266v190h553v-190h-170l262 -916l283 1106h158l282 -1106l262 916h-169v190h552v-190h-172l-380 -1266h-191l-262 1069l-264 -1069h-189l-383 1266h-172z" />
<glyph unicode="X" horiz-adv-x="1368" d="M37 0v195h170l358 540l-352 531h-170v190h551v-190h-141l233 -373l229 373h-143v190h553v-190h-172l-346 -531l354 -540h170v-195h-551v195h142l-236 374l-240 -374h142v-195h-551z" />
<glyph unicode="Y" horiz-adv-x="1133" d="M-66 1266v190h551v-190h-151l235 -510l230 510h-152v190h549v-190h-168l-356 -742v-329h170v-195h-553v195h170v342l-355 729h-170z" />
<glyph unicode="Z" horiz-adv-x="1100" d="M63 0v174l699 1088h-483v-238h-173v432h904v-201l-682 -1060h536v237h172v-432h-973z" />
<glyph unicode="[" horiz-adv-x="764" d="M217 180v692q0 226 94 375t291 236v-242q-97 -60 -138.5 -146.5t-41.5 -252.5v-629q0 -169 41 -255t139 -146v-242q-196 86 -290.5 236t-94.5 374z" />
<glyph unicode="\" horiz-adv-x="569" d="M0 1485h135l494 -1675h-133z" />
<glyph unicode="]" horiz-adv-x="764" d="M162 -188q97 60 138.5 147t41.5 254v629q0 168 -40.5 253t-139.5 146v242q195 -86 289 -236t94 -375v-692q0 -226 -93.5 -375.5t-289.5 -234.5v242z" />
<glyph unicode="^" horiz-adv-x="2048" d="M418 899l497 561h218l495 -561h-207l-397 397l-399 -397h-207z" />
<glyph unicode="_" horiz-adv-x="1024" d="M0 -311h1024v-172h-1024v172z" />
<glyph unicode="`" horiz-adv-x="1024" d="M250 1597h201l204 -350h-120z" />
<glyph unicode="a" horiz-adv-x="1450" d="M66 553q0 118 44 223t128 189t184 123q51 20 106 30t121 10q121 0 209.5 -38t159.5 -119v137h352v-188h-153v-730h153v-190h-350v139q-73 -81 -167.5 -122.5t-213.5 -41.5q-113 0 -215.5 42t-185.5 124q-43 43 -73.5 88.5t-54.5 100.5q-44 106 -44 223zM274 553 q0 -161 109 -273t264 -112q162 0 268.5 108.5t106.5 276.5t-105.5 277.5t-269.5 109.5q-155 0 -264 -113.5t-109 -273.5z" />
<glyph unicode="b" horiz-adv-x="1442" d="M72 0v190h153v1078h-153v188h352v-485q71 81 163.5 120t215.5 39q114 0 214.5 -41t184.5 -123.5t128 -189t44 -223.5q0 -118 -42.5 -222.5t-127 -187.5t-185.5 -125.5t-216 -42.5q-120 0 -212.5 40.5t-168.5 123.5v-139h-350zM420 553q0 -169 104.5 -277t268.5 -108 q155 0 264.5 112t109.5 273t-109 274t-265 113q-162 0 -267.5 -108.5t-105.5 -278.5z" />
<glyph unicode="c" horiz-adv-x="1253" d="M66 553q0 118 44 223t128.5 188.5t191.5 127t227 43.5q56 0 104 -9t92 -29q84 -35 140 -108v119h178v-371h-188q-60 99 -145.5 151t-188.5 52q-155 0 -265 -113t-110 -274t109.5 -273t265.5 -112q104 0 188.5 52.5t141.5 150.5h223q-57 -178 -210 -289t-343 -111 q-119 0 -222.5 43.5t-187.5 126.5t-128.5 189.5t-44.5 222.5z" />
<glyph unicode="d" horiz-adv-x="1442" d="M66 553q0 119 44 223.5t127.5 187t185 124.5t216.5 42q122 0 214 -38t165 -121v297h-166v188h365v-1266h153v-190h-350v139q-73 -81 -167.5 -122.5t-213.5 -41.5q-113 0 -215.5 42t-185.5 124q-43 43 -73.5 88.5t-54.5 100.5q-44 106 -44 223zM274 553q0 -161 109 -273 t264 -112q162 0 268.5 108.5t106.5 276.5t-105.5 277.5t-269.5 109.5q-155 0 -264 -113.5t-109 -273.5z" />
<glyph unicode="e" horiz-adv-x="1296" d="M66 553q0 118 44 223t127 188t189 127t223 44q148 0 274 -67.5t210 -190.5q48 -72 72 -152.5t24 -169.5l-1 -31l-4 -49h-943q33 -139 134 -223t234 -84q97 0 178 47t142 137h227q-69 -176 -215.5 -278.5t-331.5 -102.5q-119 0 -222.5 43.5t-187.5 126.5t-128.5 189.5 t-44.5 222.5zM289 662h719q-37 126 -134 202t-225 76q-127 0 -221.5 -72.5t-138.5 -205.5z" />
<glyph unicode="f" horiz-adv-x="678" d="M57 0v190h179v730h-170v188h170v29q0 170 91 259t269 89h12v-199h-47q-58 0 -92.5 -34t-34.5 -93v-51h174v-188h-178v-730h172v-190h-545z" />
<glyph unicode="g" horiz-adv-x="1436" d="M66 553q0 119 44 223.5t127.5 187t185 124.5t216.5 42q122 0 214 -38t165 -121v137h352v-188h-153v-703q0 -179 -32.5 -274t-107.5 -172q-80 -83 -190 -124.5t-246 -41.5q-194 0 -321.5 80t-200.5 254h241q38 -69 108 -104.5t173 -35.5q161 0 262 91q54 48 82.5 107.5 t28.5 135.5q-34 -37 -76.5 -67.5t-88.5 -51.5q-93 -39 -210 -39q-113 0 -215.5 42t-185.5 124q-43 43 -73.5 88.5t-54.5 100.5q-44 106 -44 223zM274 553q0 -161 109 -273t264 -112q162 0 268.5 108.5t106.5 276.5t-105.5 277.5t-269.5 109.5q-155 0 -264 -113.5 t-109 -273.5z" />
<glyph unicode="h" horiz-adv-x="1384" d="M66 0v190h159v1078h-153v188h352v-498q54 84 133.5 126t185.5 42q91 0 169 -30t137 -88q69 -70 99 -152t30 -227v-439h159v-190h-510v190h152v381q0 202 -60.5 283.5t-207.5 81.5q-139 0 -213 -95t-74 -274v-377h151v-190h-509z" />
<glyph unicode="i" horiz-adv-x="653" d="M76 0v190h160v730h-156v188h354v-918h152v-190h-510zM233 1214v242h203v-242h-203z" />
<glyph unicode="j" horiz-adv-x="618" d="M59 -193h47q59 0 94 35q36 33 36 92v986h-156v188h354v-1094q0 -135 -17 -195t-62 -110.5t-115.5 -76t-167.5 -25.5h-13v200zM233 1214v242h203v-242h-203z" />
<glyph unicode="k" horiz-adv-x="1241" d="M76 0v190h160v1078h-156v188h354v-862l340 326h-172v188h584v-188h-174l-340 -326l413 -404h142v-190h-557v190h143l-379 377v-377h152v-190h-510z" />
<glyph unicode="l" horiz-adv-x="653" d="M76 0v190h160v1078h-156v188h354v-1266h152v-190h-510z" />
<glyph unicode="m" horiz-adv-x="2009" d="M76 0v190h160v730h-156v188h344v-164q59 95 132.5 138.5t172.5 43.5q114 0 198.5 -55.5t137.5 -165.5q76 117 157 169t187 52q183 0 289 -131.5t106 -365.5v-439h160v-190h-508v190h152v381q0 197 -55 281t-183 84q-124 0 -189 -95t-65 -274v-377h156v-190h-506v190h156 v381q0 197 -55 281t-183 84q-124 0 -189 -95t-65 -274v-377h152v-190h-506z" />
<glyph unicode="n" horiz-adv-x="1395" d="M76 0v190h160v730h-156v188h346v-160q52 89 134 133.5t194 44.5q90 0 168 -30t137 -88q70 -70 99.5 -152.5t29.5 -226.5v-439h158v-190h-508v190h151v381q0 202 -60.5 283.5t-207.5 81.5q-139 0 -213 -95t-74 -274v-377h152v-190h-510z" />
<glyph unicode="o" horiz-adv-x="1296" d="M66 553q0 118 44 223t127 188t189 127t223 44q119 0 223.5 -43.5t188 -126t127 -189t43.5 -223.5q0 -118 -42.5 -222.5t-126.5 -187.5t-190 -127.5t-223 -44.5q-119 0 -222.5 43.5t-187.5 126.5t-128.5 189.5t-44.5 222.5zM274 553q0 -162 109.5 -274.5t265.5 -112.5 q155 0 264 113.5t109 273.5q0 161 -108.5 274t-264.5 113t-265.5 -112.5t-109.5 -274.5z" />
<glyph unicode="p" horiz-adv-x="1442" d="M66 -166h159v1086h-153v188h350v-141q71 80 167 121.5t214 41.5q114 0 214.5 -41t184.5 -123.5t128 -189t44 -223.5q0 -118 -42.5 -222.5t-127 -187.5t-185.5 -125.5t-216 -42.5q-122 0 -214 39.5t-165 122.5v-303h166v-190h-524v190zM420 553q0 -169 104.5 -277 t268.5 -108q155 0 264.5 112t109.5 273t-109 274t-265 113q-162 0 -267.5 -108.5t-105.5 -278.5z" />
<glyph unicode="q" horiz-adv-x="1442" d="M66 553q0 119 44 223.5t127.5 187t185 124.5t216.5 42q121 0 214 -40.5t167 -122.5v141h350v-188h-153v-1086h157v-190h-522v190h166v303q-71 -79 -165 -122q-47 -20 -99 -30t-115 -10q-113 0 -215.5 42t-185.5 124q-43 43 -73.5 88.5t-54.5 100.5q-44 106 -44 223z M274 553q0 -161 109 -273t264 -112q162 0 268.5 108.5t106.5 276.5t-105.5 277.5t-269.5 109.5q-155 0 -264 -113.5t-109 -273.5z" />
<glyph unicode="r" horiz-adv-x="797" d="M80 0v190h160v730h-154v188h346v-174q48 95 122 141q38 24 85 37.5t102 13.5v-227q-155 0 -229 -88.5t-74 -273.5v-347h152v-190h-510z" />
<glyph unicode="s" horiz-adv-x="995" d="M100 0v358h211v-4q0 -87 53 -141.5t136 -54.5t133.5 39t50.5 108q0 66 -36.5 102t-139.5 66l-78 23q-144 41 -180 63q-71 45 -106 107.5t-35 144.5q0 139 93.5 230.5t237.5 91.5q64 0 117 -21.5t98 -64.5v61h170v-287h-192q-9 65 -53.5 103.5t-114.5 38.5 q-69 0 -113.5 -39t-44.5 -97q0 -95 194 -150q29 -8 61.5 -17.5t45.5 -14.5q153 -50 217 -125.5t64 -202.5q0 -150 -99.5 -246t-259.5 -96q-78 0 -137 23t-108 74v-72h-185z" />
<glyph unicode="t" horiz-adv-x="649" d="M33 920v188h174v348h199v-348h161v-188h-161v-730h161v-190h-360v920h-174z" />
<glyph unicode="u" horiz-adv-x="1380" d="M47 918v188h359v-571q0 -202 60.5 -283.5t207.5 -81.5q139 0 213 95t74 274v379h-152v188h350v-920h154v-186h-346v158q-53 -88 -135 -133t-193 -45q-88 0 -167.5 30t-135.5 88q-70 70 -99.5 152.5t-29.5 226.5v441h-160z" />
<glyph unicode="v" horiz-adv-x="1161" d="M-4 920v188h489v-188h-149l242 -648l243 648h-149v188h489v-188h-131l-358 -920h-187l-358 920h-131z" />
<glyph unicode="w" horiz-adv-x="1759" d="M8 920v188h502v-188h-168l205 -615l268 803h119l268 -803l205 615h-168v188h502v-188h-131l-320 -920h-164l-252 717l-251 -717h-162l-322 920h-131z" />
<glyph unicode="x" horiz-adv-x="1159" d="M14 0v190h152l297 367l-291 363h-131v188h487v-188h-112l166 -205l168 205h-115v188h495v-188h-141l-293 -353l299 -377h158v-190h-518v190h117l-172 218l-177 -218h125v-190h-514z" />
<glyph unicode="y" horiz-adv-x="1161" d="M-4 920v188h489v-188h-149l242 -648l243 648h-149v188h489v-188h-131l-426 -1086h172v-190h-538v190h157l78 197l-346 889h-131z" />
<glyph unicode="z" horiz-adv-x="1051" d="M86 0v188l588 732h-350v-189h-197v377h776v-209l-573 -709h415v203h197v-393h-856z" />
<glyph unicode="{" horiz-adv-x="1024" d="M162 442v179l21 -2l22 -1q126 0 178.5 59t52.5 202v247q0 146 22.5 206.5t80.5 94.5q41 26 107.5 38t182.5 12h45v-179l-24 1l-23 1q-107 0 -146.5 -41.5t-39.5 -173.5v-241q0 -155 -43.5 -220t-159.5 -94q113 -27 158 -92.5t45 -220.5v-240q0 -132 39.5 -174.5 t148.5 -42.5l22 1l23 1v-176h-63q-101 0 -165.5 12t-106.5 37q-56 32 -79.5 95.5t-23.5 203.5v248q0 144 -52 203t-179 59l-22 -1z" />
<glyph unicode="|" horiz-adv-x="1024" d="M424 -483v2048h178v-2048h-178z" />
<glyph unicode="}" horiz-adv-x="1024" d="M152 -238l23 -1l22 -1q108 0 147 42t39 175v240q0 153 45 219t160 94q-113 27 -159 93t-46 221v241q0 132 -38 173.5t-146 41.5l-23 -1l-24 -1v179h45q113 0 179 -11.5t109 -38.5q56 -33 80 -95q11 -30 17 -81.5t6 -124.5v-247q0 -144 52 -202.5t179 -58.5l21 1l22 2 v-179l-22 1l-21 1q-126 0 -178.5 -59.5t-52.5 -202.5v-248q0 -145 -22.5 -204.5t-80.5 -94.5q-41 -25 -107 -37t-181 -12h-45v176z" />
<glyph unicode="~" horiz-adv-x="1706" d="M178 434v187q102 70 200 106.5t187 36.5q60 0 123.5 -12t170.5 -48l42 -15q166 -58 250 -58q85 0 177.5 37t201.5 116v-184q-100 -69 -196 -105t-185 -36q-35 0 -49.5 1.5t-43.5 6.5q-46 9 -98 27l-76 26q-213 74 -319 74q-83 0 -175.5 -38t-209.5 -122z" />
<glyph unicode="&#xa0;" />
<glyph unicode="&#xa1;" horiz-adv-x="594" d="M199 1227v229h196v-229h-196zM201 0v1096h196v-1096h-196z" />
<glyph unicode="&#xa2;" d="M156 750q0 175 89.5 292.5t252.5 153.5v186h200v-186q36 -10 71 -30q32 -17 65 -46v45h151v-250h-174q-49 48 -103 72.5t-112 24.5q-104 0 -175 -75t-71 -185q0 -118 74.5 -198.5t181.5 -80.5q59 0 109.5 21.5t89.5 64.5h215q-39 -107 -120 -179.5t-202 -103.5v-202h-200 v202q-165 51 -253.5 174t-88.5 300z" />
<glyph unicode="&#xa3;" d="M72 662v188h108q-22 53 -33 98q-4 20 -7 45.5t-3 46.5q0 188 132.5 316.5t328.5 128.5q85 0 154 -27.5t120 -83.5v82h183v-342h-209q-39 90 -98 133t-142 43q-115 0 -188.5 -72.5t-73.5 -185.5q0 -41 12 -86.5t39 -95.5h449v-188h-320q40 -75 58 -135.5t18 -116.5 q0 -64 -17.5 -118t-56.5 -102h101q138 0 205 53.5t67 162.5q0 26 -6 56q-2 14 -5.5 28.5t-10.5 31.5h210l10 -64l3 -52q0 -87 -33 -165.5t-94 -138.5q-57 -54 -137 -78t-281 -24h-465v197h225q42 42 63 90.5t21 107.5q0 66 -23 126t-85 141h-219z" />
<glyph unicode="&#xa4;" horiz-adv-x="1241" d="M76 432l203 205q-39 53 -60 115q-10 32 -15 63.5t-5 69.5q0 39 4 67t16 64q20 63 60 117l-203 204l92 93l203 -203q53 40 116 61t134 21q69 0 133.5 -20.5t117.5 -61.5l203 203l94 -93l-204 -204q19 -26 33.5 -54.5t25.5 -62.5q20 -63 20 -131q0 -39 -4 -68t-16 -65 q-20 -63 -59 -115l204 -205l-94 -92l-203 205q-55 -40 -117.5 -61t-131.5 -21q-75 0 -137.5 21t-114.5 61l-203 -205zM332 885q0 -119 84 -204t207 -85q119 0 204.5 84.5t85.5 204.5q0 119 -85 205t-205 86t-205.5 -86.5t-85.5 -204.5z" />
<glyph unicode="&#xa5;" horiz-adv-x="1319" d="M25 1266v190h553v-190h-152l238 -527l237 527h-164v190h551v-190h-168l-116 -246h264v-123h-324l-115 -238h439v-122h-506v-342h170v-195h-551v195h170v342h-500v122h438l-112 238h-326v123h262l-116 246h-172z" />
<glyph unicode="&#xa6;" horiz-adv-x="1024" d="M424 -350v758h178v-758h-178zM424 674v758h178v-758h-178z" />
<glyph unicode="&#xa7;" d="M137 770q0 105 65 176t187 96q-28 60 -39.5 101.5t-11.5 77.5q0 108 78.5 171.5t218.5 63.5h289v-317h-152v174h-106q-89 0 -129 -26q-41 -24 -41 -79q0 -37 24.5 -80.5t79.5 -97.5l324 -328q52 -52 82 -119.5t30 -136.5q0 -97 -57.5 -167.5t-157.5 -94.5 q33 -56 51.5 -108.5t18.5 -93.5q0 -125 -85.5 -180.5t-283.5 -55.5h-250v330h150v-176h131q100 0 134 19t34 65q0 58 -121 180l-39 41l-289 297q-80 82 -107.5 139.5t-27.5 128.5zM311 772q0 -22 7.5 -43t24.5 -48q33 -48 144 -165q108 -112 166 -151t107 -39t78.5 32.5 t29.5 83.5q0 65 -111 187l-5 5q-138 148 -207.5 201.5t-116.5 53.5q-51 0 -84 -33t-33 -84z" />
<glyph unicode="&#xa8;" horiz-adv-x="1024" d="M242 1307v209h184v-209h-184zM598 1307v209h184v-209h-184z" />
<glyph unicode="&#xa9;" horiz-adv-x="1706" d="M113 731q0 143 57 279.5t162.5 243t236.5 161.5t283 55t286 -54.5t239.5 -161t160.5 -240.5t55 -283q0 -154 -55 -286q-27 -66 -66.5 -124.5t-91.5 -109.5q-107 -105 -243.5 -163t-284.5 -58q-76 0 -143 13t-137 43q-134 57 -240 162t-162.5 241t-56.5 282zM223 731 q0 -126 48 -240.5t138 -203.5t204.5 -138t240.5 -49q124 0 238 47.5t211 141.5q89 88 135.5 201t46.5 241q0 131 -46.5 244t-135.5 202.5t-204.5 137t-244.5 47.5q-131 0 -243 -46t-201 -136.5t-138 -207t-49 -241.5zM457 725q0 207 109.5 331t291.5 124q148 0 243 -77 q49 -39 77 -89.5t28 -110.5h-166q-9 74 -60 114q-25 20 -56.5 30t-73.5 10q-98 0 -154.5 -86.5t-56.5 -239.5q0 -151 57.5 -234t163.5 -83q80 0 128.5 43.5t60.5 124.5h165q0 -65 -27.5 -120t-79.5 -97q-100 -82 -253 -82q-183 0 -290 119t-107 323z" />
<glyph unicode="&#xaa;" horiz-adv-x="1087" d="M49 1067q0 78 32.5 153t96.5 136q61 56 139 85t170 29q89 0 157.5 -26.5t119.5 -83.5v96h264v-133h-115v-510h115v-133h-262v98q-52 -55 -125.5 -84.5t-161.5 -29.5t-162 28q-39 15 -72 35t-67 51q-64 61 -96.5 134.5t-32.5 154.5zM207 1067q0 -112 81 -191t197 -79 q123 0 202 76.5t79 193.5t-79 193.5t-202 76.5q-115 0 -196.5 -78.5t-81.5 -191.5z" />
<glyph unicode="&#xab;" horiz-adv-x="981" d="M217 467v170l227 268v-246l-96 -106l96 -104v-248zM537 467v170l227 268v-246l-94 -106l94 -104v-248z" />
<glyph unicode="&#xac;" horiz-adv-x="1706" d="M254 696v166h1198v-502h-166v336h-1032z" />
<glyph unicode="&#xad;" horiz-adv-x="678" d="M90 461v184h498v-184h-498z" />
<glyph unicode="&#xae;" horiz-adv-x="1706" d="M113 731q0 146 57 283t166 246q103 103 234.5 156.5t281.5 53.5q155 0 288 -55.5t242 -165.5q101 -103 156 -236t55 -282q0 -154 -55.5 -288t-161.5 -236.5t-242.5 -159.5t-281.5 -57q-146 0 -282 57t-241.5 164t-160.5 241t-55 279zM223 731q0 -65 11 -122t36 -117 q46 -112 135 -201.5t205 -140t234 -50.5q131 0 247 47t209 138q87 84 136 197.5t49 238.5q0 133 -45.5 247t-136 205t-205.5 140t-244 49q-130 0 -240.5 -45.5t-200.5 -136t-140 -208.5t-50 -241zM551 330v829h319q172 0 261.5 -57t89.5 -168q0 -89 -48 -149.5t-137 -79.5 l185 -375h-199l-164 346h-129v-346h-178zM729 786h117q98 0 145 30.5t47 96.5q0 68 -48 101t-152 33h-109v-261z" />
<glyph unicode="&#xaf;" horiz-adv-x="1024" d="M242 1341v140h540v-140h-540z" />
<glyph unicode="&#xb0;" horiz-adv-x="674" d="M43 1163q0 125 86 211t209 86q119 0 207 -87t88 -210q0 -119 -87 -207t-210 -88t-208 86t-85 209zM152 1165q0 -74 54.5 -130t131.5 -56q76 0 130 54t54 132q0 75 -53.5 130t-130.5 55q-76 0 -131 -54t-55 -131z" />
<glyph unicode="&#xb1;" horiz-adv-x="1706" d="M254 14v168h1198v-168h-1198zM254 707v165h514v334h170v-334h514v-165h-514v-334h-170v334h-514z" />
<glyph unicode="&#xb2;" horiz-adv-x="774" d="M66 582v120l378 334q50 44 72.5 81.5t22.5 76.5q0 69 -49 114.5t-123 45.5q-79 0 -124.5 -47t-45.5 -129v-11h-131q0 138 84.5 222t224.5 84q126 0 214.5 -79.5t88.5 -193.5q0 -63 -32.5 -118t-108.5 -124l-297 -256h309v144h125v-264h-608z" />
<glyph unicode="&#xb3;" horiz-adv-x="774" d="M70 850h130q0 -71 49.5 -119.5t123.5 -48.5q78 0 132 48t54 122q0 80 -54.5 125t-156.5 45h-33l1 119l12 -2h20q72 0 108 27t36 83q0 45 -31.5 76t-77.5 31q-54 0 -84 -27.5t-35 -78.5l-124 -1q0 100 70 162t177 62q100 0 169 -64t69 -154q0 -50 -23.5 -91t-71.5 -70 q77 -27 118.5 -89t41.5 -151q0 -127 -86 -208t-223 -81q-142 0 -226 75q-42 39 -63.5 91t-21.5 119z" />
<glyph unicode="&#xb4;" horiz-adv-x="1024" d="M369 1247l204 350h201l-285 -350h-120z" />
<glyph unicode="&#xb5;" horiz-adv-x="1208" d="M-92 -430l297 1511h229l-125 -635l-9 -55l-3 -49q0 -97 46.5 -147t135.5 -50q121 0 193 88t112 293l109 555h225l-145 -739l-15 -82l-4 -51q0 -36 15 -51t53 -15h20q9 0 14 2l-32 -159q-28 -8 -69 -13l-81 -4q-74 0 -111.5 31.5t-37.5 93.5v15q-40 -66 -108 -104 t-146 -38q-42 0 -75.5 6t-62.5 20q-56 26 -97 83l-99 -506h-229z" />
<glyph unicode="&#xb6;" horiz-adv-x="1024" d="M55 1130q0 158 107 253.5t284 95.5h523v-99h-117v-1380h-129v1380h-168v-1380h-131v784q-83 0 -149.5 25.5t-119.5 75.5q-100 95 -100 245z" />
<glyph unicode="&#xb8;" horiz-adv-x="1024" d="M293 -326q73 -17 142.5 -28t105.5 -11q59 0 88.5 20.5t29.5 61.5q0 43 -32 64.5t-101 21.5h-32l-21 -1v198h78v-102h29q108 0 165.5 -45.5t57.5 -135.5t-65.5 -139t-186.5 -49q-48 0 -114.5 11t-143.5 34v100z" />
<glyph unicode="&#xb9;" horiz-adv-x="772" d="M168 1352v104h309v-760h113v-114h-367v114h113v656h-168z" />
<glyph unicode="&#xba;" horiz-adv-x="973" d="M49 1067q0 78 32.5 153t95.5 133.5t143 90.5q40 15 81 23t86 8q90 0 168 -30.5t140.5 -88.5t95.5 -132.5t33 -156.5q0 -81 -32 -155t-94.5 -132t-144.5 -90q-39 -15 -80 -23t-86 -8q-86 0 -164.5 30.5t-142.5 89t-97.5 133.5t-33.5 155zM207 1067q0 -112 81 -191t199 -79 q114 0 196.5 78.5t82.5 191.5q0 112 -82 191t-197 79q-117 0 -198.5 -78.5t-81.5 -191.5z" />
<glyph unicode="&#xbb;" horiz-adv-x="981" d="M236 201v248l94 104l-94 106v246l227 -268v-170zM555 201v248l96 104l-96 106v246l227 -268v-170z" />
<glyph unicode="&#xbc;" horiz-adv-x="1819" d="M162 1360v96h295v-706h106v-109h-348v109h107v610h-160zM395 -29l897 1514h127l-895 -1514h-129zM1120 205v86l418 524h123v-510h100v-100h-100v-99h100v-106h-342v106h119v99h-418zM1276 305h262l8 371z" />
<glyph unicode="&#xbd;" horiz-adv-x="1819" d="M162 1360v96h295v-706h106v-109h-348v109h107v610h-160zM395 -29l897 1514h127l-895 -1514h-129zM1143 0v113l360 311q49 42 69.5 76t20.5 71q0 64 -46 107t-117 43q-75 0 -118.5 -43.5t-43.5 -120.5v-10h-125q0 130 81 207t214 77q121 0 204.5 -74t83.5 -179 q0 -59 -30.5 -111.5t-104.5 -114.5l-282 -239h295v133h118v-246h-579z" />
<glyph unicode="&#xbe;" horiz-adv-x="1819" d="M68 891h122q0 -33 13 -61.5t37 -51.5q48 -43 116 -43q76 0 126 45t50 113q0 76 -52.5 118t-145.5 42l-21 -1l-12 -1v112q8 0 12 -2h21q66 0 100.5 26t34.5 77q0 41 -29.5 70.5t-74.5 29.5q-48 0 -80 -27q-16 -14 -24.5 -32t-8.5 -41h-119q0 92 65.5 150.5t170.5 58.5 q93 0 160 -59.5t67 -143.5q0 -49 -21 -85t-67 -67q71 -25 111 -83t40 -140q0 -119 -82 -194.5t-212 -75.5q-137 0 -216 70q-40 35 -60.5 83.5t-20.5 112.5zM395 -29l897 1514h127l-895 -1514h-129zM1120 205v86l418 524h123v-510h100v-100h-100v-99h100v-106h-342v106h119 v99h-418zM1276 305h262l8 371z" />
<glyph unicode="&#xbf;" horiz-adv-x="995" d="M88 397q0 171 175 353l11 12q90 92 120 159q15 34 24.5 75.5t9.5 82.5h203q0 -103 -35.5 -199t-106.5 -180q-11 -14 -27.5 -31.5t-41.5 -42.5q-121 -121 -121 -227q0 -105 66 -169t172 -64q98 0 159 68q31 35 47.5 79.5t16.5 101.5l198 1q0 -97 -31.5 -176.5 t-95.5 -143.5q-123 -125 -309 -125q-187 0 -310.5 122t-123.5 304zM434 1223v233h197v-233h-197z" />
<glyph unicode="&#xc0;" horiz-adv-x="1430" d="M-51 0v195h170l422 1071h-170v190h446l490 -1261h172v-195h-553v195h153l-84 229h-565l-90 -229h160v-195h-551zM422 1943h201l204 -350h-120zM506 629h414l-207 553z" />
<glyph unicode="&#xc1;" horiz-adv-x="1430" d="M-51 0v195h170l422 1071h-170v190h446l490 -1261h172v-195h-553v195h153l-84 229h-565l-90 -229h160v-195h-551zM506 629h414l-207 553zM541 1593l204 350h201l-285 -350h-120z" />
<glyph unicode="&#xc2;" horiz-adv-x="1430" d="M-51 0v195h170l422 1071h-170v190h446l490 -1261h172v-195h-553v195h153l-84 229h-565l-90 -229h160v-195h-551zM389 1593l197 350h196l197 -350h-123l-172 230l-174 -230h-121zM506 629h414l-207 553z" />
<glyph unicode="&#xc3;" horiz-adv-x="1430" d="M-51 0v195h170l422 1071h-170v190h446l490 -1261h172v-195h-553v195h153l-84 229h-565l-90 -229h160v-195h-551zM391 1638q18 100 68 153.5t125 53.5q21 0 32 -2l27 -6l99 -29l28 -6l25 -2q34 0 56.5 17.5t37.5 54.5h88q-19 -101 -69.5 -154t-127.5 -53h-12q-6 0 -22 2 l-31 6l-97 29l-26 6l-23 2q-29 0 -52 -17.5t-38 -54.5h-88zM506 629h414l-207 553z" />
<glyph unicode="&#xc4;" horiz-adv-x="1430" d="M-51 0v195h170l422 1071h-170v190h446l490 -1261h172v-195h-553v195h153l-84 229h-565l-90 -229h160v-195h-551zM414 1653v209h184v-209h-184zM506 629h414l-207 553zM770 1653v209h184v-209h-184z" />
<glyph unicode="&#xc5;" horiz-adv-x="1430" d="M-51 0v195h170l422 1071h-170v190h446l490 -1261h172v-195h-553v195h153l-84 229h-565l-90 -229h160v-195h-551zM471 1749q0 93 66 158t159 65q95 0 159.5 -64t64.5 -159q0 -96 -64.5 -160.5t-159.5 -64.5t-160 65t-65 160zM506 629h414l-207 553zM575 1747 q0 -50 35.5 -84.5t85.5 -34.5t84.5 34.5t34.5 84.5q0 49 -35 85t-84 36q-48 0 -84.5 -35.5t-36.5 -85.5z" />
<glyph unicode="&#xc6;" horiz-adv-x="1876" d="M-86 0v195h170l598 1071h-170v190h1235v-432h-170v242h-432v-439h432v-190h-432v-442h432v237h170v-432h-811v406h-504l-115 -211h148v-195h-551zM545 606h391v656h-35z" />
<glyph unicode="&#xc7;" horiz-adv-x="1526" d="M74 737q0 151 57.5 288.5t169.5 248.5q104 104 234.5 157.5t277.5 53.5q126 0 230.5 -32t197.5 -101v104h176v-369h-209q-72 95 -171 141q-48 22 -104.5 34t-119.5 12q-101 0 -194 -39t-166 -113q-76 -78 -119 -180t-43 -207q0 -58 9 -110t29 -105q38 -99 112 -176.5 t172 -120.5q49 -21 98.5 -32t101.5 -11q123 0 222 45.5t169 134.5h258q-105 -195 -268 -292q-77 -46 -160.5 -71t-179.5 -25v-74h29q108 0 165.5 -45.5t57.5 -135.5t-65.5 -139t-186.5 -49q-48 0 -114.5 11t-143.5 34v100q73 -17 142.5 -28t105.5 -11q59 0 88.5 20.5 t29.5 61.5q0 43 -32 64.5t-101 21.5h-32l-21 -1v170q-67 0 -132.5 16t-132.5 46q-139 63 -249 187q-90 100 -139 233t-49 283z" />
<glyph unicode="&#xc8;" horiz-adv-x="1229" d="M78 0v195h170v1071h-170v190h1036v-432h-170v242h-485v-439h483v-190h-483v-442h485v237h170v-432h-1036zM369 1943h201l204 -350h-120z" />
<glyph unicode="&#xc9;" horiz-adv-x="1229" d="M78 0v195h170v1071h-170v190h1036v-432h-170v242h-485v-439h483v-190h-483v-442h485v237h170v-432h-1036zM488 1593l204 350h201l-285 -350h-120z" />
<glyph unicode="&#xca;" horiz-adv-x="1229" d="M78 0v195h170v1071h-170v190h1036v-432h-170v242h-485v-439h483v-190h-483v-442h485v237h170v-432h-1036zM336 1593l197 350h196l197 -350h-123l-172 230l-174 -230h-121z" />
<glyph unicode="&#xcb;" horiz-adv-x="1229" d="M78 0v195h170v1071h-170v190h1036v-432h-170v242h-485v-439h483v-190h-483v-442h485v237h170v-432h-1036zM361 1653v209h184v-209h-184zM717 1653v209h184v-209h-184z" />
<glyph unicode="&#xcc;" horiz-adv-x="711" d="M80 0v195h170v1071h-170v190h551v-190h-170v-1071h170v-195h-551zM94 1943h201l204 -350h-120z" />
<glyph unicode="&#xcd;" horiz-adv-x="711" d="M80 0v195h170v1071h-170v190h551v-190h-170v-1071h170v-195h-551zM213 1593l204 350h201l-285 -350h-120z" />
<glyph unicode="&#xce;" horiz-adv-x="711" d="M61 1593l197 350h196l197 -350h-123l-172 230l-174 -230h-121zM80 0v195h170v1071h-170v190h551v-190h-170v-1071h170v-195h-551z" />
<glyph unicode="&#xcf;" horiz-adv-x="711" d="M80 0v195h170v1071h-170v190h551v-190h-170v-1071h170v-195h-551zM86 1653v209h184v-209h-184zM442 1653v209h184v-209h-184z" />
<glyph unicode="&#xd0;" horiz-adv-x="1616" d="M70 737q0 151 57.5 288.5t169.5 248.5q105 103 235 157t279 54q126 0 230.5 -32t197.5 -101v104h176v-369h-211q-71 92 -171.5 139.5t-223.5 47.5q-101 0 -194 -39t-167 -114t-116.5 -177.5t-42.5 -208.5q0 -117 38 -217t109 -174q75 -78 173 -121q49 -21 98.5 -32 t101.5 -11q166 0 292 88t210 262h-658v205h871v-735h-197v221q-89 -124 -218 -187t-296 -63q-65 0 -120.5 8t-114.5 27q-109 36 -201 105q-149 112 -228 274t-79 352zM518 1909l109 -3q0 -66 48 -104q44 -33 134 -33q92 0 134 32q22 17 35 44t13 61l109 1 q0 -68 -21.5 -121.5t-59.5 -90.5q-70 -67 -210 -67q-139 0 -210 68q-37 37 -59 90t-22 123z" />
<glyph unicode="&#xd1;" horiz-adv-x="1612" d="M76 0v195h170v1071h-170v190h385l710 -1096v906h-172v190h551v-190h-170v-1266h-206l-719 1130v-935h172v-195h-551zM514 1638q18 100 68 153.5t125 53.5q21 0 32 -2l27 -6l99 -29l28 -6l25 -2q34 0 56.5 17.5t37.5 54.5h88q-19 -101 -69.5 -154t-127.5 -53h-12 q-6 0 -22 2l-31 6l-97 29l-26 6l-23 2q-29 0 -52 -17.5t-38 -54.5h-88z" />
<glyph unicode="&#xd2;" horiz-adv-x="1630" d="M72 737q0 153 57.5 289.5t169.5 247.5q104 104 234.5 157.5t277.5 53.5q153 0 284 -53t240.5 -160t166.5 -243t57 -292q0 -155 -48.5 -285t-144.5 -235q-112 -121 -252 -183.5t-303 -62.5q-161 0 -301 63t-250 187q-90 100 -139 233t-49 283zM289 735q0 -58 9 -110 t29 -105q38 -99 112 -176.5t172 -120.5q49 -21 98.5 -32t101.5 -11q225 0 377.5 160.5t152.5 398.5q0 99 -36 190t-109 171q-84 90 -178.5 133t-206.5 43q-103 0 -195.5 -39.5t-166.5 -116t-117 -178.5t-43 -207zM553 1943h201l204 -350h-120z" />
<glyph unicode="&#xd3;" horiz-adv-x="1630" d="M72 737q0 153 57.5 289.5t169.5 247.5q104 104 234.5 157.5t277.5 53.5q153 0 284 -53t240.5 -160t166.5 -243t57 -292q0 -155 -48.5 -285t-144.5 -235q-112 -121 -252 -183.5t-303 -62.5q-161 0 -301 63t-250 187q-90 100 -139 233t-49 283zM289 735q0 -58 9 -110 t29 -105q38 -99 112 -176.5t172 -120.5q49 -21 98.5 -32t101.5 -11q225 0 377.5 160.5t152.5 398.5q0 99 -36 190t-109 171q-84 90 -178.5 133t-206.5 43q-103 0 -195.5 -39.5t-166.5 -116t-117 -178.5t-43 -207zM672 1593l204 350h201l-285 -350h-120z" />
<glyph unicode="&#xd4;" horiz-adv-x="1630" d="M72 737q0 153 57.5 289.5t169.5 247.5q104 104 234.5 157.5t277.5 53.5q153 0 284 -53t240.5 -160t166.5 -243t57 -292q0 -155 -48.5 -285t-144.5 -235q-112 -121 -252 -183.5t-303 -62.5q-161 0 -301 63t-250 187q-90 100 -139 233t-49 283zM289 735q0 -58 9 -110 t29 -105q38 -99 112 -176.5t172 -120.5q49 -21 98.5 -32t101.5 -11q225 0 377.5 160.5t152.5 398.5q0 99 -36 190t-109 171q-84 90 -178.5 133t-206.5 43q-103 0 -195.5 -39.5t-166.5 -116t-117 -178.5t-43 -207zM520 1593l197 350h196l197 -350h-123l-172 230l-174 -230 h-121z" />
<glyph unicode="&#xd5;" horiz-adv-x="1630" d="M72 737q0 153 57.5 289.5t169.5 247.5q104 104 234.5 157.5t277.5 53.5q153 0 284 -53t240.5 -160t166.5 -243t57 -292q0 -155 -48.5 -285t-144.5 -235q-112 -121 -252 -183.5t-303 -62.5q-161 0 -301 63t-250 187q-90 100 -139 233t-49 283zM289 735q0 -58 9 -110 t29 -105q38 -99 112 -176.5t172 -120.5q49 -21 98.5 -32t101.5 -11q225 0 377.5 160.5t152.5 398.5q0 99 -36 190t-109 171q-84 90 -178.5 133t-206.5 43q-103 0 -195.5 -39.5t-166.5 -116t-117 -178.5t-43 -207zM522 1638q18 100 68 153.5t125 53.5q21 0 32 -2l27 -6 l99 -29l28 -6l25 -2q34 0 56.5 17.5t37.5 54.5h88q-19 -101 -69.5 -154t-127.5 -53h-12q-6 0 -22 2l-31 6l-97 29l-26 6l-23 2q-29 0 -52 -17.5t-38 -54.5h-88z" />
<glyph unicode="&#xd6;" horiz-adv-x="1630" d="M72 737q0 153 57.5 289.5t169.5 247.5q104 104 234.5 157.5t277.5 53.5q153 0 284 -53t240.5 -160t166.5 -243t57 -292q0 -155 -48.5 -285t-144.5 -235q-112 -121 -252 -183.5t-303 -62.5q-161 0 -301 63t-250 187q-90 100 -139 233t-49 283zM289 735q0 -58 9 -110 t29 -105q38 -99 112 -176.5t172 -120.5q49 -21 98.5 -32t101.5 -11q225 0 377.5 160.5t152.5 398.5q0 99 -36 190t-109 171q-84 90 -178.5 133t-206.5 43q-103 0 -195.5 -39.5t-166.5 -116t-117 -178.5t-43 -207zM545 1653v209h184v-209h-184zM901 1653v209h184v-209h-184z " />
<glyph unicode="&#xd7;" horiz-adv-x="1706" d="M287 152l458 458l-458 461l116 117l459 -459l461 459l117 -117l-459 -461l459 -458l-117 -119l-461 461l-459 -461z" />
<glyph unicode="&#xd8;" horiz-adv-x="1628" d="M20 -33l224 264q-88 114 -132 240t-44 266q0 151 57.5 288.5t169.5 248.5q104 104 233.5 156.5t280.5 52.5q116 0 219.5 -30t188.5 -89l192 221l133 -108l-192 -228q103 -104 153.5 -231t50.5 -281q0 -155 -47 -285t-143 -235q-113 -122 -256.5 -184t-312.5 -62 q-116 0 -219 33t-199 105l-223 -259zM285 719q0 -89 25 -168q12 -38 31 -77t46 -77l688 801q-63 39 -129 57q-34 9 -68 14t-71 5q-219 0 -370.5 -160.5t-151.5 -394.5zM516 272q72 -46 143 -69q35 -11 72 -17t76 -6q225 0 377.5 160.5t152.5 398.5q0 96 -33.5 184t-97.5 158 z" />
<glyph unicode="&#xd9;" horiz-adv-x="1446" d="M72 1266v190h553v-190h-168v-703q0 -223 59.5 -306t206.5 -83t207.5 76.5t60.5 279.5v736h-170v190h551v-190h-170v-734q0 -161 -14 -237t-49 -135q-56 -92 -160.5 -140.5t-247.5 -48.5q-149 0 -254.5 45.5t-161.5 137.5q-37 59 -55 134q-8 40 -12 97.5t-4 146.5v734 h-172zM461 1943h201l204 -350h-120z" />
<glyph unicode="&#xda;" horiz-adv-x="1446" d="M72 1266v190h553v-190h-168v-703q0 -223 59.5 -306t206.5 -83t207.5 76.5t60.5 279.5v736h-170v190h551v-190h-170v-734q0 -161 -14 -237t-49 -135q-56 -92 -160.5 -140.5t-247.5 -48.5q-149 0 -254.5 45.5t-161.5 137.5q-37 59 -55 134q-8 40 -12 97.5t-4 146.5v734 h-172zM580 1593l204 350h201l-285 -350h-120z" />
<glyph unicode="&#xdb;" horiz-adv-x="1446" d="M72 1266v190h553v-190h-168v-703q0 -223 59.5 -306t206.5 -83t207.5 76.5t60.5 279.5v736h-170v190h551v-190h-170v-734q0 -161 -14 -237t-49 -135q-56 -92 -160.5 -140.5t-247.5 -48.5q-149 0 -254.5 45.5t-161.5 137.5q-37 59 -55 134q-8 40 -12 97.5t-4 146.5v734 h-172zM428 1593l197 350h196l197 -350h-123l-172 230l-174 -230h-121z" />
<glyph unicode="&#xdc;" horiz-adv-x="1446" d="M72 1266v190h553v-190h-168v-703q0 -223 59.5 -306t206.5 -83t207.5 76.5t60.5 279.5v736h-170v190h551v-190h-170v-734q0 -161 -14 -237t-49 -135q-56 -92 -160.5 -140.5t-247.5 -48.5q-149 0 -254.5 45.5t-161.5 137.5q-37 59 -55 134q-8 40 -12 97.5t-4 146.5v734 h-172zM453 1653v209h184v-209h-184zM809 1653v209h184v-209h-184z" />
<glyph unicode="&#xdd;" horiz-adv-x="711" d="M80 0v195h170v1071h-170v190h551v-190h-170v-1071h170v-195h-551zM260 1646v220h192v-220h-192z" />
<glyph unicode="&#xde;" horiz-adv-x="1147" d="M100 0v430h215q0 -54 21 -97.5t61 -80.5q72 -66 187 -66q109 0 182.5 69.5t73.5 172.5q0 91 -57.5 142.5t-224.5 94.5l-57 14q-191 43 -272 124q-53 53 -80.5 122t-27.5 150q0 172 119 291t290 119q73 0 138 -24.5t137 -76.5v72h182v-362h-209q-33 97 -91 145.5 t-142 48.5q-95 0 -154 -54.5t-59 -143.5q0 -85 50 -132t194 -84l53 -13q201 -48 293 -128q66 -57 99.5 -135.5t33.5 -179.5q0 -95 -38 -180t-110 -148q-65 -56 -147 -88q-40 -15 -74.5 -22.5t-73.5 -7.5v-74h29q108 0 165.5 -45.5t57.5 -135.5t-65.5 -139t-186.5 -49 q-48 0 -114.5 11t-143.5 34v100q73 -17 142.5 -28t105.5 -11q59 0 88.5 20.5t29.5 61.5q0 43 -32 64.5t-101 21.5h-32l-21 -1v173q-51 6 -99 24q-74 27 -146 85v-84h-189z" />
<glyph unicode="&#xdf;" horiz-adv-x="1313" d="M76 0v190h160v785q0 142 16 209t55 125q57 84 150 130t205 46q187 0 305 -116t118 -296q0 -88 -38 -154.5t-119 -117.5q134 -55 204 -155t70 -240q0 -188 -126.5 -309.5t-321.5 -121.5q-46 0 -79.5 6.5t-62.5 22.5v182q29 -16 61 -25q16 -3 32 -5t34 -2q106 0 181 75 t75 183q0 114 -79 190t-199 76h-82v188h14q110 0 177 58t67 151t-66.5 159t-162.5 66q-99 0 -164.5 -67t-65.5 -170v-1063h-358z" />
<glyph unicode="&#xe0;" horiz-adv-x="1450" d="M66 553q0 118 44 223t128 189t184 123q51 20 106 30t121 10q121 0 209.5 -38t159.5 -119v137h352v-188h-153v-730h153v-190h-350v139q-73 -81 -167.5 -122.5t-213.5 -41.5q-113 0 -215.5 42t-185.5 124q-43 43 -73.5 88.5t-54.5 100.5q-44 106 -44 223zM274 553 q0 -161 109 -273t264 -112q162 0 268.5 108.5t106.5 276.5t-105.5 277.5t-269.5 109.5q-155 0 -264 -113.5t-109 -273.5zM430 1597h201l204 -350h-120z" />
<glyph unicode="&#xe1;" horiz-adv-x="1450" d="M66 553q0 118 44 223t128 189t184 123q51 20 106 30t121 10q121 0 209.5 -38t159.5 -119v137h352v-188h-153v-730h153v-190h-350v139q-73 -81 -167.5 -122.5t-213.5 -41.5q-113 0 -215.5 42t-185.5 124q-43 43 -73.5 88.5t-54.5 100.5q-44 106 -44 223zM274 553 q0 -161 109 -273t264 -112q162 0 268.5 108.5t106.5 276.5t-105.5 277.5t-269.5 109.5q-155 0 -264 -113.5t-109 -273.5zM549 1247l204 350h201l-285 -350h-120z" />
<glyph unicode="&#xe2;" horiz-adv-x="1450" d="M66 553q0 118 44 223t128 189t184 123q51 20 106 30t121 10q121 0 209.5 -38t159.5 -119v137h352v-188h-153v-730h153v-190h-350v139q-73 -81 -167.5 -122.5t-213.5 -41.5q-113 0 -215.5 42t-185.5 124q-43 43 -73.5 88.5t-54.5 100.5q-44 106 -44 223zM274 553 q0 -161 109 -273t264 -112q162 0 268.5 108.5t106.5 276.5t-105.5 277.5t-269.5 109.5q-155 0 -264 -113.5t-109 -273.5zM397 1247l197 350h196l197 -350h-123l-172 230l-174 -230h-121z" />
<glyph unicode="&#xe3;" horiz-adv-x="1450" d="M66 553q0 118 44 223t128 189t184 123q51 20 106 30t121 10q121 0 209.5 -38t159.5 -119v137h352v-188h-153v-730h153v-190h-350v139q-73 -81 -167.5 -122.5t-213.5 -41.5q-113 0 -215.5 42t-185.5 124q-43 43 -73.5 88.5t-54.5 100.5q-44 106 -44 223zM274 553 q0 -161 109 -273t264 -112q162 0 268.5 108.5t106.5 276.5t-105.5 277.5t-269.5 109.5q-155 0 -264 -113.5t-109 -273.5zM399 1292q18 100 68 153.5t125 53.5q21 0 32 -2l27 -6l99 -29l28 -6l25 -2q34 0 56.5 17.5t37.5 54.5h88q-19 -101 -69.5 -154t-127.5 -53h-12 q-6 0 -22 2l-31 6l-97 29l-26 6l-23 2q-29 0 -52 -17.5t-38 -54.5h-88z" />
<glyph unicode="&#xe4;" horiz-adv-x="1450" d="M66 553q0 118 44 223t128 189t184 123q51 20 106 30t121 10q121 0 209.5 -38t159.5 -119v137h352v-188h-153v-730h153v-190h-350v139q-73 -81 -167.5 -122.5t-213.5 -41.5q-113 0 -215.5 42t-185.5 124q-43 43 -73.5 88.5t-54.5 100.5q-44 106 -44 223zM274 553 q0 -161 109 -273t264 -112q162 0 268.5 108.5t106.5 276.5t-105.5 277.5t-269.5 109.5q-155 0 -264 -113.5t-109 -273.5zM422 1307v209h184v-209h-184zM778 1307v209h184v-209h-184z" />
<glyph unicode="&#xe5;" horiz-adv-x="1450" d="M66 553q0 118 44 223t128 189t184 123q51 20 106 30t121 10q121 0 209.5 -38t159.5 -119v137h352v-188h-153v-730h153v-190h-350v139q-73 -81 -167.5 -122.5t-213.5 -41.5q-113 0 -215.5 42t-185.5 124q-43 43 -73.5 88.5t-54.5 100.5q-44 106 -44 223zM274 553 q0 -161 109 -273t264 -112q162 0 268.5 108.5t106.5 276.5t-105.5 277.5t-269.5 109.5q-155 0 -264 -113.5t-109 -273.5zM465 1452q0 106 74 180t180 74q105 0 178.5 -74t73.5 -180q0 -105 -73 -178.5t-179 -73.5q-107 0 -180.5 73t-73.5 179zM582 1452q0 -56 39.5 -95.5 t97.5 -39.5q54 0 94.5 39.5t40.5 95.5t-39.5 96.5t-95.5 40.5q-57 0 -97 -40t-40 -97z" />
<glyph unicode="&#xe6;" horiz-adv-x="2230" d="M66 553q0 119 44 223.5t128 188t187 126.5q51 22 103.5 33t110.5 11q126 0 221 -49.5t172 -155.5l-14 174h192l-14 -174q77 103 171 154t214 51q146 0 273 -68t210 -190q48 -71 73.5 -155.5t25.5 -170.5l-4 -70v-6h-945q33 -139 133.5 -223t233.5 -84q99 0 180 47 t142 137h227q-74 -183 -214 -280t-335 -97q-126 0 -224.5 51t-168.5 154l14 -180h-194l16 180q-68 -102 -164 -153.5t-221 -51.5q-113 0 -215.5 42t-185.5 124q-43 43 -73.5 88.5t-54.5 100.5q-44 106 -44 223zM274 553q0 -161 109 -273t264 -112q162 0 268.5 108.5 t106.5 276.5t-105.5 277.5t-269.5 109.5q-155 0 -264 -113.5t-109 -273.5zM1217 651h725q-39 134 -136 211.5t-225 77.5q-136 0 -230 -74t-134 -215z" />
<glyph unicode="&#xe7;" horiz-adv-x="1253" d="M66 553q0 118 44 223t128.5 188.5t191.5 127t227 43.5q56 0 104 -9t92 -29q84 -35 140 -108v119h178v-371h-188q-60 99 -145.5 151t-188.5 52q-155 0 -265 -113t-110 -274t109.5 -273t265.5 -112q104 0 188.5 52.5t141.5 150.5h223q-57 -178 -211 -290q-72 -52 -139 -78 q-76 -30 -154 -30v-75h29q108 0 165.5 -45.5t57.5 -135.5t-65.5 -139t-186.5 -49q-48 0 -114.5 11t-143.5 34v100q73 -17 142.5 -28t105.5 -11q59 0 88.5 20.5t29.5 61.5q0 43 -32 64.5t-101 21.5h-32l-21 -1v170q-51 0 -96 10.5t-98 32.5q-103 43 -187 126t-128.5 189.5 t-44.5 222.5z" />
<glyph unicode="&#xe8;" horiz-adv-x="1296" d="M66 553q0 118 44 223t127 188t189 127t223 44q148 0 274 -67.5t210 -190.5q48 -72 72 -152.5t24 -169.5l-1 -31l-4 -49h-943q33 -139 134 -223t234 -84q97 0 178 47t142 137h227q-69 -176 -215.5 -278.5t-331.5 -102.5q-119 0 -222.5 43.5t-187.5 126.5t-128.5 189.5 t-44.5 222.5zM289 662h719q-37 126 -134 202t-225 76q-127 0 -221.5 -72.5t-138.5 -205.5zM408 1597h201l204 -350h-120z" />
<glyph unicode="&#xe9;" horiz-adv-x="1296" d="M66 553q0 118 44 223t127 188t189 127t223 44q148 0 274 -67.5t210 -190.5q48 -72 72 -152.5t24 -169.5l-1 -31l-4 -49h-943q33 -139 134 -223t234 -84q97 0 178 47t142 137h227q-69 -176 -215.5 -278.5t-331.5 -102.5q-119 0 -222.5 43.5t-187.5 126.5t-128.5 189.5 t-44.5 222.5zM289 662h719q-37 126 -134 202t-225 76q-127 0 -221.5 -72.5t-138.5 -205.5zM527 1247l204 350h201l-285 -350h-120z" />
<glyph unicode="&#xea;" horiz-adv-x="1296" d="M66 553q0 118 44 223t127 188t189 127t223 44q148 0 274 -67.5t210 -190.5q48 -72 72 -152.5t24 -169.5l-1 -31l-4 -49h-943q33 -139 134 -223t234 -84q97 0 178 47t142 137h227q-69 -176 -215.5 -278.5t-331.5 -102.5q-119 0 -222.5 43.5t-187.5 126.5t-128.5 189.5 t-44.5 222.5zM289 662h719q-37 126 -134 202t-225 76q-127 0 -221.5 -72.5t-138.5 -205.5zM375 1247l197 350h196l197 -350h-123l-172 230l-174 -230h-121z" />
<glyph unicode="&#xeb;" horiz-adv-x="1296" d="M66 553q0 118 44 223t127 188t189 127t223 44q148 0 274 -67.5t210 -190.5q48 -72 72 -152.5t24 -169.5l-1 -31l-4 -49h-943q33 -139 134 -223t234 -84q97 0 178 47t142 137h227q-69 -176 -215.5 -278.5t-331.5 -102.5q-119 0 -222.5 43.5t-187.5 126.5t-128.5 189.5 t-44.5 222.5zM289 662h719q-37 126 -134 202t-225 76q-127 0 -221.5 -72.5t-138.5 -205.5zM400 1307v209h184v-209h-184zM756 1307v209h184v-209h-184z" />
<glyph unicode="&#xec;" horiz-adv-x="653" d="M39 1597h201l204 -350h-120zM76 0v190h160v730h-156v188h354v-918h152v-190h-510z" />
<glyph unicode="&#xed;" horiz-adv-x="653" d="M76 0v190h160v730h-156v188h354v-918h152v-190h-510zM158 1247l204 350h201l-285 -350h-120z" />
<glyph unicode="&#xee;" horiz-adv-x="653" d="M6 1247l197 350h196l197 -350h-123l-172 230l-174 -230h-121zM76 0v190h160v730h-156v188h354v-918h152v-190h-510z" />
<glyph unicode="&#xef;" horiz-adv-x="653" d="M31 1307v209h184v-209h-184zM76 0v190h160v730h-156v188h354v-918h152v-190h-510zM387 1307v209h184v-209h-184z" />
<glyph unicode="&#xf0;" horiz-adv-x="1436" d="M66 553q0 119 44 223.5t127.5 187t185 124.5t216.5 42q122 0 214 -38t165 -121v137h352v-188h-153v-703q0 -179 -32.5 -274t-107.5 -172q-80 -83 -190 -124.5t-246 -41.5q-194 0 -321.5 80t-200.5 254h241q38 -69 108 -104.5t173 -35.5q161 0 262 91q54 48 82.5 107.5 t28.5 135.5q-34 -37 -76.5 -67.5t-88.5 -51.5q-93 -39 -210 -39q-113 0 -215.5 42t-185.5 124q-43 43 -73.5 88.5t-54.5 100.5q-44 106 -44 223zM274 553q0 -161 109 -273t264 -112q162 0 268.5 108.5t106.5 276.5t-105.5 277.5t-269.5 109.5q-155 0 -264 -113.5 t-109 -273.5zM428 1563l109 -3q0 -66 48 -104q44 -33 134 -33q92 0 134 32q22 17 35 44t13 61l109 1q0 -68 -21.5 -121.5t-59.5 -90.5q-70 -67 -210 -67q-139 0 -210 68q-37 37 -59 90t-22 123z" />
<glyph unicode="&#xf1;" horiz-adv-x="1395" d="M76 0v190h160v730h-156v188h346v-160q52 89 134 133.5t194 44.5q90 0 168 -30t137 -88q70 -70 99.5 -152.5t29.5 -226.5v-439h158v-190h-508v190h151v381q0 202 -60.5 283.5t-207.5 81.5q-139 0 -213 -95t-74 -274v-377h152v-190h-510zM405 1292q18 100 68 153.5 t125 53.5q21 0 32 -2l27 -6l99 -29l28 -6l25 -2q34 0 56.5 17.5t37.5 54.5h88q-19 -101 -69.5 -154t-127.5 -53h-12q-6 0 -22 2l-31 6l-97 29l-26 6l-23 2q-29 0 -52 -17.5t-38 -54.5h-88z" />
<glyph unicode="&#xf2;" horiz-adv-x="1296" d="M66 553q0 118 44 223t127 188t189 127t223 44q119 0 223.5 -43.5t188 -126t127 -189t43.5 -223.5q0 -118 -42.5 -222.5t-126.5 -187.5t-190 -127.5t-223 -44.5q-119 0 -222.5 43.5t-187.5 126.5t-128.5 189.5t-44.5 222.5zM274 553q0 -162 109.5 -274.5t265.5 -112.5 q155 0 264 113.5t109 273.5q0 161 -108.5 274t-264.5 113t-265.5 -112.5t-109.5 -274.5zM387 1597h201l204 -350h-120z" />
<glyph unicode="&#xf3;" horiz-adv-x="1296" d="M66 553q0 118 44 223t127 188t189 127t223 44q119 0 223.5 -43.5t188 -126t127 -189t43.5 -223.5q0 -118 -42.5 -222.5t-126.5 -187.5t-190 -127.5t-223 -44.5q-119 0 -222.5 43.5t-187.5 126.5t-128.5 189.5t-44.5 222.5zM274 553q0 -162 109.5 -274.5t265.5 -112.5 q155 0 264 113.5t109 273.5q0 161 -108.5 274t-264.5 113t-265.5 -112.5t-109.5 -274.5zM506 1247l204 350h201l-285 -350h-120z" />
<glyph unicode="&#xf4;" horiz-adv-x="1296" d="M66 553q0 118 44 223t127 188t189 127t223 44q119 0 223.5 -43.5t188 -126t127 -189t43.5 -223.5q0 -118 -42.5 -222.5t-126.5 -187.5t-190 -127.5t-223 -44.5q-119 0 -222.5 43.5t-187.5 126.5t-128.5 189.5t-44.5 222.5zM274 553q0 -162 109.5 -274.5t265.5 -112.5 q155 0 264 113.5t109 273.5q0 161 -108.5 274t-264.5 113t-265.5 -112.5t-109.5 -274.5zM354 1247l197 350h196l197 -350h-123l-172 230l-174 -230h-121z" />
<glyph unicode="&#xf5;" horiz-adv-x="1296" d="M66 553q0 118 44 223t127 188t189 127t223 44q119 0 223.5 -43.5t188 -126t127 -189t43.5 -223.5q0 -118 -42.5 -222.5t-126.5 -187.5t-190 -127.5t-223 -44.5q-119 0 -222.5 43.5t-187.5 126.5t-128.5 189.5t-44.5 222.5zM274 553q0 -162 109.5 -274.5t265.5 -112.5 q155 0 264 113.5t109 273.5q0 161 -108.5 274t-264.5 113t-265.5 -112.5t-109.5 -274.5zM356 1292q18 100 68 153.5t125 53.5q21 0 32 -2l27 -6l99 -29l28 -6l25 -2q34 0 56.5 17.5t37.5 54.5h88q-19 -101 -69.5 -154t-127.5 -53h-12q-6 0 -22 2l-31 6l-97 29l-26 6l-23 2 q-29 0 -52 -17.5t-38 -54.5h-88z" />
<glyph unicode="&#xf6;" horiz-adv-x="1296" d="M66 553q0 118 44 223t127 188t189 127t223 44q119 0 223.5 -43.5t188 -126t127 -189t43.5 -223.5q0 -118 -42.5 -222.5t-126.5 -187.5t-190 -127.5t-223 -44.5q-119 0 -222.5 43.5t-187.5 126.5t-128.5 189.5t-44.5 222.5zM274 553q0 -162 109.5 -274.5t265.5 -112.5 q155 0 264 113.5t109 273.5q0 161 -108.5 274t-264.5 113t-265.5 -112.5t-109.5 -274.5zM379 1307v209h184v-209h-184zM735 1307v209h184v-209h-184z" />
<glyph unicode="&#xf7;" horiz-adv-x="1706" d="M254 528v166h1198v-166h-1198zM717 229q0 57 40.5 97.5t96.5 40.5q57 0 97 -40.5t40 -97.5q0 -56 -39.5 -95.5t-97.5 -39.5q-56 0 -96.5 39t-40.5 96zM717 989q0 57 40.5 98t96.5 41q57 0 97 -41.5t40 -97.5t-39.5 -95.5t-97.5 -39.5q-56 0 -96.5 39t-40.5 96z" />
<glyph unicode="&#xf8;" horiz-adv-x="1296" d="M66 553q0 118 43 222t129 190q81 82 188 127t227 45q74 0 144 -18.5t139 -57.5l94 127h176l-157 -213q89 -85 136 -192q22 -52 34 -109.5t12 -120.5q0 -118 -42.5 -222.5t-126 -188t-192.5 -128.5q-53 -21 -110 -32t-119 -11q-73 0 -142 18.5t-137 55.5l-102 -139h-176 l166 225q-92 90 -138 196.5t-46 225.5zM266 555q0 -74 25.5 -141t75.5 -125l454 614q-43 22 -87.5 33.5t-84.5 11.5q-159 0 -271 -115q-56 -58 -84 -126.5t-28 -151.5zM477 201q37 -20 81 -31q19 -4 42.5 -7t44.5 -3q160 0 272.5 114.5t112.5 276.5q0 75 -24.5 141.5 t-73.5 122.5z" />
<glyph unicode="&#xf9;" horiz-adv-x="1380" d="M47 918v188h359v-571q0 -202 60.5 -283.5t207.5 -81.5q139 0 213 95t74 274v379h-152v188h350v-920h154v-186h-346v158q-53 -88 -135 -133t-193 -45q-88 0 -167.5 30t-135.5 88q-70 70 -99.5 152.5t-29.5 226.5v441h-160zM383 1597h201l204 -350h-120z" />
<glyph unicode="&#xfa;" horiz-adv-x="1380" d="M47 918v188h359v-571q0 -202 60.5 -283.5t207.5 -81.5q139 0 213 95t74 274v379h-152v188h350v-920h154v-186h-346v158q-53 -88 -135 -133t-193 -45q-88 0 -167.5 30t-135.5 88q-70 70 -99.5 152.5t-29.5 226.5v441h-160zM502 1247l204 350h201l-285 -350h-120z" />
<glyph unicode="&#xfb;" horiz-adv-x="1380" d="M47 918v188h359v-571q0 -202 60.5 -283.5t207.5 -81.5q139 0 213 95t74 274v379h-152v188h350v-920h154v-186h-346v158q-53 -88 -135 -133t-193 -45q-88 0 -167.5 30t-135.5 88q-70 70 -99.5 152.5t-29.5 226.5v441h-160zM350 1247l197 350h196l197 -350h-123l-172 230 l-174 -230h-121z" />
<glyph unicode="&#xfc;" horiz-adv-x="1380" d="M47 918v188h359v-571q0 -202 60.5 -283.5t207.5 -81.5q139 0 213 95t74 274v379h-152v188h350v-920h154v-186h-346v158q-53 -88 -135 -133t-193 -45q-88 0 -167.5 30t-135.5 88q-70 70 -99.5 152.5t-29.5 226.5v441h-160zM375 1307v209h184v-209h-184zM731 1307v209h184 v-209h-184z" />
<glyph unicode="&#xfd;" horiz-adv-x="653" d="M76 0v190h160v730h-156v188h354v-918h152v-190h-510z" />
<glyph unicode="&#xfe;" horiz-adv-x="995" d="M100 0v358h211v-4q0 -87 53 -141.5t136 -54.5t133.5 39t50.5 108q0 66 -36.5 102t-139.5 66l-78 23q-144 41 -180 63q-71 45 -106 107.5t-35 144.5q0 139 93.5 230.5t237.5 91.5q64 0 117 -21.5t98 -64.5v61h170v-287h-192q-9 65 -53.5 103.5t-114.5 38.5 q-69 0 -113.5 -39t-44.5 -97q0 -95 194 -150q29 -8 61.5 -17.5t45.5 -14.5q153 -50 217 -125.5t64 -202.5q0 -150 -99.5 -246t-252.5 -96v-77h29q108 0 165.5 -45.5t57.5 -135.5t-65.5 -139t-186.5 -49q-48 0 -114.5 11t-143.5 34v100q73 -17 142.5 -28t105.5 -11 q59 0 88.5 20.5t29.5 61.5q0 43 -32 64.5t-101 21.5h-32l-21 -1v179q-35 6 -67 18q-58 22 -107 73v-72h-185z" />
<glyph unicode="&#xff;" horiz-adv-x="1161" d="M-4 920v188h489v-188h-149l242 -648l243 648h-149v188h489v-188h-131l-426 -1086h172v-190h-538v190h157l78 197l-346 889h-131zM312 1307v209h184v-209h-184zM668 1307v209h184v-209h-184z" />
<glyph unicode="&#x152;" horiz-adv-x="2247" d="M72 737q0 154 55.5 289t165.5 248q101 103 227.5 157t270.5 54q157 0 278.5 -52t235.5 -167v190h811v-432h-168v242h-432v-439h432v-190h-432v-442h432v237h168v-432h-811v195q-100 -112 -228.5 -168t-288.5 -56q-156 0 -291 63t-243 187q-89 103 -135.5 235t-46.5 281z M283 735q0 -112 37.5 -213t108 -178t167.5 -121q48 -21 95.5 -32t96.5 -11q219 0 367 161t148 398q0 98 -36 190.5t-104 170.5q-79 90 -172 133q-46 21 -96.5 32t-106.5 11q-98 0 -188 -39.5t-162.5 -115.5t-113.5 -179t-41 -207z" />
<glyph unicode="&#x153;" horiz-adv-x="2228" d="M66 553q0 118 44 223t127 188t189 127t223 44q145 0 261.5 -62.5t203.5 -187.5q92 125 208.5 187.5t258.5 62.5q146 0 273 -68t210 -190q48 -71 73.5 -155.5t25.5 -170.5l-4 -70v-6h-945q33 -139 133.5 -223t233.5 -84q99 0 180 47t142 137h227q-66 -174 -214.5 -277.5 t-334.5 -103.5q-144 0 -262.5 62.5t-204.5 183.5q-91 -122 -208 -184t-257 -62q-119 0 -222.5 43.5t-187.5 126.5t-128.5 189.5t-44.5 222.5zM274 553q0 -161 109.5 -273t265.5 -112q155 0 264 112t109 273t-108.5 274t-264.5 113t-265.5 -112.5t-109.5 -274.5zM1219 651 h723q-39 134 -136 211.5t-225 77.5t-224 -76t-138 -213z" />
<glyph unicode="&#x178;" horiz-adv-x="1133" d="M-66 1266v190h551v-190h-151l235 -510l230 510h-152v190h549v-190h-168l-356 -742v-329h170v-195h-553v195h170v342l-355 729h-170zM297 1653v209h184v-209h-184zM653 1653v209h184v-209h-184z" />
<glyph unicode="&#x2c6;" horiz-adv-x="1024" d="M217 1247l197 350h196l197 -350h-123l-172 230l-174 -230h-121z" />
<glyph unicode="&#x2dc;" horiz-adv-x="1024" d="M219 1292q18 100 68 153.5t125 53.5q21 0 32 -2l27 -6l99 -29l28 -6l25 -2q34 0 56.5 17.5t37.5 54.5h88q-19 -101 -69.5 -154t-127.5 -53h-12q-6 0 -22 2l-31 6l-97 29l-26 6l-23 2q-29 0 -52 -17.5t-38 -54.5h-88z" />
<glyph unicode="&#x2000;" horiz-adv-x="986" />
<glyph unicode="&#x2001;" horiz-adv-x="1972" />
<glyph unicode="&#x2002;" horiz-adv-x="986" />
<glyph unicode="&#x2003;" horiz-adv-x="1972" />
<glyph unicode="&#x2004;" horiz-adv-x="657" />
<glyph unicode="&#x2005;" horiz-adv-x="493" />
<glyph unicode="&#x2006;" horiz-adv-x="328" />
<glyph unicode="&#x2007;" horiz-adv-x="328" />
<glyph unicode="&#x2008;" horiz-adv-x="246" />
<glyph unicode="&#x2009;" horiz-adv-x="394" />
<glyph unicode="&#x200a;" horiz-adv-x="109" />
<glyph unicode="&#x2010;" horiz-adv-x="678" d="M90 461v184h498v-184h-498z" />
<glyph unicode="&#x2011;" horiz-adv-x="678" d="M90 461v184h498v-184h-498z" />
<glyph unicode="&#x2012;" horiz-adv-x="678" d="M90 461v184h498v-184h-498z" />
<glyph unicode="&#x2013;" horiz-adv-x="1024" d="M0 481v144h1024v-144h-1024z" />
<glyph unicode="&#x2014;" horiz-adv-x="2048" d="M0 481v144h2048v-144h-2048z" />
<glyph unicode="&#x2018;" horiz-adv-x="412" d="M92 993v219q0 127 45.5 189.5t155.5 87.5v-133q-39 -12 -53.5 -36t-14.5 -83h70v-244h-203z" />
<glyph unicode="&#x2019;" horiz-adv-x="412" d="M121 963v131q39 12 53 35t14 85h-67v244h201v-219q0 -127 -46 -189.5t-155 -86.5z" />
<glyph unicode="&#x201a;" horiz-adv-x="412" d="M121 4v244h201v-219q0 -127 -46 -189.5t-155 -87.5v133q38 12 52.5 35t14.5 84h-67z" />
<glyph unicode="&#x201c;" horiz-adv-x="743" d="M92 989v219q0 127 45.5 189.5t155.5 87.5v-133q-39 -12 -53.5 -37t-14.5 -82h70v-244h-203zM424 989v219q0 127 45.5 189.5t155.5 87.5v-133q-40 -12 -54 -34.5t-14 -70.5v-14h70v-244h-203z" />
<glyph unicode="&#x201d;" horiz-adv-x="743" d="M119 961v131q39 12 54 36t15 84h-69v244h203v-219q0 -125 -46.5 -187.5t-156.5 -88.5zM451 961v131q40 11 54.5 35t14.5 85h-69v244h202v-219q0 -128 -46 -190t-156 -86z" />
<glyph unicode="&#x201e;" horiz-adv-x="743" d="M119 0v246h203v-221q0 -125 -46 -187t-157 -88v131q39 12 54 36t15 83h-69zM451 0v246h202v-221q0 -125 -46 -187.5t-156 -87.5v131q39 12 54 36t15 83h-69z" />
<glyph unicode="&#x2022;" horiz-adv-x="1208" d="M307 762q0 122 87.5 208.5t209.5 86.5q121 0 208 -86.5t87 -208.5t-87.5 -209.5t-209.5 -87.5t-208.5 87.5t-86.5 209.5z" />
<glyph unicode="&#x2026;" horiz-adv-x="2048" d="M242 0v246h200v-246h-200zM924 0v246h200v-246h-200zM1608 0v246h200v-246h-200z" />
<glyph unicode="&#x202f;" horiz-adv-x="394" />
<glyph unicode="&#x2039;" horiz-adv-x="522" d="M145 467v170l228 268v-246l-94 -106l94 -104v-248z" />
<glyph unicode="&#x203a;" horiz-adv-x="522" d="M145 201v248l95 104l-95 104v248l228 -264v-172z" />
<glyph unicode="&#x205f;" horiz-adv-x="493" />
<glyph unicode="&#x2122;" horiz-adv-x="1706" d="M225 1366v94h467v-94h-168v-448h-129v448h-170zM809 918v542h170l141 -360l133 360h170v-542h-114v428l-160 -428h-59l-166 428v-428h-115z" />
<glyph unicode="&#xe000;" horiz-adv-x="1110" d="M0 0v1110h1110v-1110h-1110z" />
</font>
</defs>
</svg>
